<?xml version="1.0" standalone="no"?>
<!DOCTYPE svg PUBLIC "-//W3C//DTD SVG 1.1//EN" "http://www.w3.org/Graphics/SVG/1.1/DTD/svg11.dtd" >
<svg xmlns="http://www.w3.org/2000/svg">
<metadata>
This is a custom SVG webfont generated by Font Squirrel.
Copyright   :  19992001 WolfBainX  Apostrophic Labs All rights reserved Visit wwwapsotrophiclabcom or email infoapostrophiclabcom for more info
Designer    : WolfBainX  Apostrophe
Foundry URL : wwwapostrophiclabcom
</metadata>
<defs>
<font id="webfontJAGys8oE" horiz-adv-x="1435" >
<font-face units-per-em="2048" ascent="1638" descent="-410" />
<missing-glyph horiz-adv-x="790" />
<glyph unicode=" "  horiz-adv-x="790" />
<glyph unicode="&#x09;" horiz-adv-x="790" />
<glyph unicode="&#xa0;" horiz-adv-x="790" />
<glyph unicode="!" horiz-adv-x="806" d="M-76 147q0 -113 68.5 -172t167.5 -59h2q82 0 136 37t85 84t43 92t12 61q0 37 -14 80t-46 80t-81 61.5t-119 24.5q-53 0 -96 -20.5t-76 -53t-52.5 -76.5t-25.5 -89v-2q-2 -10 -3 -22t-1 -26zM68 614q0 -43 33.5 -81.5t82.5 -66.5t104.5 -44t98.5 -16q37 0 59.5 21.5 t34.5 72.5v-2q39 131 87 276l102 298l109 305l110 296l-2 -2q8 23 13 41.5t5 34.5q0 68 -74 123q-47 35 -111.5 63.5t-117.5 44.5h4q-35 14 -67 15q-43 0 -66.5 -23.5t-42.5 -75.5q-41 -117 -89 -271l-96 -320l-92 -327q-44 -161 -73 -290q-12 -47 -12 -72z" />
<glyph unicode="&#x22;" horiz-adv-x="1138" d="M219 1354q0 -90 146 -90q27 0 52 3t46 7h-2q45 6 79.5 29.5t63.5 60.5l2 2l52 83q30 48 59 105v-2q20 37 38.5 80t32 83t21.5 75t8 57v11q-2 31 -20.5 58.5t-45 51t-58 43t-62.5 35.5l2 -2q-43 25 -78 24q-33 0 -56.5 -18t-33.5 -61v2q-20 -63 -51 -145l-64 -163 l-64 -157l-55 -127q-8 -16 -10 -25.5t-2 -19.5zM645 1311q0 -53 51.5 -73.5t143.5 -20.5q57 0 105 16t91 59h2q29 31 64 77t69.5 99.5t65.5 107.5t51 101v-2q2 4 2 6q0 4 2 9l16 53q5 18 5 16v13q0 51 -50.5 104t-111.5 90l4 -2q-45 33 -84 33q-59 0 -92 -68l-56 -105 l-71 -126l-74 -131l-66 -120q-30 -54 -48.5 -91t-18.5 -45z" />
<glyph unicode="#" horiz-adv-x="1488" d="M-27 633q0 -39 20.5 -75t52.5 -63.5t68 -45t66 -19.5q-4 -18 -4 -35v-30q0 -41 15.5 -81t43 -72t64.5 -51.5t78 -19.5q35 0 60.5 41t45 99.5t33.5 119t27 101.5q43 10 83 13t87 13l-16 -71q-7 -33 -7 -68q2 -33 16.5 -68.5t40 -66.5t60.5 -50.5t78 -19.5q31 0 50 21.5 t33.5 56.5t27 78l26.5 88v-2l25 76l26 86l51 4l86 8q41 4 72 12.5t49.5 23.5t18.5 44q0 20 -23 61h2q-31 55 -63.5 84t-98.5 37l37 102l35 99l101 8l100 8h2q49 6 73.5 20.5t24.5 49.5q0 20 -22 59l2 -2q-16 29 -30.5 51.5t-34 39t-45.5 26.5t-62 16q27 47 43 100.5t16 94.5 q0 35 -17.5 76t-45 75.5t-64.5 58t-74 23.5q-35 0 -65.5 -42t-59 -107.5t-56.5 -142.5l-54 -148q-35 -2 -74 -7t-78 -5q8 18 14.5 36.5t10.5 34.5v-2q20 47 20 95q0 33 -18.5 74.5t-47 76.5t-64.5 59.5t-72 24.5q-37 0 -68 -43t-59.5 -109.5t-54.5 -145.5l-50 -150 q-74 -16 -138.5 -24.5t-127.5 -27.5h2q-47 -10 -68.5 -25t-21.5 -48q0 -16 7 -31.5t17 -34.5l-2 2q37 -68 80 -105.5t123 -37.5h18q-14 -47 -25 -90t-28 -88q-23 -4 -42 -8.5t-42 -8.5l2 2l-84 -19q-39 -9 -66.5 -19.5t-44 -26.5t-16.5 -43zM647 821l28 86q13 43 30 90 q37 6 74.5 10.5t76.5 10.5h6l-27 -85l-30 -91q-37 -4 -77 -9.5z" />
<glyph unicode="$" horiz-adv-x="1126" d="M-43 553q0 -47 59 -125l-2 2q41 -53 84 -90t86 -66q-10 -41 -16 -82.5t-6 -89.5q0 -43 11 -90t33.5 -88t57.5 -67.5t82 -26.5q29 0 48.5 18.5t31.5 61.5q10 53 32 125l44 145h24q125 0 208 46t133.5 108.5t70.5 124t20 92.5q0 76 -42 133t-103 107.5t-130 96.5t-122 99h2 q-33 39 -33 82q0 39 17.5 80t42 74.5t52.5 57.5t50 30v-2q0 -23 -5 -49l-10 -54q-5 -27 -10 -49t-5 -35q-2 -8 -3.5 -17t-1.5 -24q0 -86 53.5 -138t135.5 -89q20 -6 39 -6q45 0 78.5 41t56 102.5t37 133t18.5 135.5v-3q2 10 2 21v25q0 45 -17.5 95t-70.5 103h2 q-16 12 -29.5 25.5t-29.5 23.5q10 31 18 62l17 59l6 25v-2q8 23 10 43t2 41q0 68 -31.5 120t-85.5 91h2q-35 29 -73 28q-41 0 -65.5 -29.5t-44 -78.5t-41 -113.5t-56.5 -134.5q-33 -4 -61.5 -15.5t-53.5 -25.5q-78 -45 -145.5 -111.5t-118.5 -142.5t-81 -153.5t-30 -141.5 q0 -82 31 -147.5t80 -118.5t109.5 -98t119.5 -84l85 -59q36 -24 46 -36q-6 -4 -16 -4h-20q-49 0 -118 27t-147 80l4 -2q-27 23 -66.5 36t-82.5 13q-33 0 -63.5 -8t-57.5 -27h2q-49 -29 -49 -82v-8z" />
<glyph unicode="%" horiz-adv-x="1845" d="M137 1210q0 -111 38 -181.5t93.5 -111t119 -57t112.5 -16.5q80 0 143.5 33.5t112.5 91.5l-147 -183l-133 -171l-115 -150l-89 -121q-33 -47 -46 -86t-13 -74q0 -29 14.5 -61.5t36 -62t49 -49t56.5 -19.5q20 0 37.5 11t39.5 34q55 78 144 191l194 245l225 270l229 271 l211 243l169 191v2q66 74 65 154q0 31 -12 67.5t-33.5 68.5t-48 53.5t-57.5 21.5q-41 0 -78 -39q-47 -49 -102.5 -86t-110.5 -64t-107.5 -40t-91.5 -13q-53 0 -86.5 19.5t-57.5 47t-40 57t-35 50.5q-35 31 -82 53.5t-110 36.5h2q-12 4 -23 4h-16q-100 0 -184 -64.5 t-144.5 -160.5t-94.5 -206t-34 -200zM444 1137q0 41 12.5 100t35.5 129v-2q12 35 29.5 70.5t37 66.5t36.5 53.5t30 28.5v-33q0 -10 -1 -20t-1 -21q-4 -41 -18.5 -93t-24.5 -109l2 4q-35 -109 -70 -165t-59 -56q-2 0 -4 2q-5 0 -5 45zM612 1597l13 -8v-2q-9 4 -13 10z M772 991q59 78 94 175.5t45 189.5q41 -8 86 -8q41 0 78 6l-150 -179zM903 338q0 -94 30 -169t95 -116v2q39 -29 84 -43t92 -22h-2q14 -4 29 -4h31q74 0 133 30.5t106 82t82 117t57.5 136t34 141t11.5 130.5q0 76 -16.5 141t-76.5 125q-16 12 -42.5 28.5t-59.5 30t-65.5 23.5 t-59.5 10q-72 0 -134.5 -30.5t-113.5 -83t-91 -119t-67.5 -138t-42 -142.5t-14.5 -130zM1198 270v27q4 43 23.5 107.5t47 129t59.5 116.5t63 71v-29q0 -74 -22.5 -155.5t-53.5 -150.5t-61.5 -114t-45.5 -47q-10 4 -10 45zM1384 733l11 -8h-2z" />
<glyph unicode="&#x26;" horiz-adv-x="1611" d="M-63 422q0 -78 39.5 -164t134.5 -164q94 -78 185 -105.5t177 -29.5q63 0 121.5 13.5t112.5 29.5h-2q80 18 153.5 49t140.5 72l31 -31q57 -51 94 -70.5t84 -19.5q63 0 104.5 23.5t82.5 52.5l-2 -2q29 20 44 39.5t15 46.5q0 14 -11 34.5t-28.5 42t-38.5 44.5l-41 45v-2 l-35 36q27 20 53.5 56.5t47 78.5t33 84t12.5 78q0 27 -7 55.5t-20.5 52.5t-34 38t-47.5 14t-59.5 -18.5t-68.5 -45t-71.5 -57t-68.5 -55.5l-68 92l-65 94q102 59 199.5 125t162.5 136h-2q143 150 144 317q0 172 -146 334q-86 98 -165.5 133t-165.5 35t-176.5 -22.5 t-173.5 -65.5t-152.5 -104.5t-114.5 -137.5v2q-82 -133 -82 -264q0 -33 5 -73t17.5 -84t31 -88t44.5 -83q2 -8 11 -28q-96 -57 -176 -120t-137.5 -130.5t-89 -140t-31.5 -148.5zM397 365v4q4 45 48 106.5t145 138.5l66 -91l69 -91q-92 -45 -165 -68.5t-122 -23.5 q-25 0 -33 3.5t-8 21.5zM727 1262q0 43 23.5 86t61.5 79.5t88 65.5t106 45q18 -31 18 -63q0 -49 -24.5 -93.5t-63.5 -82t-90 -70.5t-103 -62q-10 25 -13 48.5t-3 46.5z" />
<glyph unicode="'" horiz-adv-x="614" d="M176 1298q0 -57 53.5 -73.5t130.5 -16.5q57 0 98.5 12.5t88.5 63.5l-2 -2q27 31 61.5 77t68.5 98t63.5 105.5t47.5 100.5v-2q0 41 11.5 62.5t11.5 19.5v10q0 23 -20.5 60.5t-54.5 74.5t-75 63.5t-79 26.5q-31 0 -51.5 -16t-36.5 -51l-69 -133l-81 -153l-80 -147l-65 -120 v2q-21 -29 -21 -62z" />
<glyph unicode="(" horiz-adv-x="720" d="M80 682q0 -147 25.5 -294.5t82.5 -274.5q25 -55 59 -92t70.5 -59.5t75.5 -32t78 -9.5h25q47 8 66.5 22.5t19.5 49.5q0 16 -13 47q-45 111 -64.5 228.5t-19.5 240.5q0 135 22.5 273.5t62.5 271.5t96.5 257t124.5 232q55 88 55 187q0 37 -14.5 90t-39 102t-58.5 84t-72 35 q-47 0 -91 -53q-117 -133 -208 -290t-154.5 -325t-96 -343t-32.5 -347z" />
<glyph unicode=")" horiz-adv-x="817" d="M-168 -10q0 -45 38 -60.5t105 -15.5q78 0 144.5 22.5t120.5 73.5q117 113 213 270.5t165.5 340t107.5 378t38 381.5q0 135 -19 252q-25 131 -109.5 227.5t-242.5 125.5h2q-25 6 -49 6q-49 0 -67.5 -26t-18.5 -67q0 -29 6 -53q20 -98 31.5 -199.5t11.5 -205.5 q0 -190 -31.5 -388t-90 -380.5t-140.5 -340t-184 -270.5q-31 -36 -31 -71z" />
<glyph unicode="*" horiz-adv-x="1468" d="M102 1096q0 -33 24 -68t60.5 -63.5t79.5 -47t80 -18.5q47 0 103 20l104 35l-16 -65q-8 -33 -9 -68q0 -80 38 -124t98 -72q43 -23 71 -23q33 0 59.5 48t45 106.5t29 107.5t10.5 54l47 -40t53 -38h-2q98 -80 184 -80q33 0 70 9t66.5 25.5t49 37t19.5 42.5q0 27 -34 64 t-76 71.5l-80.5 63.5l-49.5 37q59 16 120 29.5t126 25.5q82 12 82 78q0 29 -20 62q-39 59 -90.5 92t-139.5 33q-37 0 -69.5 -4.5t-67.5 -10.5h2q-6 -2 -12 -2t-15 -2l45 115q18 49 19 90q0 66 -35 116t-94 91q-18 12 -34.5 20t-37.5 8q-35 0 -65.5 -41t-55 -98t-44.5 -118 l-31 -97q-18 12 -36 34.5t-42 45.5v-2q-47 47 -96.5 68.5t-102.5 21.5q-29 0 -63.5 -7t-65.5 -21.5t-51.5 -36t-20.5 -48.5q0 -29 29 -66.5t68 -77.5t80 -78l67 -62q-90 -25 -162.5 -48.5t-132.5 -45.5h2q-43 -14 -61.5 -31.5t-18.5 -46.5z" />
<glyph unicode="+" horiz-adv-x="1509" d="M-10 915q0 -33 19.5 -81t51 -92t71.5 -75.5t79 -31.5h22q12 0 29 4q35 4 70 11t69 12q-10 -63 -22 -111.5t-12 -79.5q0 -39 19.5 -69.5t53.5 -53.5h-2q51 -35 111.5 -66.5t99.5 -31.5q33 0 56.5 41t44 107.5t40 147.5t46.5 161q111 12 216 14t216 8q53 0 76.5 16.5 t23.5 57.5q0 2 -8 46t-31.5 95t-64.5 94t-109 45q-25 2 -55 2h-60h-79q14 29 24 57.5t25 57.5v-2q20 39 20 72q0 29 -12 49t-35 45v-2q-16 18 -45 40.5t-61.5 42t-65.5 33t-53 13.5q-47 0 -81 -37t-61.5 -97.5t-51.5 -136.5l-50 -157q-121 -8 -226.5 -20.5t-183.5 -28.5 q-41 -4 -77.5 -28t-36.5 -71z" />
<glyph unicode="," horiz-adv-x="608" d="M-238 -207q0 -29 22.5 -50.5t58.5 -35.5t77 -20t78 -6h14q41 4 71 17t67 52q31 31 75.5 83t87.5 108.5t74 109.5t31 86t-20.5 62.5t-51.5 55.5t-67 48l-68 41l2 -2q-41 25 -74 25q-29 0 -53.5 -15.5t-42.5 -50.5q-51 -111 -123 -227l-137 -221q-21 -37 -21 -60z" />
<glyph unicode="-" horiz-adv-x="1202" d="M-131 1012q0 -41 27.5 -96.5t68.5 -105.5t87 -85t83 -35q20 0 45 8q147 35 317.5 53.5t336.5 28.5q53 2 77.5 17.5t24.5 56.5q0 -2 -5 20.5t-16.5 57.5t-30 76t-46 76.5t-65.5 60t-89 24.5q-92 0 -193.5 -6t-198.5 -15t-184.5 -21.5t-148.5 -24.5q-90 -16 -90 -90z" />
<glyph unicode="." horiz-adv-x="618" d="M-41 150q0 -92 58.5 -146.5t146.5 -54.5h14q76 0 123 31.5t74.5 70.5t39 75t13.5 46q0 4 1 8t1 8v11q0 31 -13.5 66.5t-42 66t-71.5 50t-104 19.5q-49 0 -90 -17t-72 -46t-50.5 -67t-25.5 -78q-2 -10 -2 -21v-22z" />
<glyph unicode="/" horiz-adv-x="1093" d="M-117 123q2 -29 13.5 -52.5t40.5 -45.5q29 -18 57 -40l76 -55h-2q39 -25 77 -24q33 0 54.5 18.5t40.5 52.5l-2 -2l129 219l170 280l190 310l191 308l172 269l131 200v-2q37 51 36 92q0 49 -51 100q-41 39 -82 71.5t-84 61.5q-47 31 -86 31q-61 0 -110 -70l2 2 q-57 -78 -138 -207l-172 -283l-186 -323l-179 -321l-153 -280l-104 -197q-14 -29 -22.5 -56.5t-8.5 -50.5v-6z" />
<glyph unicode="0" horiz-adv-x="1415" d="M2 575q0 -78 9 -153.5t30 -149.5q35 -92 105.5 -151.5t153.5 -93t170 -47t157 -13.5q129 0 237.5 64.5t194.5 172t150.5 246t106.5 285t63.5 289.5t21.5 262q0 63 -5 122.5t-22.5 114t-48.5 104.5t-82 93v2q-31 25 -79 50.5t-104 45t-116.5 32t-118.5 12.5 q-72 0 -148.5 -25t-137.5 -70q-133 -100 -233.5 -241.5t-168 -301t-101.5 -327.5t-34 -322zM473 520q0 82 20.5 183.5t54.5 206t78 203.5t91 177t96 125t90 47h4q14 -4 19.5 -36.5t5.5 -86.5q0 -115 -23.5 -245.5t-58.5 -247.5v2q-31 -109 -71 -202t-82 -160.5t-84 -105.5 t-76 -38q-12 0 -17 2h4q-29 10 -40 57t-11 119z" />
<glyph unicode="1" horiz-adv-x="772" d="M-10 174q0 -55 29.5 -92t71.5 -58.5t85 -32.5t70 -16q37 -12 59 -12q37 0 53.5 17.5t30.5 56.5q23 100 55 226l70 264l78 283l81 281l78 257q38 121 70 213l-2 -2q10 23 14.5 38t4.5 31q0 43 -42 84t-99.5 74t-115 52.5t-87.5 19.5q-31 0 -71 -31t-80 -79t-78 -105.5 t-64 -110.5h2q-12 -23 -18.5 -41t-6.5 -37q0 -37 19.5 -59.5t64.5 -46.5q-41 -137 -83 -296l-79 -312q-37 -153 -64.5 -283.5t-39.5 -212.5l2 4q-6 -23 -7 -40.5t-1 -33.5z" />
<glyph unicode="2" horiz-adv-x="1284" d="M-129 285q0 -35 18.5 -74t47 -78t61.5 -74.5t63 -62.5l-4 2q23 -25 48.5 -40t74.5 -15q16 0 64.5 7t118 19.5t152.5 25.5l169 27q86 13 168 23t147 14q53 8 77 22.5t24 61.5q0 16 -7.5 44t-19.5 57.5t-26.5 59.5t-28.5 52v-2q-29 49 -67 70.5t-91 21.5h-8q-39 -2 -87 -5 t-101 -7q86 70 170 149t159.5 159.5t139 159.5t106.5 151q59 94 97 182t38 180q0 51 -27.5 128t-87 147.5t-153.5 122t-229 51.5q-90 0 -180.5 -31t-175.5 -84t-160.5 -129t-137.5 -164q-33 -51 -47 -88t-14 -65q0 -39 23.5 -65t60.5 -40t81 -20.5t85 -6.5q55 0 114.5 16.5 t112.5 55.5l81 72q40 35 77 61.5t67.5 43t53.5 16.5h2q-6 -35 -52.5 -104.5t-120 -159t-171 -191.5l-205.5 -206l-221 -202q-113 -98 -218 -176q-35 -29 -48 -56t-13 -56z" />
<glyph unicode="3" horiz-adv-x="1345" d="M-127 338q0 -29 19.5 -64.5t66.5 -83.5q68 -72 138.5 -118.5t142 -75.5t142.5 -41t138 -12q90 0 173 13t159 45t144.5 84t131.5 130q111 139 111 305q0 88 -37 171t-115 159v-2q-23 23 -48 39t-52 31q145 74 236 153q61 53 100 135t39 180q0 68 -24.5 146t-84.5 154 q-90 113 -185 150.5t-181 37.5q-90 0 -177 -26.5t-166 -68.5t-146.5 -95.5t-114.5 -108.5q-16 -23 -26.5 -43.5t-10.5 -42.5q0 -37 25.5 -68.5t66.5 -56.5t92 -38t105 -13q100 0 174 49h-2q53 33 110 61.5t96 28.5h11q4 -4 4 -8q0 -27 -37 -66t-116 -87t-198.5 -101 t-285.5 -109q-80 -29 -80 -98q0 -37 20 -76v2q49 -100 130 -156.5t176 -56.5h20q10 0 21 2q23 2 42 3t35 1q18 0 38 -3t35 -12t24.5 -25.5t9.5 -45.5q0 -39 -19.5 -84t-62.5 -92h2q-45 -45 -92 -68.5t-103 -23.5q-96 0 -237 78h2q-72 47 -168 47q-82 0 -150 -43l5 2 q-29 -16 -47.5 -37.5t-18.5 -56.5z" />
<glyph unicode="4" horiz-adv-x="1470" d="M-35 805q0 -35 17.5 -74t45 -77t60.5 -74.5t64 -67.5h-2q29 -33 59.5 -45t64.5 -12q20 0 36 2t32 6h-2q61 10 124 18l130 17l35 4q-35 -123 -56.5 -211t-21.5 -125q0 -51 37 -93t88 -71t105.5 -45t90.5 -16q41 0 60.5 21.5t34.5 68.5q29 111 66.5 240.5t84.5 277.5 q51 2 100.5 3t87 9t61.5 27.5t24 60.5q0 23 -7.5 44.5t-11.5 41.5q-6 27 -15 56.5t-24.5 57.5t-37 51.5t-54.5 35.5q2 4 2 6t2 6l102 309q48 145 89 256l-2 -2q18 45 18 72q0 35 -17.5 59.5t-58.5 53.5q-51 31 -113.5 63.5t-123 60t-109.5 46t-72 18.5q-31 0 -57.5 -11 t-62.5 -40q-92 -78 -208 -191.5t-231.5 -239.5t-219 -251t-171.5 -227l2 2q-45 -64 -45 -121zM498 907l186 204l197 198l-37 -116l-39 -118v2l-25 -75q-12 -38 -22 -76q-68 -4 -134.5 -9.5t-125.5 -9.5z" />
<glyph unicode="5" horiz-adv-x="1220" d="M-86 348q2 -53 78 -145l-2 2q39 -66 91 -109t112.5 -69.5t127 -38t136.5 -11.5h8q125 2 222 37t169 86.5t118 109.5t70 107q92 184 93 330q0 100 -40 177t-105.5 132.5t-150.5 87t-175 41.5l62 143l69 142q27 4 53.5 7t54.5 7h-2q98 10 187 22l172 21q59 8 85.5 25.5 t26.5 65.5q0 12 -6 47l2 -2q-10 49 -15 95t-28 95l2 -4q-41 100 -155 100h-23q-135 -4 -275.5 -14t-289.5 -33q-121 -20 -178 -125q-94 -193 -164 -356.5t-113 -294.5v2q-8 -23 -11 -44t-3 -40q0 -35 12 -60.5t30.5 -45t40 -33.5t38.5 -27q29 -18 55 -43h-2q23 -23 41 -32 t47 -9q14 0 39 6l55 14q31 7 64.5 13t70.5 6q27 0 42.5 -1t23.5 -9t9 -24.5t1 -47.5q0 -41 -15.5 -92t-42 -96t-64.5 -77t-83 -32q-35 0 -77 18.5t-97 61.5q-31 25 -76 38t-94 13q-37 0 -76 -9t-70.5 -25.5t-53 -43t-21.5 -59.5z" />
<glyph unicode="6" horiz-adv-x="1257" d="M-39 442q0 -90 36 -177t107.5 -156.5t179 -111.5t253.5 -42q80 0 141 20.5t110 55.5q66 45 130.5 118.5t115.5 166t83 200t32 217.5v15q0 55 -12.5 106t-41 96t-79.5 84t-127 74q-68 27 -139 37q90 123 196.5 236.5t231.5 213.5q29 25 41 47.5t12 45.5q0 59 -92 107 t-234 79l2 -2q-23 6 -38 8t-27 2q-41 0 -65.5 -15.5t-63.5 -43.5q-203 -166 -341.5 -346.5t-225.5 -354.5t-130 -328.5t-51 -267.5v2q-4 -20 -4 -43v-43zM397 403q0 41 17.5 103.5t46.5 140.5q49 66 103 103.5t98 37.5q25 0 36 -16t11 -43q0 -61 -30 -131t-71 -128t-85 -97 t-72 -39q-54 -1 -54 69z" />
<glyph unicode="7" horiz-adv-x="1325" d="M102 195q0 -47 37 -94.5t85 -86.5t97.5 -62.5t73.5 -23.5q53 0 90 70l-2 -2q94 172 207 356l232 364l239 348q121 169 234 310q49 61 49 125q0 53 -37 107l2 -4l-51 81q-27 41 -74 99l4 -4q-39 59 -83 75.5t-109 16.5q-96 -4 -208 -11.5t-223.5 -18.5t-216 -27.5 t-184.5 -36.5q-35 -8 -57.5 -23.5t-22.5 -52.5q0 -16 10.5 -30.5t10.5 -31.5l-2 2q0 -27 18.5 -60.5t41 -63t38.5 -48t14 -14.5q35 -37 74 -53.5t80 -16.5q35 0 64.5 6.5t70.5 10.5q53 6 116 14l124 17q-199 -266 -385.5 -558t-325.5 -573q-14 -33 -22.5 -58t-8.5 -48z" />
<glyph unicode="8" horiz-adv-x="1353" d="M-55 397q0 -86 40 -165.5t115.5 -141t185 -97.5t249.5 -36q137 0 274 55.5t244 188.5q70 86 109.5 176t41.5 178q0 86 -43 170t-145 168q106 63 189 126.5t134 141.5v-2q43 59 62.5 118.5t19.5 119.5q0 86 -45 171t-118.5 152.5t-165 109.5t-183.5 42q-90 0 -182 -36 t-177 -92t-155.5 -128t-118.5 -141q-76 -119 -75 -236q0 -162 141 -289q-80 -53 -152.5 -112.5t-127 -127t-86 -146.5t-31.5 -167zM408 371q0 35 21.5 75.5t58 83.5t85 83t99.5 75q37 -47 37 -88q0 -37 -17.5 -75t-44.5 -79h2q-45 -66 -94 -100.5t-90 -34.5q-16 0 -23 2h2 q-16 6 -26 20.5t-10 37.5zM674 1188q0 63 61.5 140t184.5 159q35 -35 34 -68q0 -53 -69.5 -118.5t-202.5 -151.5q-8 16 -8 39z" />
<glyph unicode="9" horiz-adv-x="1251" d="M10 168q0 -49 43 -89t96.5 -67.5t101.5 -42t58 -14.5q35 0 63.5 14.5t65.5 36.5q117 80 226.5 183.5t206 220t175 241.5t136 246t89.5 234.5t34 207.5v11q0 92 -25 162.5t-71 126t-114.5 100.5t-156.5 84q-129 51 -229 51q-92 0 -163 -29.5t-126 -64.5 q-72 -51 -136.5 -131t-113.5 -177.5t-79 -204t-30 -210.5q0 -20 1 -39t4 -35v2q10 -135 78.5 -224t226.5 -147l-2 2q12 -8 23 -11t22 -5q-158 -190 -353 -344q-29 -23 -40 -44t-11 -44zM518 1014q0 41 13.5 93t35.5 110v-3q23 51 51.5 98.5t59.5 83.5t60.5 57.5t54.5 21.5 q2 0 2 -2h4q20 -8 20 -62q0 -72 -40 -186.5t-113 -253.5q-25 -23 -45.5 -32t-38.5 -9q-27 0 -45.5 14.5t-18.5 69.5z" />
<glyph unicode=":" horiz-adv-x="722" d="M-76 168q0 -92 54.5 -148.5t140.5 -72.5h-2q25 -6 57 -6q109 0 173.5 72.5t64.5 185.5q0 37 -11.5 80t-39 79.5t-74.5 61t-121 24.5q-94 0 -154.5 -59t-79.5 -145l2 2q-6 -23 -8 -40.5t-2 -33.5zM121 889q0 -53 18.5 -96t49 -74t72.5 -47.5t91 -16.5h4q86 0 138.5 38 t80 86t37 91t9.5 54v18q0 35 -14.5 74t-44.5 70.5t-76 53t-109 21.5q-49 0 -92 -18.5t-77 -50t-55.5 -73.5t-29.5 -87q-2 -10 -2 -23v-20z" />
<glyph unicode=";" horiz-adv-x="757" d="M-180 -264q0 -78 82 -111l-2 2q41 -18 83 -30.5t83 -12.5h18q43 6 74.5 26.5t60.5 67.5l-2 -2q20 31 46 78t51 102l51 110q25 56 41 106l-3 -2q16 39 17 73q0 57 -37 109.5t-107 103.5h3q-47 41 -92.5 70t-82.5 29q-66 0 -86 -86q-41 -154 -91 -299l-97 -279 q-10 -35 -10 -55zM-18 1122q4 -72 27.5 -130t60 -101t83 -66.5t97.5 -23.5h4q53 0 91 20.5t63.5 50t41 66.5t22.5 68.5t9 55t2 28.5q0 43 -13 98t-46 104t-86 83t-133 34q-49 0 -91 -23.5t-71 -62.5t-45 -90t-16 -105v-6z" />
<glyph unicode="&#x3c;" horiz-adv-x="1050" d="M39 768q4 -20 17.5 -38.5t35.5 -29.5l293 -129q145 -63 274 -137h-2q20 -12 37 -19t35 -7q27 0 47.5 18t34.5 48t24.5 67t18.5 75l-2 -2q4 12 4 19v12q0 39 -22.5 68.5t-62.5 56.5t-93 50l-113 52l178 77q86 36 177 69h-2q78 25 77 78q0 33 -26.5 73.5t-64.5 75.5 t-78 58.5t-64 23.5q-29 0 -60.5 -8t-74.5 -25h4q-51 -14 -112.5 -37.5t-122.5 -51.5l-116 -55q-56 -28 -96 -50l6 2q-35 -12 -57 -35t-36.5 -51.5t-22.5 -60t-15 -62.5l-10 -51v2q-8 -16 -9 -36t-1 -40z" />
<glyph unicode="=" horiz-adv-x="1341" d="M39 686q0 -35 25.5 -89t62.5 -105h-2q23 -35 51.5 -50.5t69.5 -15.5q12 0 22.5 1t22.5 3h2q201 35 403.5 54.5t411.5 27.5q53 2 77.5 17.5t24.5 56.5q0 25 -17 80t-48 100l2 -6q-35 86 -148 86h-69q-92 0 -193.5 -4t-205 -12.5t-203 -20.5t-187.5 -27q-45 -8 -73.5 -31.5 t-28.5 -64.5zM121 1149q0 -33 21.5 -86t50.5 -98h-3q23 -43 50.5 -58.5t74.5 -15.5h21q10 0 20 2q147 18 296 25.5t298 7.5q61 0 125 -2t125 -2q88 0 88 75q0 41 -13 76l-28 72v-2q-16 57 -65 84.5t-118 39t-153 10.5t-166 -1q-135 0 -269 -6t-245 -21q-45 -4 -77.5 -28.5 t-32.5 -71.5z" />
<glyph unicode="&#x3e;" horiz-adv-x="1124" d="M39 692q0 -20 17.5 -49t41 -57.5t50 -55t45.5 -41.5q45 -37 88 -36q20 0 35.5 5t33.5 15h-2q117 51 241 93t281 89q45 14 74 38t49.5 57.5t35.5 75.5l32 94q10 29 10 55q0 39 -19.5 57.5t-54.5 38.5l-167 82l-172 78q-85 37 -162.5 66.5l-137.5 50.5l2 -2q-16 6 -29.5 8 t-23.5 2q-31 0 -51 -17.5t-32.5 -46t-17.5 -63.5t-5 -70q0 -84 25.5 -119.5t84.5 -54.5h-2q90 -33 180 -72l-157 -48q-80 -24 -145.5 -50.5t-106.5 -57t-41 -65.5z" />
<glyph unicode="?" horiz-adv-x="1396" d="M109 143q0 -57 21.5 -100t58 -71.5t87 -43t105.5 -14.5q57 0 100 16.5t74 44t51.5 63.5t30.5 75q0 4 2 8l2 57q0 31 -12.5 71t-43 74.5t-85 59.5t-135.5 25q-53 0 -96.5 -16.5t-75 -45.5t-53 -66.5t-27.5 -80.5v2q-4 -14 -4 -29v-29zM145 1397q0 -37 26 -63.5t63.5 -43 t81.5 -25t79 -8.5q80 0 156 43t145 95l133 94q63 43 119 43q16 0 28.5 -7t14.5 -28q0 -53 -57 -121.5t-205 -161.5q-63 -39 -136 -89t-138.5 -116.5t-116.5 -152.5t-70 -197q-4 -16 -6 -30.5t-2 -32.5q0 -41 15.5 -68.5t56.5 -52.5l2 -2q51 -29 115.5 -56.5t115.5 -27.5 q45 0 69.5 20.5t29.5 69.5q29 129 99.5 209t156.5 138.5t174 110.5t153 126q57 63 100.5 150t43.5 192q0 72 -26 148.5t-87 158.5v-2q-29 41 -71 79t-95 67.5t-117.5 47t-136.5 17.5q-178 0 -342 -97.5t-299 -275.5q-39 -51 -55.5 -86.5t-16.5 -64.5z" />
<glyph unicode="@" horiz-adv-x="1863" d="M45 805q0 -158 45 -283t119 -218t168 -155.5t190 -95.5h-2q80 -29 149.5 -41t131.5 -12q41 0 83 5t74.5 16.5t53 31t20.5 49.5q0 12 -5 27.5t-19 30.5h2q-47 55 -102.5 78.5t-114 33t-117.5 11.5t-113 18q-37 10 -80 40t-78.5 80t-60 120.5t-24.5 165.5q0 63 13 138 t46 167q51 143 128 250.5t166 178t185 105.5t189 35q113 0 187.5 -39t118.5 -99.5t61.5 -134t17.5 -143.5q0 -82 -14.5 -159.5t-32.5 -139.5v2q-59 -164 -119 -251t-94 -87h-3q4 0 5 9v10q4 43 22.5 111.5t40.5 139.5l43 133q20 62 29 93q14 37 14 72q0 37 -19.5 64.5 t-66.5 58.5q-23 86 -91.5 138t-156.5 52q-74 0 -150.5 -36t-146 -98.5t-129 -150.5t-98.5 -192q-45 -121 -45 -217q0 -98 38 -163t93 -103.5t118.5 -55t112.5 -16.5q96 0 166 45q57 -76 160 -102h-4q63 -25 135 -25q61 0 123.5 21.5t122 72.5t113 134t98.5 206 q66 172 65 348q0 109 -27.5 211.5t-84 191.5t-144.5 160.5t-211 116.5l2 -2q-80 35 -164.5 50.5t-172.5 15.5q-168 0 -338 -64.5t-308.5 -191.5t-225.5 -317.5t-87 -444.5zM782 664q0 80 37 169t86 163.5t98.5 126t73.5 57.5q2 -4 3 -9.5t5 -11.5q-37 -115 -76.5 -213 t-76.5 -172t-70 -116t-57 -42h-2q-21 5 -21 48z" />
<glyph unicode="A" horiz-adv-x="1490" d="M-150 172q0 -33 16.5 -58.5t42 -47t58.5 -40t66 -34.5l24 -12q39 -16 72 -17q37 0 67.5 37t61.5 93.5t60.5 123t62.5 123.5q102 27 236 48l274 42l4 -41q0 -133 6 -233q4 -82 27.5 -116t87.5 -54l-2 2q53 -23 102 -27t107 -4q76 0 100.5 24.5t24.5 90.5q6 197 14 415 t19.5 426.5t24.5 395t30 321.5v-2q2 10 2 21v22q0 53 -22.5 87t-86.5 57l-37 10q-72 25 -167 48t-236 23q-84 0 -132 -35.5t-83 -88.5q-92 -143 -202 -336l-219 -398l-209 -402q-99 -198 -169 -353q-14 -35 -19.5 -61.5t-5.5 -49.5zM649 836l143 253l134 230 q-8 -111 -15 -225l-12 -232q-63 -4 -125 -10t-125 -16z" />
<glyph unicode="B" horiz-adv-x="1441" d="M-43 307q0 -47 16.5 -76.5t44.5 -68.5l-2 2q47 -70 105.5 -112t118.5 -70q37 -27 67.5 -39.5t67.5 -12.5q49 0 123 25h-2q78 23 166 55.5t175 73.5t165.5 90t136.5 105h-2q82 70 124 141.5t42 169.5q0 82 -39 167t-103 138q47 31 87 61l79 62q86 74 146.5 170t60.5 207 q0 59 -14.5 113.5t-39 102.5t-55 90t-63.5 79q-55 59 -155.5 85.5t-217.5 26.5q-90 0 -189.5 -14t-195.5 -38.5t-187 -57.5t-165 -70q-23 -158 -61 -332l-78 -347l-81 -338q-40 -165 -65 -306q-4 -23 -7 -42.5t-3 -39.5zM430 399l40 129l40 136q113 37 190 36q53 0 82 -10 t33 -26q0 -31 -28.5 -66t-79 -69.5t-121 -68.5t-156.5 -61zM651 1110q6 20 17 45l40 126q19 60 40 116q80 35 147.5 51t116.5 16q70 0 69 -16q0 -27 -29.5 -68t-86 -88t-136.5 -95t-178 -87z" />
<glyph unicode="C" horiz-adv-x="1327" d="M-53 522q0 -80 11 -152.5t36 -131.5v4q12 -37 35.5 -74t53.5 -67.5t62.5 -52t63.5 -30.5h-2q59 -23 133 -47t166 -34h-2q10 -2 22 -3h29q197 0 338 106.5t225 278.5q16 35 28.5 67t12.5 60q0 41 -23.5 71t-76.5 46q-33 10 -62.5 15.5t-58.5 5.5q-133 0 -236 -107 q-141 -154 -204 -153h-9q-25 10 -35 50t-10 99q0 90 22.5 209t63.5 236q33 90 82.5 191t101.5 187t101 144.5t80 60.5q10 -8 14 -27.5t4 -41.5q0 -31 -3 -71t-3 -79q6 -57 22.5 -102t47.5 -79t78 -57.5t116 -37.5q14 -4 27 -5h23q53 0 70.5 19.5t29.5 54.5q2 4 6 8 q14 37 25.5 85.5t19.5 99.5t12.5 103t4.5 97q0 84 -25 154t-109 135q-33 27 -79 50.5t-97 42t-106 30.5t-107 18h2q-10 2 -22 3h-21q-123 0 -235.5 -68t-209.5 -179.5t-177 -255t-137.5 -297t-88 -304t-30.5 -275.5z" />
<glyph unicode="D" horiz-adv-x="1521" d="M-51 309q0 -59 19.5 -91t43.5 -64q59 -59 103.5 -95t103.5 -75h-2q72 -45 152 -45q29 0 55.5 5t48.5 15h-2q264 82 458.5 223.5t323.5 310.5t192.5 352t63.5 349q0 170 -61 303v-2q-47 106 -115.5 180t-150.5 118t-173 63.5t-186 19.5q-158 0 -303 -41t-250 -96l-20 -27 l-287 -1300l2 2q-10 -35 -13 -60t-3 -45zM449 438l145 499q74 241 156 476q45 14 92 14q59 0 100 -25.5t57 -62.5l-2 2q8 -20 12.5 -43.5t4.5 -56.5q0 -82 -31 -186.5t-98.5 -213t-174.5 -214t-261 -189.5z" />
<glyph unicode="E" horiz-adv-x="1191" d="M-76 297q0 -53 16.5 -90t45.5 -68v2q35 -41 64.5 -72.5t58 -55t62.5 -36t79 -12.5q39 0 96 15l-2 -3l267 59l270 58q59 12 81.5 30.5t22.5 65.5q0 53 -19.5 112.5t-43.5 109.5v-2q-18 49 -52 70.5t-90 21.5q-92 0 -175 -12.5t-161 -26.5q4 37 20.5 85t33.5 89 q72 16 145.5 29.5t151.5 29.5h-2l103 16q50 7 88 19t61.5 33.5t23.5 56.5q0 18 -8 49l2 -2l-21 85q-10 42 -34 89v-2q-23 51 -58 69.5t-94 18.5h-14q-90 -2 -178 -12l55 157l51 146q127 18 239.5 31.5t219.5 24.5q68 8 92.5 30.5t24.5 77.5q0 29 -9 55l2 -2q-6 35 -14 66 t-29 78v-2q-18 53 -54 79.5t-101 26.5h-11q-109 -4 -219 -18.5t-215.5 -32.5t-203 -39.5t-179.5 -42.5l-26 -29l-357 -1364q-6 -30 -6 -61z" />
<glyph unicode="F" horiz-adv-x="1177" d="M-96 176q0 -43 17.5 -72.5t66.5 -60.5q49 -23 115.5 -49.5t125.5 -26.5q43 0 74 20.5t39 67.5v-4l78 277q43 154 96 317q109 25 218 45l218 41q59 10 85 29.5t26 66.5q0 14 -6 45l2 -2q-8 37 -20.5 82t-34 84t-57.5 65.5t-91 26.5h-18q-43 0 -86 -3t-86 -7q29 86 51 163 t47 136q125 16 241.5 28.5t225.5 29.5q63 8 86.5 28.5t23.5 75.5q0 45 -14 98.5t-42 99.5t-67.5 76.5t-93.5 30.5h-14q-106 -4 -220 -14t-225.5 -24.5t-217 -34t-193.5 -44.5q-6 -100 -31.5 -236t-60.5 -285.5t-75 -304.5l-77 -290l-64 -242q-28 -108 -36 -165 q-6 -37 -6 -68z" />
<glyph unicode="G" horiz-adv-x="1370" d="M-61 551q0 -76 10 -143.5t33 -126.5v2q25 -92 88 -158t145 -108t173 -61t175 -19q104 0 202.5 45t186.5 130t165 206.5t140 275.5q12 33 20.5 58.5t8.5 52.5q0 29 -9 55t-28 55v-2l-48 79t-51 61.5t-60.5 39t-75.5 13.5q-78 0 -168 -18l-182 -36q-6 -2 -15 -2 q-6 0 -10 -2l6 2l-76 -15q-35 -7 -57 -22l4 9l4 8q45 111 98.5 212t105.5 179t99 125t80 47v2l2 -2q4 -4 5 -15.5t3 -27.5v-2q0 -2 1 -4t1 -4v-80q-2 -12 -3 -22.5t-1 -26.5q0 -129 64.5 -212t222.5 -106q6 0 14.5 -1t14.5 -1q53 0 74.5 21.5t39.5 70.5v4q8 31 16.5 74 t14.5 90t10 95.5t4 89.5v34q-6 90 -33.5 151.5t-92.5 121.5q-41 35 -92.5 63.5t-110 48t-118.5 30.5t-118 11q-59 0 -124.5 -14t-123.5 -55l2 2q-141 -98 -257.5 -248.5t-200.5 -326t-131 -358.5t-47 -345zM420 481q0 72 13 158t42 172q23 -119 77 -179.5t157 -68.5 q-29 -53 -58.5 -98t-59.5 -79t-56.5 -53.5t-51.5 -19.5q-31 0 -47 45t-16 123z" />
<glyph unicode="H" horiz-adv-x="1411" d="M-92 174q0 -47 23.5 -76.5t63.5 -51t90 -39t103 -40.5q20 -6 36 -8t28 -2q31 0 49 11.5t29.5 34t19.5 56t21 78.5q23 96 51.5 202.5t64.5 225.5l124 20l128 19l-48 -204q-22 -93 -36 -164v2q-10 -37 -10 -64q0 -45 16.5 -72.5t45 -46t65.5 -34t80 -35.5l73 -20 q34 -9 62 -9q43 0 67.5 19.5t28.5 70.5l-2 -6l110 397l123 418l124 397l112 338q12 37 13 66q0 33 -31 67.5t-76 65.5t-98 53.5t-96 34.5h2q-41 14 -74 14q-41 0 -67.5 -22.5t-43.5 -75.5q-53 -154 -109 -351l-116 -401l-39 -2h2l-94 -8l-98 -8l94 296l80 236q12 37 12 68 q0 35 -18.5 60.5t-61.5 54.5l2 -2q-31 23 -75 45t-89 40.5t-85 31t-58 12.5q-41 0 -64.5 -20.5t-42.5 -69.5q-43 -164 -90 -363l-98 -404l-103 -404q-52 -198 -106 -357q-14 -41 -14 -74z" />
<glyph unicode="I" horiz-adv-x="622" d="M-111 176q0 -47 24 -80t62.5 -56.5t85.5 -39.5l97 -33q18 -6 32.5 -8t24.5 -2q41 0 58.5 19.5t31.5 64.5l61 230l71 267l78 281l80 278l77 252q37 118 67 205q12 39 13 70q0 35 -17.5 60.5t-58.5 54.5l2 -2q-31 23 -70 44t-81 38.5t-79.5 29t-64.5 11.5 q-41 0 -65.5 -21.5t-45.5 -75.5q-29 -88 -63 -213l-72 -267l-75 -293l-70 -290q-33 -139 -57.5 -258.5t-36.5 -199.5q-4 -18 -6.5 -32t-2.5 -34z" />
<glyph unicode="J" horiz-adv-x="1296" d="M-57 459q0 -72 17 -146.5t60 -141.5t114 -120t177 -80q53 -16 98.5 -22t84.5 -6q170 0 302 108.5t237.5 317.5t193.5 516t168 704q4 16 5 27.5t1 28.5q0 39 -42 80.5t-102.5 76.5t-127 56.5t-117.5 21.5q-45 0 -74 -24.5t-41 -79.5l-59.5 -268.5t-75.5 -312.5l-84 -317 q-43 -157 -86 -279t-84 -198.5t-74 -76.5q-16 4 -19 25.5t-3 64.5q0 20 1 42.5t1 51.5v12q0 186 -230 295q-41 20 -69 21q-49 0 -82 -42t-52.5 -100.5t-28.5 -124t-9 -110.5z" />
<glyph unicode="K" horiz-adv-x="1384" d="M-119 184q0 -43 13.5 -73.5t41 -53t67.5 -39t93 -34.5l69 -21.5t58 -9.5q41 0 65.5 21.5t28.5 74.5l-2 -6l54 194l61 222l131 -217t106.5 -147.5t94.5 -84t92 -26.5q45 0 111.5 17t117.5 44l-2 -2q39 23 58.5 42t19.5 52q0 16 -33 74l-82 139l-106 177q-57 95 -104 190 l189 186l188 196q91 97 166 188t122 165q51 84 51 147q0 51 -25.5 104.5t-61.5 94.5t-74.5 67.5t-67.5 26.5q-45 0 -90 -57l2 2q-41 -49 -103 -116l-135 -143l-153 -160l-160 -165l-25 -22l62 192q29 88 57 160l-2 -2q10 23 14.5 39t4.5 31q0 33 -31 67.5t-78 65.5 t-104.5 54.5t-108.5 37.5h2q-20 6 -35.5 8t-29.5 2q-41 0 -69 -21.5t-48 -70.5l-67 -215l-79 -272l-80 -300l-76 -298q-36 -143 -62.5 -265t-39.5 -202v2q-6 -31 -6 -60z" />
<glyph unicode="L" horiz-adv-x="1079" d="M-111 285q0 -47 16.5 -82t45.5 -64l41 -41h-2q25 -27 45 -46l43 -40v2q23 -20 49.5 -34.5t73.5 -14.5q23 0 48 3t56 14h-2q123 31 259 57.5t265 56.5l2 2q59 16 82 32.5t23 53.5q0 45 -17.5 111.5t-50.5 120.5l2 -2q-25 49 -56.5 69.5t-82.5 20.5q-90 0 -165 -12 l-152 -25l90 298l94 300l94 282l88 244l-2 -2q10 23 14.5 38t4.5 32q0 37 -40 77t-97.5 74.5t-122 57t-113.5 22.5q-74 0 -115 -92l-75 -216l-79 -252l-79 -270l-73 -267q-34 -129 -60.5 -244t-42.5 -203l2 4q-6 -20 -8.5 -35.5t-2.5 -29.5z" />
<glyph unicode="M" horiz-adv-x="1947" d="M-117 172q0 -45 32 -85t81 -70.5t106.5 -48t108.5 -17.5q41 0 64.5 24.5t39.5 77.5l42 176l52 203l59 219l67 228q6 -150 17 -288t28 -255q10 -70 32.5 -110t56 -62.5t79 -34.5t100.5 -25q20 -6 49 -6q25 0 39 5.5t24.5 16.5t20.5 28.5l23 41.5l66 135l87 162l98 179 l103 182l-48 -182q-24 -90 -42 -171l-33 -149l-23 -115v2q-6 -29 -6 -61q0 -84 86 -135h-2q20 -14 53 -28.5t68 -26t67.5 -18.5t55.5 -7q51 0 70.5 23.5t33.5 64.5l53 201l70 256l82 285l84 289l79 265q38 125 69 218v-3q10 23 13 42.5t3 35.5q0 51 -47 90t-112.5 68 t-139.5 48.5t-125 31.5h2q-29 10 -53.5 14t-46.5 4q-43 0 -77 -15t-64.5 -49t-62.5 -85l-73 -123v2l-81 -131l-84 -142l-83 -146l-77 -140q-4 119 -9.5 198.5t-8.5 132t-5 81t-2 47.5q0 16 2 26q-4 45 -8 81t-18.5 63.5t-43 50t-79.5 43.5h2q-68 29 -155 56.5t-204 27.5 q-53 0 -86 -25.5t-57 -91.5q-31 -88 -69 -211l-78 -263l-79 -289l-75 -288q-35 -139 -62.5 -261t-42.5 -210v2q-6 -28 -6 -59z" />
<glyph unicode="N" horiz-adv-x="1464" d="M-111 184q0 -45 17.5 -73.5t56.5 -53.5l-2 2q39 -31 86 -47t94 -30l23 -7l36 -7q15 -3 27 -3q39 0 57.5 20.5t32.5 61.5q16 70 40 160l52 190l58 210l61 220l42 -264q22 -129 50.5 -234.5t70.5 -181t106 -106.5l124 -45q65 -23 130 -23q100 0 120 99l-2 -2q27 109 61 234 l69 261l74 273l76 268l73 250l65 215q8 20 11.5 38.5t3.5 35.5q0 47 -33 81.5t-78 60t-92 42t-78 24.5l-33 8q-14 3 -24 3q-90 0 -123 -101q-53 -162 -109.5 -354t-109.5 -399l-17 162q-8 81 -14 153l-11 131q-5 59 -8 100q-6 84 -31.5 128.5t-95.5 72.5h3q-35 18 -78 36.5 t-88 34t-86 26t-70 10.5q-92 0 -131 -103q-35 -98 -74 -231l-80 -281l-80 -298l-72 -284q-34 -134 -58.5 -243t-34.5 -168l2 2q-9 -41 -9 -74z" />
<glyph unicode="O" d="M-2 588q0 -299 138 -447.5t411 -175.5h-2q45 -6 90 -6q135 0 245.5 66.5t197.5 175t151.5 249t106.5 288t62.5 290.5t20.5 258q0 70 -6 131.5t-22.5 116.5t-47 103.5t-81.5 91.5q-33 27 -82.5 53t-105.5 47.5t-116.5 34t-115.5 12.5q-74 0 -154 -26.5t-141 -71.5 q-129 -102 -231.5 -243.5t-173 -301.5t-107.5 -325.5t-37 -319.5zM483 498q0 98 24.5 218t65.5 230q33 88 78 182.5t93.5 171t93.5 126t77 49.5h3q16 -6 23 -45t7 -101q0 -113 -20.5 -231.5t-54 -229t-76.5 -209t-88 -171t-87 -115.5t-75 -43q-35 0 -49.5 48t-14.5 120z" />
<glyph unicode="P" horiz-adv-x="1470" d="M-49 164q0 -51 23.5 -84t61.5 -55.5t87 -38.5l98 -33q27 -6 53 -6q43 0 63.5 20.5t39.5 61.5q29 117 62 234l69 241q123 37 247 87t237.5 109.5t210.5 128t169 140.5q74 78 128 163t54 193q0 72 -19 136.5t-49 120.5t-66 104.5t-68 85.5q-53 57 -125 80.5t-158 23.5 q-88 0 -184.5 -20.5t-193.5 -53.5t-188 -72.5t-169 -78.5q-27 -14 -57.5 -109.5t-62.5 -235t-64 -302.5l-65 -317q-32 -153 -61.5 -272.5t-56.5 -170.5q-16 -49 -16 -80zM664 1001l66 198l63 179q68 29 131 41.5t110 12.5q37 0 54.5 -3.5t22.5 -8.5q4 -4 4 -7 q0 -2 -1.5 -6.5t-1.5 -5.5q0 -39 -29.5 -89t-86 -104.5t-140 -109t-192.5 -97.5z" />
<glyph unicode="Q" horiz-adv-x="1431" d="M-2 588q0 -313 158.5 -470t470.5 -157q49 0 97 7t91 24q6 -2 14 -15q59 -61 144 -61q57 0 108.5 19.5t102.5 50.5l-2 -2q68 33 67 90q0 14 -9 33.5t-21.5 39t-26.5 39l-25 35.5q-10 16 -18 30.5t-19 27.5q74 109 128.5 234.5t89 257.5t52 263t17.5 248q0 111 -19.5 207 t-75.5 173t-157.5 131t-265.5 81q-12 2 -26.5 3t-30.5 1q-74 0 -154 -26.5t-141 -71.5q-129 -102 -231.5 -243.5t-173 -301.5t-107.5 -326.5t-37 -320.5zM485 498q0 106 31 245l-2 -2q16 74 45 157t64.5 165t74.5 156.5t79 132t77 91.5t66 34q14 0 21 -45.5t7 -94.5 q0 -90 -15 -191.5t-42 -200.5t-60.5 -193.5t-72.5 -169.5q-47 -10 -92 -23.5t-79 -32t-54.5 -43t-20.5 -57.5q0 -25 9 -41t26 -43l4 -12h-4q-2 0 -15 4l3 -2q-27 12 -38.5 56t-11.5 110z" />
<glyph unicode="R" horiz-adv-x="1511" d="M-43 168q0 -55 20.5 -88t55.5 -52.5t80 -31.5l94 -27q27 -8 51 -8q41 0 62.5 20.5t33.5 61.5l64 219l67 225q47 -66 100.5 -129l108 -121.5t105.5 -107.5t92 -84q49 -35 94 -49t84 -14q27 0 49 5l47 11l-2 -2q16 2 46 13t59.5 28.5t51 43t21.5 56.5q0 45 -45 88v-2 q-43 43 -92 98l-99 113l-98 120l-89 116q217 106 373.5 226t228.5 261v-2q16 35 25 71t9 81q0 78 -18 145.5t-48 124.5t-66 105.5t-70 89.5q-57 66 -136 92t-165 26q-74 0 -155 -16t-164 -42t-165 -59.5t-157 -68.5q-41 -18 -86 -116.5t-89.5 -240t-86.5 -309.5l-77 -324 l-65 -287l-43 -196q-6 -34 -6 -63zM662 1016q4 14 8 26l8 25v-2l58 171q28 81 57 153q66 29 125 40t106 11q82 0 92 -27v-2q0 -31 -31.5 -80t-90 -104.5t-143.5 -110.5t-189 -100z" />
<glyph unicode="S" horiz-adv-x="1247" d="M-158 430q0 -47 86 -149q141 -176 293 -252t320 -76h26q133 2 230.5 38t165 88t109.5 111.5t67 110.5l-2 -2q33 63 32 121q0 86 -55 154.5t-137 133.5l-173 131q-91 67 -163 144q-23 23 -32 49.5t-9 52.5q0 55 27.5 113.5t66.5 111t83 91.5t79 57l2 2q2 0 4 2 q-6 -35 -19 -82l-27 -95l-23.5 -89t-10.5 -61q0 -172 256 -271q33 -12 64 -12q37 0 59.5 18.5t42.5 59.5q25 47 48.5 109.5t44 129t37 131t24.5 117.5v49q0 59 -16.5 122t-81.5 128q-39 39 -93.5 74t-115 62.5t-121 44t-111.5 16.5q-74 0 -134 -20.5t-95 -49.5l2 2 q-72 -41 -144.5 -103.5t-137 -134t-115 -148.5t-74.5 -146l2 2q-49 -115 -49 -219t41 -194.5t112 -158.5v2q57 -59 132 -115l143 -106l115 -87q48 -38 53 -62q-27 -20 -72 -21q-131 0 -346 156q-37 29 -86 42t-103 13q-37 0 -75.5 -7t-75.5 -23l-4 -3q-29 -16 -45.5 -40.5 t-20.5 -53.5v-8z" />
<glyph unicode="T" horiz-adv-x="1370" d="M152 1694q0 -27 8 -52v3l6 -19q12 -37 31.5 -82t45 -86t59.5 -68.5t77 -27.5q39 0 82 10t102 21l-85 -294q-44 -159 -83 -315.5t-70.5 -300t-50.5 -245.5v2q-10 -41 -10 -66q0 -78 52.5 -116t134.5 -66h-2q43 -16 86 -28.5t71 -12.5q37 0 61.5 18.5t34.5 65.5l-2 -2 l94 346l105 367l111 369l106 349q84 8 161 14.5t148 16.5q61 4 84 23.5t23 60.5q0 29 -8 61.5t-22.5 66.5t-32 64.5t-35.5 55.5q-25 29 -58 44t-98 15q-109 -4 -244 -14t-276.5 -24.5t-277.5 -33t-244 -38.5q-41 -8 -62.5 -25.5t-21.5 -56.5z" />
<glyph unicode="U" horiz-adv-x="1402" d="M-16 510q0 -143 39 -246q66 -162 202.5 -232.5t339.5 -70.5q78 0 144.5 16.5t132.5 51.5q111 70 203 211t170.5 340.5t149.5 451.5t140 543q6 18 8.5 33.5t2.5 29.5q0 35 -16.5 60.5t-61.5 54.5l-71 39q-38 20 -76 36.5t-73.5 28t-66.5 11.5q-45 0 -77 -22.5t-42 -80.5 l2 4l-64 -262q-38 -150 -83 -309.5t-95.5 -314t-100.5 -277.5t-100 -197.5t-95 -74.5q-20 0 -28.5 28.5t-8.5 75.5q0 90 29.5 222.5t75.5 278.5t98.5 290.5t99.5 261.5l-2 -2q18 45 18 84q0 53 -36.5 102t-90 87t-114 60.5t-109.5 22.5q-41 0 -66.5 -21.5t-46.5 -70.5 q-59 -145 -117.5 -308t-106.5 -327t-77.5 -320.5t-29.5 -287.5z" />
<glyph unicode="V" horiz-adv-x="1443" d="M174 1159q0 -229 9.5 -441t27.5 -401q4 -31 14.5 -66.5t29.5 -70.5t47 -66.5t69 -56.5t87 -47t92 -40.5t89 -30t78 -11.5q47 0 80.5 24.5t64.5 76.5l117 223l134 268l138 289l131 285l111 255q49 118 78 201l-2 -2q10 27 15 48.5t5 39.5q0 45 -32.5 89t-78.5 79 t-99.5 56.5t-92.5 21.5q-37 0 -64.5 -17.5t-47.5 -60.5l-250 -551l-265 -563q-4 221 -5 423t-3 362v145q-2 76 -39 124t-102 77h2q-51 20 -97 28.5t-106 8.5q-39 0 -62.5 -6.5t-35.5 -21.5t-17.5 -40t-7.5 -59q-12 -296 -12 -572z" />
<glyph unicode="W" horiz-adv-x="2025" d="M31 170q0 -63 30.5 -101t79.5 -60.5t110 -37.5l122 -28q27 -6 55 -6q37 0 66.5 18t58.5 65l61 116l80 149l91 167l98 173v-72q0 -78 2 -152.5t6 -134.5v-63q4 -61 28.5 -111.5t90.5 -75.5l58 -18l51 -16l53 -17q28 -8 67 -16l-2 2q23 -6 40 -8t34 -2q94 0 137 84l99 219 l119 259l129 277l132 276l126 253l112 211q27 53 26 108q0 53 -38.5 99.5t-90 80t-102.5 52t-78 18.5q-33 0 -58.5 -19.5t-51.5 -66.5l-76 -147l-110 -214l-129 -257l-134 -275q35 295 57.5 451.5t22.5 160.5q0 45 -16.5 70t-69.5 47h2q-23 12 -41 20.5t-38.5 14.5t-44.5 12 l-58 15q-33 8 -56 8q-43 0 -69.5 -17.5t-53.5 -58.5h3q-31 -43 -77 -125l-104 -184l-118 -219l-123 -232q23 145 47 281.5l41 240.5q10 47 16 85l10 63l-2 -2q12 39 13 82q0 57 -26 98t-68 67.5t-98 44t-118 29.5q-25 6 -51 7q-49 0 -73.5 -28t-36.5 -89 q-18 -106 -38 -237.5t-38.5 -274t-33.5 -288.5t-26.5 -285.5t-18.5 -264.5t-7 -221z" />
<glyph unicode="X" horiz-adv-x="1474" d="M-147 217q0 -47 33.5 -97t79.5 -91t91 -69t68 -28q33 0 64.5 22.5t61.5 57.5t60.5 78t65.5 84l104 133l113 139l91 -259q34 -93 63.5 -140t62.5 -61.5t88 -22.5q57 -6 119 -6q92 0 150.5 17.5t58.5 76.5q0 18 -5 31.5t-10 30.5v-2l-114 342l-127 399l287 332l239 278 q27 31 42 64t15 67q0 33 -25.5 84.5t-65.5 100.5t-90 83.5t-101 34.5q-37 0 -89.5 -43t-114.5 -112.5t-132 -157.5l-143 -178l-48 150q-23 73 -38 139q-18 45 -40 74.5t-54.5 47t-82 24.5t-122.5 7h-52q-92 0 -130 -19.5t-38 -78.5q0 -10 2.5 -26.5t6.5 -34.5v2 q16 -59 40 -138l51 -169l59 -191l67 -201l-151 -181l-138 -177l-123 -164l-102 -141v2q-43 -61 -47 -107v-6z" />
<glyph unicode="Y" horiz-adv-x="1339" d="M141 1786q0 -27 6 -51l41 -230q23 -125 51 -259l56 -270q29 -136 59 -261l-42 -163q-19 -79 -33 -151l2 2q-16 -68 -34 -132t-18 -113t26 -83t66.5 -58.5t90.5 -42.5l98 -33q37 -12 61 -13q41 0 59.5 20.5t33.5 61.5q31 133 67.5 268.5t83.5 276.5l193 280l186 277 q88 133 155.5 244.5t102.5 185.5q16 31 25.5 56.5t9.5 52.5q0 25 -25.5 66.5t-66.5 81.5t-91.5 68.5t-101.5 28.5q-31 0 -56.5 -14t-41.5 -53l-188 -303l-195 -303q-31 147 -62 278l-55 230q-10 31 -20.5 54t-25.5 39.5t-37.5 28t-57.5 19.5l2 -2q-31 8 -56.5 10t-50.5 2 q-113 0 -165 -18.5t-52 -77.5z" />
<glyph unicode="Z" horiz-adv-x="1165" d="M-143 248q0 -41 18.5 -73t38.5 -56l14 -15l68 -74q29 -32 56.5 -54.5t57 -34t72.5 -11.5q33 0 87.5 10.5t117.5 25.5l131 32q68 16 129 29l96 20l95 21q113 8 112 96q0 8 -1 17t-5 26l2 -4q-6 37 -17 83t-36 86t-62.5 67.5t-95.5 27.5h-18q-10 0 -21 -2h2l-103 -15 q-50 -7 -103 -20l402 505l396 482q57 66 58 131q0 33 -13 70l2 -2q-6 31 -18 75t-33 89q-23 53 -52.5 73.5t-88.5 20.5h-17q-98 -4 -210.5 -12.5t-225 -20.5t-220 -28.5t-196.5 -36.5q-39 -12 -58 -29.5t-19 -54.5q0 -27 8 -52v2q12 -37 32.5 -81.5t39.5 -79.5l14 -33 q33 -45 71.5 -63.5t81.5 -18.5q23 0 85.5 11.5t146.5 23.5l-235 -291l-224 -296l-193 -269l-143 -211q-26 -41 -26 -86z" />
<glyph unicode="[" horiz-adv-x="927" d="M-25 236q0 -45 11.5 -77t33.5 -63l39 -39q47 -51 93.5 -84.5t115.5 -33.5q37 0 84 7t95.5 16t94.5 20.5t79 17.5q106 2 106 86q0 20 -8 45v2q-14 43 -21.5 82t-29.5 82l2 -2q-43 86 -146 86h-18q-20 0 -42 -3t-40 -5q33 125 74 265l85 282l89 277l88 257q51 8 108.5 10 t105.5 11.5t78.5 30t30.5 63.5q0 20 -8 43v-6q-8 47 -18 86t-35 84l2 -7q-18 49 -52 77t-93 28h-11q-78 -2 -166 -6t-172 -17h2q-115 -12 -147 -110q-53 -147 -111 -335l-111 -382l-102 -380q-47 -185 -77 -333h2q-6 -27 -8.5 -44t-2.5 -31z" />
<glyph unicode="\" horiz-adv-x="1056" d="M176 1772q0 -4 2 -15v4q10 -94 31.5 -232t50.5 -299t63 -331l67 -327l65 -286q31 -130 53 -210q25 -66 51.5 -100.5t87.5 -45.5h-2q39 -6 92 -6q23 0 43.5 1t38.5 3h-2q57 6 82 27.5t25 62.5q0 16 -9 43l3 -2q-23 102 -49 242l-53 297l-55 323l-52 319q-25 155 -43.5 288 t-28.5 225q-6 33 -14.5 55.5t-21.5 38t-35.5 24.5t-57.5 19v2q-41 10 -79 12.5t-77 2.5h-53q-63 -2 -93 -34t-30 -87v-14z" />
<glyph unicode="]" horiz-adv-x="970" d="M-113 221q0 -18 11.5 -48t26 -59.5l28.5 -55.5l20 -35q27 -33 52.5 -51.5t72.5 -18.5q78 0 162 17.5t160 29.5q82 4 109.5 32.5t41.5 76.5l92 325l109 377l116 377q58 184 111 325q12 43 13 74q0 49 -41 105l2 -2q-23 35 -45.5 64.5t-46.5 53.5l2 -2q-29 35 -57.5 51.5 t-75.5 16.5h-21q-10 0 -18 -2h4q-104 -8 -196.5 -16.5t-164.5 -22.5q-59 -10 -81.5 -42t-22.5 -77q0 -43 18.5 -91t40.5 -93v2q20 -49 47 -68.5t80 -19.5q37 0 78 6l-84 -260l-86 -282l-83 -280q-40 -138 -71 -259l-99 -18q-52 -9 -98 -24.5t-76 -41t-30 -64.5z" />
<glyph unicode="^" horiz-adv-x="1359" d="M139 1155q0 -41 27 -80l-2 2q18 -33 40.5 -63.5t46 -55t47.5 -39t42 -14.5q27 0 72 39t98 97l113 127q59 69 114 126q14 -100 35 -185l41 -165q35 -92 127 -117h-2q51 -12 91 -15t77 -5h14q47 0 69.5 16.5t22.5 59.5q0 10 -1 17t-3 15l-28 151q-16 85 -31.5 176 t-29 184.5t-19.5 177.5q-4 43 -16.5 74.5t-36 59t-60.5 56.5t-90 66q-39 25 -76 24q-23 0 -48 -10t-54 -39h2q-78 -68 -157 -148l-152 -162l-137 -155q-62 -74 -103 -129q-33 -39 -33 -86z" />
<glyph unicode="_" horiz-adv-x="1345" d="M-106 -356q0 -70 106 -70h1413q41 0 67.5 11.5t43 29.5t27 40.5t18.5 45.5l12 31v-2q10 20 17.5 40.5t7.5 36.5q0 31 -21.5 49.5t-77.5 18.5h-1413q-61 0 -95 -18.5t-56 -65.5l2 2q-10 -23 -17.5 -42l-15.5 -38l-12 -35q-4 -12 -5 -19t-1 -15z" />
<glyph unicode="`" horiz-adv-x="1181" d="M453 2093l14 -39l113 -65q66 -37 142.5 -74t160.5 -71t164 -60q31 -10 59 -10q33 0 67.5 11t75.5 30l-51 49l6 12l15 30l18 36.5t20 33.5q-133 55 -266 123t-231 139q-33 27 -82 27q-53 0 -127 -33l4 2q-47 -16 -68.5 -52t-33.5 -89zM1257 1976l9 -4q39 -25 45 -63 q-2 51 -8.5 71.5t-16.5 20.5q-11 0 -29 -25z" />
<glyph unicode="a" horiz-adv-x="1490" d="M-150 172q0 -33 16.5 -58.5t42 -47t58.5 -40t66 -34.5l24 -12q39 -16 72 -17q37 0 67.5 37t61.5 93.5t60.5 123t62.5 123.5q102 27 236 48l274 42l4 -41q0 -133 6 -233q4 -82 27.5 -116t87.5 -54l-2 2q53 -23 102 -27t107 -4q76 0 100.5 24.5t24.5 90.5q6 197 14 415 t19.5 426.5t24.5 395t30 321.5v-2q2 10 2 21v22q0 53 -22.5 87t-86.5 57l-37 10q-72 25 -167 48t-236 23q-84 0 -132 -35.5t-83 -88.5q-92 -143 -202 -336l-219 -398l-209 -402q-99 -198 -169 -353q-14 -35 -19.5 -61.5t-5.5 -49.5zM649 836l143 253l134 230 q-8 -111 -15 -225l-12 -232q-63 -4 -125 -10t-125 -16z" />
<glyph unicode="b" horiz-adv-x="1441" d="M-43 307q0 -47 16.5 -76.5t44.5 -68.5l-2 2q47 -70 105.5 -112t118.5 -70q37 -27 67.5 -39.5t67.5 -12.5q49 0 123 25h-2q78 23 166 55.5t175 73.5t165.5 90t136.5 105h-2q82 70 124 141.5t42 169.5q0 82 -39 167t-103 138q47 31 87 61l79 62q86 74 146.5 170t60.5 207 q0 59 -14.5 113.5t-39 102.5t-55 90t-63.5 79q-55 59 -155.5 85.5t-217.5 26.5q-90 0 -189.5 -14t-195.5 -38.5t-187 -57.5t-165 -70q-23 -158 -61 -332l-78 -347l-81 -338q-40 -165 -65 -306q-4 -23 -7 -42.5t-3 -39.5zM430 399l40 129l40 136q113 37 190 36q53 0 82 -10 t33 -26q0 -31 -28.5 -66t-79 -69.5t-121 -68.5t-156.5 -61zM651 1110q6 20 17 45l40 126q19 60 40 116q80 35 147.5 51t116.5 16q70 0 69 -16q0 -27 -29.5 -68t-86 -88t-136.5 -95t-178 -87z" />
<glyph unicode="c" horiz-adv-x="1327" d="M-53 522q0 -80 11 -152.5t36 -131.5v4q12 -37 35.5 -74t53.5 -67.5t62.5 -52t63.5 -30.5h-2q59 -23 133 -47t166 -34h-2q10 -2 22 -3h29q197 0 338 106.5t225 278.5q16 35 28.5 67t12.5 60q0 41 -23.5 71t-76.5 46q-33 10 -62.5 15.5t-58.5 5.5q-133 0 -236 -107 q-141 -154 -204 -153h-9q-25 10 -35 50t-10 99q0 90 22.5 209t63.5 236q33 90 82.5 191t101.5 187t101 144.5t80 60.5q10 -8 14 -27.5t4 -41.5q0 -31 -3 -71t-3 -79q6 -57 22.5 -102t47.5 -79t78 -57.5t116 -37.5q14 -4 27 -5h23q53 0 70.5 19.5t29.5 54.5q2 4 6 8 q14 37 25.5 85.5t19.5 99.5t12.5 103t4.5 97q0 84 -25 154t-109 135q-33 27 -79 50.5t-97 42t-106 30.5t-107 18h2q-10 2 -22 3h-21q-123 0 -235.5 -68t-209.5 -179.5t-177 -255t-137.5 -297t-88 -304t-30.5 -275.5z" />
<glyph unicode="d" horiz-adv-x="1521" d="M-51 309q0 -59 19.5 -91t43.5 -64q59 -59 103.5 -95t103.5 -75h-2q72 -45 152 -45q29 0 55.5 5t48.5 15h-2q264 82 458.5 223.5t323.5 310.5t192.5 352t63.5 349q0 170 -61 303v-2q-47 106 -115.5 180t-150.5 118t-173 63.5t-186 19.5q-158 0 -303 -41t-250 -96l-20 -27 l-287 -1300l2 2q-10 -35 -13 -60t-3 -45zM449 438l145 499q74 241 156 476q45 14 92 14q59 0 100 -25.5t57 -62.5l-2 2q8 -20 12.5 -43.5t4.5 -56.5q0 -82 -31 -186.5t-98.5 -213t-174.5 -214t-261 -189.5z" />
<glyph unicode="e" horiz-adv-x="1191" d="M-76 297q0 -53 16.5 -90t45.5 -68v2q35 -41 64.5 -72.5t58 -55t62.5 -36t79 -12.5q39 0 96 15l-2 -3l267 59l270 58q59 12 81.5 30.5t22.5 65.5q0 53 -19.5 112.5t-43.5 109.5v-2q-18 49 -52 70.5t-90 21.5q-92 0 -175 -12.5t-161 -26.5q4 37 20.5 85t33.5 89 q72 16 145.5 29.5t151.5 29.5h-2l103 16q50 7 88 19t61.5 33.5t23.5 56.5q0 18 -8 49l2 -2l-21 85q-10 42 -34 89v-2q-23 51 -58 69.5t-94 18.5h-14q-90 -2 -178 -12l55 157l51 146q127 18 239.5 31.5t219.5 24.5q68 8 92.5 30.5t24.5 77.5q0 29 -9 55l2 -2q-6 35 -14 66 t-29 78v-2q-18 53 -54 79.5t-101 26.5h-11q-109 -4 -219 -18.5t-215.5 -32.5t-203 -39.5t-179.5 -42.5l-26 -29l-357 -1364q-6 -30 -6 -61z" />
<glyph unicode="f" horiz-adv-x="1177" d="M-96 176q0 -43 17.5 -72.5t66.5 -60.5q49 -23 115.5 -49.5t125.5 -26.5q43 0 74 20.5t39 67.5v-4l78 277q43 154 96 317q109 25 218 45l218 41q59 10 85 29.5t26 66.5q0 14 -6 45l2 -2q-8 37 -20.5 82t-34 84t-57.5 65.5t-91 26.5h-18q-43 0 -86 -3t-86 -7q29 86 51 163 t47 136q125 16 241.5 28.5t225.5 29.5q63 8 86.5 28.5t23.5 75.5q0 45 -14 98.5t-42 99.5t-67.5 76.5t-93.5 30.5h-14q-106 -4 -220 -14t-225.5 -24.5t-217 -34t-193.5 -44.5q-6 -100 -31.5 -236t-60.5 -285.5t-75 -304.5l-77 -290l-64 -242q-28 -108 -36 -165 q-6 -37 -6 -68z" />
<glyph unicode="g" horiz-adv-x="1370" d="M-61 551q0 -76 10 -143.5t33 -126.5v2q25 -92 88 -158t145 -108t173 -61t175 -19q104 0 202.5 45t186.5 130t165 206.5t140 275.5q12 33 20.5 58.5t8.5 52.5q0 29 -9 55t-28 55v-2l-48 79t-51 61.5t-60.5 39t-75.5 13.5q-78 0 -168 -18l-182 -36q-6 -2 -15 -2 q-6 0 -10 -2l6 2l-76 -15q-35 -7 -57 -22l4 9l4 8q45 111 98.5 212t105.5 179t99 125t80 47v2l2 -2q4 -4 5 -15.5t3 -27.5v-2q0 -2 1 -4t1 -4v-80q-2 -12 -3 -22.5t-1 -26.5q0 -129 64.5 -212t222.5 -106q6 0 14.5 -1t14.5 -1q53 0 74.5 21.5t39.5 70.5v4q8 31 16.5 74 t14.5 90t10 95.5t4 89.5v34q-6 90 -33.5 151.5t-92.5 121.5q-41 35 -92.5 63.5t-110 48t-118.5 30.5t-118 11q-59 0 -124.5 -14t-123.5 -55l2 2q-141 -98 -257.5 -248.5t-200.5 -326t-131 -358.5t-47 -345zM420 481q0 72 13 158t42 172q23 -119 77 -179.5t157 -68.5 q-29 -53 -58.5 -98t-59.5 -79t-56.5 -53.5t-51.5 -19.5q-31 0 -47 45t-16 123z" />
<glyph unicode="h" horiz-adv-x="1411" d="M-92 174q0 -47 23.5 -76.5t63.5 -51t90 -39t103 -40.5q20 -6 36 -8t28 -2q31 0 49 11.5t29.5 34t19.5 56t21 78.5q23 96 51.5 202.5t64.5 225.5l124 20l128 19l-48 -204q-22 -93 -36 -164v2q-10 -37 -10 -64q0 -45 16.5 -72.5t45 -46t65.5 -34t80 -35.5l73 -20 q34 -9 62 -9q43 0 67.5 19.5t28.5 70.5l-2 -6l110 397l123 418l124 397l112 338q12 37 13 66q0 33 -31 67.5t-76 65.5t-98 53.5t-96 34.5h2q-41 14 -74 14q-41 0 -67.5 -22.5t-43.5 -75.5q-53 -154 -109 -351l-116 -401l-39 -2h2l-94 -8l-98 -8l94 296l80 236q12 37 12 68 q0 35 -18.5 60.5t-61.5 54.5l2 -2q-31 23 -75 45t-89 40.5t-85 31t-58 12.5q-41 0 -64.5 -20.5t-42.5 -69.5q-43 -164 -90 -363l-98 -404l-103 -404q-52 -198 -106 -357q-14 -41 -14 -74z" />
<glyph unicode="i" horiz-adv-x="622" d="M-111 176q0 -47 24 -80t62.5 -56.5t85.5 -39.5l97 -33q18 -6 32.5 -8t24.5 -2q41 0 58.5 19.5t31.5 64.5l61 230l71 267l78 281l80 278l77 252q37 118 67 205q12 39 13 70q0 35 -17.5 60.5t-58.5 54.5l2 -2q-31 23 -70 44t-81 38.5t-79.5 29t-64.5 11.5 q-41 0 -65.5 -21.5t-45.5 -75.5q-29 -88 -63 -213l-72 -267l-75 -293l-70 -290q-33 -139 -57.5 -258.5t-36.5 -199.5q-4 -18 -6.5 -32t-2.5 -34z" />
<glyph unicode="j" horiz-adv-x="1296" d="M-57 459q0 -72 17 -146.5t60 -141.5t114 -120t177 -80q53 -16 98.5 -22t84.5 -6q170 0 302 108.5t237.5 317.5t193.5 516t168 704q4 16 5 27.5t1 28.5q0 39 -42 80.5t-102.5 76.5t-127 56.5t-117.5 21.5q-45 0 -74 -24.5t-41 -79.5l-59.5 -268.5t-75.5 -312.5l-84 -317 q-43 -157 -86 -279t-84 -198.5t-74 -76.5q-16 4 -19 25.5t-3 64.5q0 20 1 42.5t1 51.5v12q0 186 -230 295q-41 20 -69 21q-49 0 -82 -42t-52.5 -100.5t-28.5 -124t-9 -110.5z" />
<glyph unicode="k" horiz-adv-x="1384" d="M-119 184q0 -43 13.5 -73.5t41 -53t67.5 -39t93 -34.5l69 -21.5t58 -9.5q41 0 65.5 21.5t28.5 74.5l-2 -6l54 194l61 222l131 -217t106.5 -147.5t94.5 -84t92 -26.5q45 0 111.5 17t117.5 44l-2 -2q39 23 58.5 42t19.5 52q0 16 -33 74l-82 139l-106 177q-57 95 -104 190 l189 186l188 196q91 97 166 188t122 165q51 84 51 147q0 51 -25.5 104.5t-61.5 94.5t-74.5 67.5t-67.5 26.5q-45 0 -90 -57l2 2q-41 -49 -103 -116l-135 -143l-153 -160l-160 -165l-25 -22l62 192q29 88 57 160l-2 -2q10 23 14.5 39t4.5 31q0 33 -31 67.5t-78 65.5 t-104.5 54.5t-108.5 37.5h2q-20 6 -35.5 8t-29.5 2q-41 0 -69 -21.5t-48 -70.5l-67 -215l-79 -272l-80 -300l-76 -298q-36 -143 -62.5 -265t-39.5 -202v2q-6 -31 -6 -60z" />
<glyph unicode="l" horiz-adv-x="1079" d="M-111 285q0 -47 16.5 -82t45.5 -64l41 -41h-2q25 -27 45 -46l43 -40v2q23 -20 49.5 -34.5t73.5 -14.5q23 0 48 3t56 14h-2q123 31 259 57.5t265 56.5l2 2q59 16 82 32.5t23 53.5q0 45 -17.5 111.5t-50.5 120.5l2 -2q-25 49 -56.5 69.5t-82.5 20.5q-90 0 -165 -12 l-152 -25l90 298l94 300l94 282l88 244l-2 -2q10 23 14.5 38t4.5 32q0 37 -40 77t-97.5 74.5t-122 57t-113.5 22.5q-74 0 -115 -92l-75 -216l-79 -252l-79 -270l-73 -267q-34 -129 -60.5 -244t-42.5 -203l2 4q-6 -20 -8.5 -35.5t-2.5 -29.5z" />
<glyph unicode="m" horiz-adv-x="1947" d="M-117 172q0 -45 32 -85t81 -70.5t106.5 -48t108.5 -17.5q41 0 64.5 24.5t39.5 77.5l42 176l52 203l59 219l67 228q6 -150 17 -288t28 -255q10 -70 32.5 -110t56 -62.5t79 -34.5t100.5 -25q20 -6 49 -6q25 0 39 5.5t24.5 16.5t20.5 28.5l23 41.5l66 135l87 162l98 179 l103 182l-48 -182q-24 -90 -42 -171l-33 -149l-23 -115v2q-6 -29 -6 -61q0 -84 86 -135h-2q20 -14 53 -28.5t68 -26t67.5 -18.5t55.5 -7q51 0 70.5 23.5t33.5 64.5l53 201l70 256l82 285l84 289l79 265q38 125 69 218v-3q10 23 13 42.5t3 35.5q0 51 -47 90t-112.5 68 t-139.5 48.5t-125 31.5h2q-29 10 -53.5 14t-46.5 4q-43 0 -77 -15t-64.5 -49t-62.5 -85l-73 -123v2l-81 -131l-84 -142l-83 -146l-77 -140q-4 119 -9.5 198.5t-8.5 132t-5 81t-2 47.5q0 16 2 26q-4 45 -8 81t-18.5 63.5t-43 50t-79.5 43.5h2q-68 29 -155 56.5t-204 27.5 q-53 0 -86 -25.5t-57 -91.5q-31 -88 -69 -211l-78 -263l-79 -289l-75 -288q-35 -139 -62.5 -261t-42.5 -210v2q-6 -28 -6 -59z" />
<glyph unicode="n" horiz-adv-x="1464" d="M-111 184q0 -45 17.5 -73.5t56.5 -53.5l-2 2q39 -31 86 -47t94 -30l23 -7l36 -7q15 -3 27 -3q39 0 57.5 20.5t32.5 61.5q16 70 40 160l52 190l58 210l61 220l42 -264q22 -129 50.5 -234.5t70.5 -181t106 -106.5l124 -45q65 -23 130 -23q100 0 120 99l-2 -2q27 109 61 234 l69 261l74 273l76 268l73 250l65 215q8 20 11.5 38.5t3.5 35.5q0 47 -33 81.5t-78 60t-92 42t-78 24.5l-33 8q-14 3 -24 3q-90 0 -123 -101q-53 -162 -109.5 -354t-109.5 -399l-17 162q-8 81 -14 153l-11 131q-5 59 -8 100q-6 84 -31.5 128.5t-95.5 72.5h3q-35 18 -78 36.5 t-88 34t-86 26t-70 10.5q-92 0 -131 -103q-35 -98 -74 -231l-80 -281l-80 -298l-72 -284q-34 -134 -58.5 -243t-34.5 -168l2 2q-9 -41 -9 -74z" />
<glyph unicode="o" d="M-2 588q0 -299 138 -447.5t411 -175.5h-2q45 -6 90 -6q135 0 245.5 66.5t197.5 175t151.5 249t106.5 288t62.5 290.5t20.5 258q0 70 -6 131.5t-22.5 116.5t-47 103.5t-81.5 91.5q-33 27 -82.5 53t-105.5 47.5t-116.5 34t-115.5 12.5q-74 0 -154 -26.5t-141 -71.5 q-129 -102 -231.5 -243.5t-173 -301.5t-107.5 -325.5t-37 -319.5zM483 498q0 98 24.5 218t65.5 230q33 88 78 182.5t93.5 171t93.5 126t77 49.5h3q16 -6 23 -45t7 -101q0 -113 -20.5 -231.5t-54 -229t-76.5 -209t-88 -171t-87 -115.5t-75 -43q-35 0 -49.5 48t-14.5 120z" />
<glyph unicode="p" horiz-adv-x="1470" d="M-49 164q0 -51 23.5 -84t61.5 -55.5t87 -38.5l98 -33q27 -6 53 -6q43 0 63.5 20.5t39.5 61.5q29 117 62 234l69 241q123 37 247 87t237.5 109.5t210.5 128t169 140.5q74 78 128 163t54 193q0 72 -19 136.5t-49 120.5t-66 104.5t-68 85.5q-53 57 -125 80.5t-158 23.5 q-88 0 -184.5 -20.5t-193.5 -53.5t-188 -72.5t-169 -78.5q-27 -14 -57.5 -109.5t-62.5 -235t-64 -302.5l-65 -317q-32 -153 -61.5 -272.5t-56.5 -170.5q-16 -49 -16 -80zM664 1001l66 198l63 179q68 29 131 41.5t110 12.5q37 0 54.5 -3.5t22.5 -8.5q4 -4 4 -7 q0 -2 -1.5 -6.5t-1.5 -5.5q0 -39 -29.5 -89t-86 -104.5t-140 -109t-192.5 -97.5z" />
<glyph unicode="q" horiz-adv-x="1431" d="M-2 588q0 -313 158.5 -470t470.5 -157q49 0 97 7t91 24q6 -2 14 -15q59 -61 144 -61q57 0 108.5 19.5t102.5 50.5l-2 -2q68 33 67 90q0 14 -9 33.5t-21.5 39t-26.5 39l-25 35.5q-10 16 -18 30.5t-19 27.5q74 109 128.5 234.5t89 257.5t52 263t17.5 248q0 111 -19.5 207 t-75.5 173t-157.5 131t-265.5 81q-12 2 -26.5 3t-30.5 1q-74 0 -154 -26.5t-141 -71.5q-129 -102 -231.5 -243.5t-173 -301.5t-107.5 -326.5t-37 -320.5zM485 498q0 106 31 245l-2 -2q16 74 45 157t64.5 165t74.5 156.5t79 132t77 91.5t66 34q14 0 21 -45.5t7 -94.5 q0 -90 -15 -191.5t-42 -200.5t-60.5 -193.5t-72.5 -169.5q-47 -10 -92 -23.5t-79 -32t-54.5 -43t-20.5 -57.5q0 -25 9 -41t26 -43l4 -12h-4q-2 0 -15 4l3 -2q-27 12 -38.5 56t-11.5 110z" />
<glyph unicode="r" horiz-adv-x="1511" d="M-43 168q0 -55 20.5 -88t55.5 -52.5t80 -31.5l94 -27q27 -8 51 -8q41 0 62.5 20.5t33.5 61.5l64 219l67 225q47 -66 100.5 -129l108 -121.5t105.5 -107.5t92 -84q49 -35 94 -49t84 -14q27 0 49 5l47 11l-2 -2q16 2 46 13t59.5 28.5t51 43t21.5 56.5q0 45 -45 88v-2 q-43 43 -92 98l-99 113l-98 120l-89 116q217 106 373.5 226t228.5 261v-2q16 35 25 71t9 81q0 78 -18 145.5t-48 124.5t-66 105.5t-70 89.5q-57 66 -136 92t-165 26q-74 0 -155 -16t-164 -42t-165 -59.5t-157 -68.5q-41 -18 -86 -116.5t-89.5 -240t-86.5 -309.5l-77 -324 l-65 -287l-43 -196q-6 -34 -6 -63zM662 1016q4 14 8 26l8 25v-2l58 171q28 81 57 153q66 29 125 40t106 11q82 0 92 -27v-2q0 -31 -31.5 -80t-90 -104.5t-143.5 -110.5t-189 -100z" />
<glyph unicode="s" horiz-adv-x="1247" d="M-156 436q0 -57 86 -151q145 -178 297 -255t320 -77h26q133 2 230.5 39t166 89t110.5 112.5t67 113.5v-2q31 61 31 121q0 88 -56.5 158.5t-137.5 136t-173 132.5t-166 146v-2q-39 45 -39 109q0 57 26.5 117.5t66.5 113t85 93t82 59.5l2 2q2 0 4 2q-4 -35 -17 -85l-28 -99 l-25 -91q-11 -42 -11 -63q0 -176 256 -272l-3 2q39 -16 68 -17q35 0 57.5 19.5t44.5 54.5q25 47 49.5 112.5t46 134t37 136.5t23.5 117v51q0 57 -16.5 122.5t-79.5 129.5q-41 41 -98.5 78t-120 63.5t-123 42t-109.5 15.5q-72 0 -132 -19.5t-97 -48.5l4 2 q-72 -41 -146.5 -104.5t-139 -136t-115 -151.5t-74.5 -151l2 2q-51 -121 -51 -223q0 -98 33.5 -177t90 -143.5t128.5 -119.5l145 -111q80 -59 139.5 -108t63.5 -74q-27 -20 -74 -21q-63 0 -151.5 40t-196.5 120q-37 29 -84 42t-100 13q-82 0 -154 -32l-4 -2 q-61 -35 -66 -101v-4z" />
<glyph unicode="t" horiz-adv-x="1370" d="M152 1694q0 -27 8 -52v3l6 -19q12 -37 31.5 -82t45 -86t59.5 -68.5t77 -27.5q39 0 82 10t102 21l-85 -294q-44 -159 -83 -315.5t-70.5 -300t-50.5 -245.5v2q-10 -41 -10 -66q0 -78 52.5 -116t134.5 -66h-2q43 -16 86 -28.5t71 -12.5q37 0 61.5 18.5t34.5 65.5l-2 -2 l94 346l105 367l111 369l106 349q84 8 161 14.5t148 16.5q61 4 84 23.5t23 60.5q0 29 -8 61.5t-22.5 66.5t-32 64.5t-35.5 55.5q-25 29 -58 44t-98 15q-109 -4 -244 -14t-276.5 -24.5t-277.5 -33t-244 -38.5q-41 -8 -62.5 -25.5t-21.5 -56.5z" />
<glyph unicode="u" horiz-adv-x="1402" d="M-16 510q0 -143 39 -246q66 -162 202.5 -232.5t339.5 -70.5q78 0 144.5 16.5t132.5 51.5q111 70 203 211t170.5 340.5t149.5 451.5t140 543q6 18 8.5 33.5t2.5 29.5q0 35 -16.5 60.5t-61.5 54.5l-71 39q-38 20 -76 36.5t-73.5 28t-66.5 11.5q-45 0 -77 -22.5t-42 -80.5 l2 4l-64 -262q-38 -150 -83 -309.5t-95.5 -314t-100.5 -277.5t-100 -197.5t-95 -74.5q-20 0 -28.5 28.5t-8.5 75.5q0 90 29.5 222.5t75.5 278.5t98.5 290.5t99.5 261.5l-2 -2q18 45 18 84q0 53 -36.5 102t-90 87t-114 60.5t-109.5 22.5q-41 0 -66.5 -21.5t-46.5 -70.5 q-59 -145 -117.5 -308t-106.5 -327t-77.5 -320.5t-29.5 -287.5z" />
<glyph unicode="v" horiz-adv-x="1443" d="M174 1159q0 -229 9.5 -441t27.5 -401q4 -31 14.5 -66.5t29.5 -70.5t47 -66.5t69 -56.5t87 -47t92 -40.5t89 -30t78 -11.5q47 0 80.5 24.5t64.5 76.5l117 223l134 268l138 289l131 285l111 255q49 118 78 201l-2 -2q10 27 15 48.5t5 39.5q0 45 -32.5 89t-78.5 79 t-99.5 56.5t-92.5 21.5q-37 0 -64.5 -17.5t-47.5 -60.5l-250 -551l-265 -563q-4 221 -5 423t-3 362v145q-2 76 -39 124t-102 77h2q-51 20 -97 28.5t-106 8.5q-39 0 -62.5 -6.5t-35.5 -21.5t-17.5 -40t-7.5 -59q-12 -296 -12 -572z" />
<glyph unicode="w" horiz-adv-x="2025" d="M31 170q0 -63 30.5 -101t79.5 -60.5t110 -37.5l122 -28q27 -6 55 -6q37 0 66.5 18t58.5 65l61 116l80 149l91 167l98 173v-72q0 -78 2 -152.5t6 -134.5v-63q4 -61 28.5 -111.5t90.5 -75.5l58 -18l51 -16l53 -17q28 -8 67 -16l-2 2q23 -6 40 -8t34 -2q94 0 137 84l99 219 l119 259l129 277l132 276l126 253l112 211q27 53 26 108q0 53 -38.5 99.5t-90 80t-102.5 52t-78 18.5q-33 0 -58.5 -19.5t-51.5 -66.5l-76 -147l-110 -214l-129 -257l-134 -275q35 295 57.5 451.5t22.5 160.5q0 45 -16.5 70t-69.5 47h2q-23 12 -41 20.5t-38.5 14.5t-44.5 12 l-58 15q-33 8 -56 8q-43 0 -69.5 -17.5t-53.5 -58.5h3q-31 -43 -77 -125l-104 -184l-118 -219l-123 -232q23 145 47 281.5l41 240.5q10 47 16 85l10 63l-2 -2q12 39 13 82q0 57 -26 98t-68 67.5t-98 44t-118 29.5q-25 6 -51 7q-49 0 -73.5 -28t-36.5 -89 q-18 -106 -38 -237.5t-38.5 -274t-33.5 -288.5t-26.5 -285.5t-18.5 -264.5t-7 -221z" />
<glyph unicode="x" horiz-adv-x="1474" d="M-147 217q0 -47 33.5 -97t79.5 -91t91 -69t68 -28q33 0 64.5 22.5t61.5 57.5t60.5 78t65.5 84l104 133l113 139l91 -259q34 -93 63.5 -140t62.5 -61.5t88 -22.5q57 -6 119 -6q92 0 150.5 17.5t58.5 76.5q0 18 -5 31.5t-10 30.5v-2l-114 342l-127 399l287 332l239 278 q27 31 42 64t15 67q0 33 -25.5 84.5t-65.5 100.5t-90 83.5t-101 34.5q-37 0 -89.5 -43t-114.5 -112.5t-132 -157.5l-143 -178l-48 150q-23 73 -38 139q-18 45 -40 74.5t-54.5 47t-82 24.5t-122.5 7h-52q-92 0 -130 -19.5t-38 -78.5q0 -10 2.5 -26.5t6.5 -34.5v2 q16 -59 40 -138l51 -169l59 -191l67 -201l-151 -181l-138 -177l-123 -164l-102 -141v2q-43 -61 -47 -107v-6z" />
<glyph unicode="y" horiz-adv-x="1339" d="M141 1786q0 -27 6 -51l41 -230q23 -125 51 -259l56 -270q29 -136 59 -261l-42 -163q-19 -79 -33 -151l2 2q-16 -68 -34 -132t-18 -113t26 -83t66.5 -58.5t90.5 -42.5l98 -33q37 -12 61 -13q41 0 59.5 20.5t33.5 61.5q31 133 67.5 268.5t83.5 276.5l193 280l186 277 q88 133 155.5 244.5t102.5 185.5q16 31 25.5 56.5t9.5 52.5q0 25 -25.5 66.5t-66.5 81.5t-91.5 68.5t-101.5 28.5q-31 0 -56.5 -14t-41.5 -53l-188 -303l-195 -303q-31 147 -62 278l-55 230q-10 31 -20.5 54t-25.5 39.5t-37.5 28t-57.5 19.5l2 -2q-31 8 -56.5 10t-50.5 2 q-113 0 -165 -18.5t-52 -77.5z" />
<glyph unicode="z" horiz-adv-x="1165" d="M-143 248q0 -41 18.5 -73t38.5 -56l14 -15l68 -74q29 -32 56.5 -54.5t57 -34t72.5 -11.5q33 0 87.5 10.5t117.5 25.5l131 32q68 16 129 29l96 20l95 21q113 8 112 96q0 8 -1 17t-5 26l2 -4q-6 37 -17 83t-36 86t-62.5 67.5t-95.5 27.5h-18q-10 0 -21 -2h2l-103 -15 q-50 -7 -103 -20l402 505l396 482q57 66 58 131q0 33 -13 70l2 -2q-6 31 -18 75t-33 89q-23 53 -52.5 73.5t-88.5 20.5h-17q-98 -4 -210.5 -12.5t-225 -20.5t-220 -28.5t-196.5 -36.5q-39 -12 -58 -29.5t-19 -54.5q0 -27 8 -52v2q12 -37 32.5 -81.5t39.5 -79.5l14 -33 q33 -45 71.5 -63.5t81.5 -18.5q23 0 85.5 11.5t146.5 23.5l-235 -291l-224 -296l-193 -269l-143 -211q-26 -41 -26 -86z" />
<glyph unicode="{" horiz-adv-x="1036" d="M33 991q0 -31 13 -76t33.5 -91t46.5 -85t50 -53l-34 -124l-33 -121q-16 -58 -26.5 -111.5t-10.5 -98.5t15 -76.5t44 -62.5l35 -35l53 -53q23 -23 45.5 -38t48 -22t60.5 -7q12 0 29.5 2t41.5 8v-2q72 16 147 29l140 26q109 2 109 88q0 18 -9 43l3 -2q-8 43 -20.5 82 t-37.5 86l2 -2q-43 86 -141 86h-19q-20 0 -41.5 -3t-39.5 -5l72 265l83 282l88 277l88 257q53 4 108 10l107 13q59 8 85 24.5t26 63.5q0 18 -8 45l2 -4q-8 47 -17.5 86t-33.5 84l2 -7q-18 49 -57.5 77t-92.5 28h-12q-74 -2 -163 -6t-171 -17h2q-68 -6 -100.5 -33.5 t-50.5 -76.5q-45 -129 -94 -286l-97 -329q-53 0 -104.5 -12t-85.5 -22h2q-82 -21 -82 -101z" />
<glyph unicode="|" horiz-adv-x="1077" d="M74 39q0 -41 17.5 -69.5t49 -51t75.5 -42t97 -38.5q27 -6 52 -6q43 0 61 21.5t33 68.5q23 100 62 248l87 317l100 352l101 348l92 307l72 228l-2 -2q8 23 13 41.5t5 32.5q0 35 -18.5 59.5t-59.5 53.5l2 -2q-31 25 -67.5 43t-66 29.5t-46 16.5t-10.5 3q-20 8 -36.5 13 t-31.5 5q-72 0 -110 -98q-29 -90 -70 -238l-87 -321l-94 -363l-90 -359l-75 -311q-33 -140 -49 -221l2 2q-4 -18 -6 -35.5t-2 -31.5z" />
<glyph unicode="}" horiz-adv-x="1153" d="M-111 231q0 -23 10.5 -52t25 -60t28.5 -57.5t24 -43.5q25 -31 51.5 -48t71.5 -17q72 0 158 17.5t158 29.5q82 2 112.5 31.5t42.5 77.5q29 117 69 256l85 297q51 10 104.5 13t96.5 12t70.5 29.5t27.5 65.5q0 25 -10 54.5l-19 58.5l-15 53q-7 25 -17 53l2 -2 q-31 78 -105 101l73 217l66 196q8 23 10.5 40.5t2.5 33.5q0 27 -8.5 51.5t-30.5 53.5l2 -2q-43 63 -92 116q-29 35 -57.5 51.5t-73.5 16.5h-21q-10 0 -20 -2h4q-88 -6 -173 -10t-151.5 -18.5t-107.5 -42t-41 -79.5q0 -4 2 -14t6 -27l14 -39v3q14 -51 28.5 -89t33 -63t45 -37 t65.5 -12q37 0 78 6l-83 -260l-87 -282l-83 -280q-40 -138 -71 -259l-113 -20q-54 -9 -95 -24.5t-67 -38t-26 -55.5z" />
<glyph unicode="~" horiz-adv-x="1544" d="M86 1180q0 -109 168 -109q57 0 101 14.5t94 47.5l67 42q39 24 68 23q27 0 66.5 -5t79.5 -14.5t75 -21.5t53 -24q47 -35 125 -51.5t180 -16.5q43 0 98.5 16.5t114 43t113.5 60.5t100 70.5t75 73.5t34 68v6q0 31 -20.5 54.5t-55.5 39.5l2 -2q-55 27 -121 27q-82 0 -151 -49 l-11 -9q-10 -10 -28 -24l-38 -30q-19 -15 -36.5 -26.5t-26.5 -13.5q-39 4 -76.5 15.5t-74.5 26.5l-75 31q-38 15 -75 27h2q-129 43 -247 43q-53 0 -134 -23.5t-162 -58t-148.5 -74.5t-92.5 -73q-41 -53 -43 -92v-12z" />
<glyph unicode="&#xa1;" horiz-adv-x="806" d="M-78 158q0 -37 18.5 -67t55.5 -58q47 -35 109.5 -63.5t119.5 -43.5h-2q39 -12 66 -12q41 0 66.5 22.5t43.5 75.5l87 272l98 319q49 165 92 326t74 288q10 47 10 71q0 41 -24.5 74t-63.5 58.5t-87 43t-93 25.5l2 -2q-16 6 -29.5 8t-24.5 2q-37 0 -59.5 -20.5t-34.5 -71.5 v2q-37 -127 -85 -272l-101 -298l-110 -308l-111 -298v2q-17 -40 -17 -75zM389 1712q0 -37 14.5 -79t45 -78.5t80 -60.5t120.5 -24q51 0 95 20.5t76 53.5t52.5 76t26.5 88q2 10 3 19.5t1 25.5q0 113 -68.5 175.5t-166.5 62.5h-4q-82 0 -135.5 -38t-84 -86t-43 -94.5 t-12.5 -60.5z" />
<glyph unicode="&#xa2;" horiz-adv-x="1132" d="M102 647q0 -229 131 -346q-12 -55 -12 -127q0 -43 11.5 -92t34 -91t57 -68.5t82.5 -26.5q33 0 52 26.5t32.5 69.5t24.5 97t30 110h6q147 0 252.5 81.5t169.5 211.5q14 27 22.5 51t8.5 47q0 35 -18.5 58.5t-63.5 39.5h-2q-41 14 -86 14q-53 0 -96.5 -20t-80.5 -61 q-100 -111 -141 -111q-33 0 -33 102q0 66 16.5 153t47.5 171q23 63 56.5 136t69.5 136.5t69.5 106.5t56.5 47q4 -12 4 -39v-25q0 -10 -2 -26v-21v-20q0 -10 2 -21v-2q4 -41 17.5 -81t41 -70.5t70.5 -49t104 -18.5q41 0 66.5 36t40 90t19.5 117.5t7 117.5q0 66 -17 116 t-77 99l-14 6q10 29 19.5 64.5l17.5 64.5v-2q8 23 9 43t1 41q0 72 -30.5 123t-84.5 90v-2q-18 12 -36.5 20t-36.5 8q-33 0 -58.5 -26.5t-48 -73.5t-44.5 -111l-46 -135q-86 -4 -165 -56t-147.5 -136t-126 -191.5t-97.5 -221.5t-62.5 -223.5t-22.5 -199.5z" />
<glyph unicode="&#xa3;" horiz-adv-x="1353" d="M-29 827q0 -31 26 -91t62 -113h-2q23 -35 50.5 -51.5t68.5 -16.5h29q-10 -57 -23 -111l-22 -96v2q-6 -20 -8 -35.5t-2 -29.5q0 -47 16 -82t45 -64l43 -41h-2q25 -27 45 -46l43 -40v2q23 -20 49.5 -34.5t75.5 -14.5q23 0 48.5 3t57.5 14h-2q127 31 264 58l267 56 q59 16 82.5 32.5t23.5 55.5q0 45 -18.5 111.5t-48.5 120.5l2 -2q-25 49 -56.5 69.5t-85.5 20.5q-92 0 -170 -12l-153 -25l26 79q12 38 23 79q78 6 155.5 11t159.5 9q53 2 78 17.5t25 60.5q0 18 -6 43v-2q-10 35 -22.5 71.5t-37.5 75.5l2 -6q-37 90 -147 90h-90l26 86 q66 0 131.5 -3t133.5 -3q47 0 66.5 18.5t19.5 61.5v19q0 8 -2 14v-2q-6 35 -16 62l-21 63v-2q-33 125 -189 125l31 79l27 78l-2 -2q10 23 14 38t4 32q0 39 -42 80t-101.5 74.5t-124 55t-109.5 21.5t-79 -42t-60.5 -107.5t-49.5 -144.5l-48 -154q-63 -4 -134 -5t-129.5 -10.5 t-96.5 -34t-38 -75.5q0 -39 21.5 -92.5t50.5 -104.5h-2q23 -45 50.5 -61.5t74.5 -16.5h20q10 0 21 2q8 2 14 3q8 0 19 2h14q-8 -23 -13.5 -44.5t-13.5 -43.5q-53 -6 -112.5 -10.5t-109.5 -16.5t-83 -37t-33 -70z" />
<glyph unicode="&#xa5;" horiz-adv-x="1349" d="M-41 446q0 -14 9 -41.5t24 -57.5l28 -58q14 -29 27 -45q23 -35 50.5 -52.5t70.5 -17.5q14 0 30.5 4t32.5 4v-24q0 -49 26 -83t65.5 -58.5t91.5 -42.5l100 -33q37 -12 61 -13q39 0 63 30t38 77t24.5 102.5t24.5 108.5q78 4 157 9t158 9q53 4 79 18.5t26 59.5q0 20 -8 43 v-2q-8 35 -19.5 70.5t-36.5 76.5l2 -2q-41 88 -151 88h-68l58 84h84q31 0 63.5 -2t65.5 -2q47 0 67.5 19.5t20.5 62.5q0 18 -5.5 48t-15.5 63t-26.5 64.5t-40.5 56.5l144 215q67 102 115 186t75.5 146.5t27.5 93.5q0 25 -25.5 66.5t-66.5 81.5t-92 68.5t-103 28.5 q-31 0 -56.5 -14t-41.5 -53l-189 -303l-198 -303l-61 278l-56 230q-10 31 -21.5 54t-26.5 39.5t-37.5 28t-55.5 19.5l2 -2q-31 8 -56.5 10t-50.5 2q-113 0 -167 -18.5t-54 -77.5q0 -27 6 -51v2q25 -141 61 -319.5t77 -362.5q-16 -2 -30.5 -3t-29.5 -3l-71 -7 q-43 -6 -76 -28.5t-33 -73.5q0 -10 1 -20.5t5 -20.5v4q23 -104 68 -171.5t127 -67.5q6 0 12 1t16 1h7l65 6l-9 -43q-5 -25 -13 -43q-55 -6 -119 -11.5t-119 -17.5t-91 -38t-36 -73z" />
<glyph unicode="&#xa6;" horiz-adv-x="862" d="M68 51q0 -41 16 -69.5t47 -51t76 -41t102 -39.5q25 -6 49 -6q47 0 62.5 20.5t32.5 67.5l49 141l35 103l26 84l27 86l33 107l45 145l-2 -4q18 45 18 76q0 35 -17.5 59.5t-58.5 52.5l2 -2q-41 33 -74.5 47.5t-68.5 26.5q-33 8 -49.5 15.5t-26.5 12.5t-17 7t-22 2 q-74 0 -110 -100l-54 -171l-33 -117q-13 -48 -22 -85l-16 -77l-18 -92l-23 -132q-4 -16 -6 -31t-2 -35zM365 1178q0 -41 16 -69t47 -50.5t75 -42t101 -41.5q25 -6 51 -6q43 0 60.5 21.5t34.5 68.5q37 100 58 164l39 113l33 100l40 123v-3q10 35 23 76l30 90l-2 -4 q8 23 13 41.5t5 34.5q0 35 -18.5 59.5t-59.5 53.5l2 -2q-33 27 -68.5 45t-64 29.5t-46 15.5t-11.5 2q-20 8 -36.5 13t-29.5 5q-37 0 -61.5 -22.5t-40.5 -57t-27.5 -75.5t-23.5 -78q-31 -98 -47.5 -156.5t-28.5 -110l-25 -110.5l-32 -164q-6 -30 -6 -63z" />
<glyph unicode="&#xa7;" horiz-adv-x="1904" d="M-100 379q0 -51 84 -152q147 -178 301.5 -253.5t326.5 -75.5h21q109 2 192.5 25.5t148 59t110.5 81t79 90.5q16 -2 35 -2h41h35q133 2 231.5 37.5t167 87t112.5 112t68 111.5l-2 -2q18 33 25.5 63.5t7.5 59.5q0 55 -26.5 105t-70.5 96t-100 90l-116 88l-118 90 q-58 45 -105 96v-2q-41 43 -41 106q0 55 27.5 113.5t67.5 111t85 92.5t80 58l2 2q2 0 4 2q-6 -35 -20 -83l-26 -96l-23.5 -89t-10.5 -62q0 -172 258 -270q31 -14 66 -14q33 0 64.5 33.5t60 89t53 124t43 138t29 134t10.5 109.5q0 57 -17.5 120t-83.5 122q-39 37 -94 72 t-115.5 62.5t-123 45t-113.5 17.5q-76 0 -137.5 -21.5t-98.5 -48.5l4 4q-68 -37 -135 -93t-129 -122l-2 2q-41 14 -76.5 18.5t-66.5 4.5q-74 0 -134.5 -19.5t-97.5 -46.5l5 2q-74 -41 -149 -104.5t-140.5 -136t-115.5 -150.5t-75 -147l2 2q-51 -115 -51 -222q0 -104 42 -194 t114 -156v2q57 -57 133 -114l144 -109l118 -91q49 -40 53 -63q-14 -10 -31.5 -13t-37.5 -3q-137 0 -355 156q-35 27 -84 42t-102 15q-80 0 -156 -35h-2q-35 -16 -50 -42.5t-19 -55.5v-4zM616 1165q0 57 15.5 98.5t41 71t56.5 49t62 35.5l-4.5 -75.5t-2.5 -79.5 q0 -135 74 -244t193 -176l-4 2q55 -45 112 -87l105 -78q47 -36 77.5 -63.5t34.5 -42.5q-33 -20 -71 -20q-37 0 -75 10t-81 33t-95.5 58.5t-117.5 88.5q-61 43 -119.5 88.5t-107.5 98.5t-71 113.5t-22 119.5z" />
<glyph unicode="&#xa8;" horiz-adv-x="1265" d="M377 1804q0 -70 51 -111.5t127 -41.5h8q63 0 105.5 24.5t66 55t33.5 59.5t10 37v12q0 25 -11 51.5t-35.5 49t-62.5 37t-89 14.5q-80 0 -135.5 -47.5t-65.5 -108.5v2q-2 -10 -2 -33zM901 1802q0 -72 52.5 -112.5t127.5 -40.5h9q53 0 91 18.5t61.5 44t36.5 51t17 37.5 q2 6 3 11.5t4 13.5v12q0 25 -11.5 51.5t-35 50t-61.5 38t-91 14.5q-82 0 -135.5 -48.5t-63.5 -107.5q-2 -8 -3 -15.5t-1 -17.5z" />
<glyph unicode="&#xa9;" horiz-adv-x="2652" d="M76 627q0 -94 19.5 -186.5t61.5 -173.5t109.5 -149.5t165.5 -113.5q139 -66 305 -96.5t348 -30.5q156 0 319 23.5t321.5 68.5t308 113t278.5 156t233.5 197.5t172.5 236.5q63 119 95 257t32 267q0 135 -37 258t-121 209q-72 111 -191.5 205t-260 162.5t-286 107.5 t-266.5 39q-186 0 -376.5 -65.5t-369.5 -178t-336 -264t-273.5 -323.5t-184 -356.5t-67.5 -362.5zM465 616q0 123 54 263.5t147.5 278.5t215.5 264t257 223.5t275 155t267 57.5q94 0 189.5 -33t182.5 -89.5t162 -132t131 -162.5t88 -179.5t32 -180.5q0 -53 -11.5 -103 t-39.5 -97l4 2q-51 -74 -110.5 -150t-129.5 -144.5t-147.5 -129t-165.5 -103.5q-84 -41 -161 -74.5t-153.5 -57t-155.5 -37t-165 -13.5q-100 0 -213 18.5t-248 59.5q-162 47 -233.5 142t-71.5 222zM872 692q0 -147 50.5 -236t136.5 -134q25 -12 57.5 -24.5t69.5 -23 t77 -16.5t76 -6q141 0 250 71.5t183 219.5l-3 -2q35 57 35 100q0 33 -19.5 57.5t-66.5 34.5h4q-23 10 -47 13.5t-47 3.5q-106 0 -182 -80q-106 -111 -148 -111q-31 0 -30 103q0 66 17.5 150.5t47.5 170.5q25 63 59.5 135t71.5 133.5t71 104.5t56 49q6 -6 6 -43v-23 q0 -10 -2 -24v4q-2 -8 -2 -19v-16v-31q12 -90 56.5 -140t150.5 -73l-2 2q16 -4 26.5 -5t18.5 -1q41 0 55.5 16.5t28.5 43.5v-2q12 25 21.5 62.5t15.5 78.5t9 82t3 76q0 63 -17 114.5t-83 102.5q-29 20 -68 39.5t-83 35t-90 25.5t-87 10q-94 0 -181 -50t-162 -133 t-136 -190.5t-105 -221t-68 -226.5t-24 -207zM1591 1405h6q2 -2 5 -2z" />
<glyph unicode="&#xaa;" horiz-adv-x="823" d="M-4 1176q0 -27 11 -52.5t28.5 -50t38.5 -46.5l37 -40l-2 4q20 -23 41.5 -32t44.5 -9q51 0 96 10.5t98 16.5q-29 -96 -35 -148l2 5q-8 -27 -8 -48q0 -39 27.5 -66.5t63.5 -45t69 -25.5t45 -8q35 0 48 14.5t24 49.5q16 66 39 141l49 162q41 2 72.5 4t52 8t31 20.5 t10.5 42.5v11q0 8 -5 16v-2q-4 10 -5 19.5t-3 19.5q-6 35 -25.5 69.5t-47.5 49.5l60 183l54 150l-2 -2l8 24q4 11 5 24q0 47 -48 81l-72 40q-40 22 -78 38.5t-68.5 27.5t-45.5 11q-25 0 -68.5 -30.5t-98 -80t-113.5 -112.5l-116 -129l-106 -127q-49 -61 -79 -109l2 2 q-14 -20 -22.5 -39t-8.5 -42zM360 1255l168 175l-24 -79l-25 -77l-4 -10q-29 -4 -57.5 -5.5t-57.5 -3.5z" />
<glyph unicode="&#xab;" horiz-adv-x="1964" d="M49 838q0 -41 19.5 -60.5t56.5 -38.5l169 -79l177 -76l169 -68t146 -51h-2q14 -6 28.5 -8t27.5 -2q37 0 58.5 17t32.5 45t15 64.5t4 75.5q0 86 -24.5 119t-87.5 51h2l-95 34l-94 36l163 50q83 26 151.5 53.5t111.5 57t43 64.5q0 29 -22 58q-8 4 -11 12l-52 59 q-28 31 -55.5 55.5t-55 40t-54.5 15.5q-33 0 -73 -21h4q-121 -49 -250 -91t-297 -91q-43 -12 -72.5 -35.5t-51 -57.5t-38 -78t-33.5 -97q-10 -26 -10 -53zM987 788q0 -39 20.5 -59t57.5 -37q80 -41 169 -81l176 -76q87 -37 168 -67t146 -50h-4q16 -6 30.5 -8t27.5 -2 q37 0 59.5 18t33.5 49t14 69t3 77q0 80 -27.5 110.5t-84.5 46.5h2q-47 16 -94.5 34.5l-94.5 35.5l159 50q83 26 151.5 53.5t112.5 58t44 65.5q0 20 -15.5 47t-38 54.5t-51.5 53.5l-57 48l2 -2q-47 39 -90 39q-33 0 -71 -21h2q-121 -51 -249 -93t-296 -89q-47 -12 -77 -37.5 t-51.5 -61.5t-35.5 -79l-31 -90q-6 -18 -8 -32t-2 -24z" />
<glyph unicode="&#xac;" horiz-adv-x="3031" d="M55 133q0 -23 20.5 -54.5t56.5 -61t82 -50t97 -20.5q39 0 80 8h-2l234 36l235 36q8 -8 19.5 -15.5t25.5 -15.5l19 -10q35 -14 72.5 -26.5t72.5 -12.5q25 0 42 9t38 36l24 35q18 29 38 53l42 53q84 16 179.5 23.5t193.5 21.5q2 -57 6 -96t14.5 -63.5t32 -39t60.5 -22.5 l-2 2q43 -12 79.5 -14t77.5 -2q61 0 82 17t25 58v68q4 -6 10 -10t12 -10v2l15 -15q25 -18 57.5 -36.5t67 -34t70.5 -25.5t71 -10q53 0 125 13t148.5 35.5t152.5 54.5t135 70t96 80t37 87q0 92 -88 155q49 23 94 48.5t80 55t55.5 63.5t20.5 75q0 29 -8 45v-6 q-23 86 -93.5 146.5t-172.5 82.5q47 6 66.5 20.5t19.5 43.5q0 16 -9.5 46t-30 59.5t-51 51t-75.5 21.5h-19q-6 0 -16 -2h4q-57 -4 -108.5 -6t-102.5 -8q4 4 8 16t13 29q86 14 175 24l177 21q43 10 64.5 22.5t21.5 42.5q0 14 -4 20.5t-8 16.5l2 -8q-16 57 -51 100t-111 43 h-19h-57q-29 0 -53 -2q8 8 15 22.5t13 30.5l13 32q6 15 12 26q94 8 178 13t168 13q51 4 71.5 17.5t20.5 52.5q0 27 -9 57.5t-29.5 57t-54.5 43t-83 16.5q-84 0 -169 -7t-165 -16.5t-152.5 -20.5t-133.5 -19l-31 -29l-234 -682v2q-4 -10 -5 -20.5t-1 -20.5q0 -35 21.5 -63.5 t49.5 -49t53.5 -33t31.5 -16.5q-39 -8 -75 -18t-66 -21q-29 -164 -76 -312t-84 -284q4 147 11 286.5t22 236.5v16q0 31 -11.5 49.5t-40.5 32.5q33 12 39 57q33 94 75 200l85 207l83 194l71 165l2 2q4 10 7 15.5t3 21.5q0 29 -33 54.5t-79 44t-95 28.5t-84 10t-55.5 -12 t-36.5 -47q-29 -63 -61 -143l-66 -166l-25 -56q-35 -4 -71.5 -5t-73.5 -5q23 61 51.5 125t61.5 119q2 8 3 10t1 23q0 29 -33 54.5t-80 46t-100 31.5t-94 11q-35 0 -55.5 -13.5t-30.5 -47.5v2q-4 -16 -10.5 -29.5t-10.5 -30.5l-38 59q-17 26 -38.5 42t-51.5 24t-73 8 q-80 0 -183 -5t-210.5 -14t-211.5 -20l-187 -18q-35 -4 -53.5 -16.5t-18.5 -42.5q0 -25 18.5 -56.5t46 -61.5t62.5 -49.5t68 -19.5q12 0 43.5 3t68.5 10h4l-61 -157l-61 -166q-29 -81 -48.5 -150.5t-19.5 -108.5q0 -55 43 -76q-10 2 -27 2q-57 0 -88 -51q-39 -72 -83 -170 t-84 -200.5t-73.5 -198t-52.5 -162.5q-4 -12 -4 -21v-12zM485 240l126 279q67 142 130 257l7 12q2 4 2 21q0 27 -18.5 43t-53.5 35h18q66 0 82 59v-2q27 80 62 169l72 179l76 179l75 171l112 9l111 8h2q14 2 26 4l21 4q-27 -74 -53 -157l-53 -162l-54.5 -155t-54.5 -134 q-8 -18 -8 -39q0 -29 18.5 -49.5t48 -34.5t64.5 -22.5t68 -12.5l30 -6q10 -2 19.5 -3t23.5 -1q37 0 53.5 13.5t24.5 41.5v-4l20 54l19 55v-2l26 73q13 37 27 72q25 2 50.5 3t52.5 5l59 6l-32 -106q-15 -53 -15 -84q0 -25 12.5 -43.5t32.5 -30.5q-20 2 -42.5 3t-47.5 3h-16 q-68 0 -106 -18.5t-66 -46.5q-68 -72 -147 -167l-155 -197l-147 -200l-119 -176v-2q-47 113 -157 113h-19q-55 -4 -105.5 -7t-101.5 -9zM723 569q0 -41 46 -56t118 -15q43 0 80 8t73 33l2 2q18 14 51 44.5t65 66.5t55.5 71t23.5 57q2 6 4 13.5t2 13.5v2q0 43 -41 69.5 t-90 49.5h2q-41 18 -65 18q-53 0 -80 -43h2q-27 -35 -69 -85l-82 -100q-40 -50 -68.5 -91.5t-28.5 -57.5zM1481 424l18 22l68 83q33 40 61 79q-2 -41 -3 -83t-1 -85v-6l-72 -4q-34 -2 -71 -6zM2357 223l19 46l18 44q39 6 73 10.5t66 4.5q55 0 72 -6q-10 -20 -76 -47 t-172 -52zM2509 580q10 25 22.5 50t26.5 48q117 33 192 33h41q-14 -25 -87.5 -61.5t-194.5 -69.5zM2793 727q0 -2 1.5 -3t1.5 -3v-4z" />
<glyph unicode="&#xad;" horiz-adv-x="1202" d="M-131 1012q0 -41 27.5 -96.5t68.5 -105.5t87 -85t83 -35q20 0 45 8q147 35 317.5 53.5t336.5 28.5q53 2 77.5 17.5t24.5 56.5q0 -2 -5 20.5t-16.5 57.5t-30 76t-46 76.5t-65.5 60t-89 24.5q-92 0 -193.5 -6t-198.5 -15t-184.5 -21.5t-148.5 -24.5q-90 -16 -90 -90z" />
<glyph unicode="&#xae;" horiz-adv-x="2652" d="M76 627q0 -94 19.5 -186.5t61.5 -173.5t109.5 -149.5t165.5 -113.5q139 -66 305 -96.5t348 -30.5q156 0 319 23.5t321.5 68.5t308 113t278.5 156t233.5 197.5t172.5 236.5q63 119 95 257t32 267q0 135 -37 258t-121 209q-72 111 -191.5 205t-260 162.5t-286 107.5 t-266.5 39q-186 0 -376.5 -65.5t-369.5 -178t-336 -264t-273.5 -323.5t-184 -356.5t-67.5 -362.5zM465 616q0 123 54 263.5t147.5 278.5t215.5 264t257 223.5t275 155t267 57.5q94 0 189.5 -33t182.5 -89.5t162 -132t131 -162.5t88 -179.5t32 -180.5q0 -53 -11.5 -103 t-39.5 -97l4 2q-51 -74 -110.5 -150t-129.5 -144.5t-147.5 -129t-165.5 -103.5q-84 -41 -161 -74.5t-153.5 -57t-155.5 -37t-165 -13.5q-100 0 -213 18.5t-248 59.5q-162 47 -233.5 142t-71.5 222zM895 500q0 -72 55 -107l-2 2q35 -23 68 -31l71 -20h-2q14 -4 24.5 -5 t18.5 -1q35 0 52.5 15.5t29.5 49.5l45 150l45 154q33 -43 71 -86l75 -82q37 -39 71.5 -72t63.5 -57q45 -31 81 -44.5t64 -13.5q14 0 49 5t72 19.5t64.5 39t27.5 63.5q0 16 -8 30.5t-26 37.5q-33 29 -68 66l-71 80l-70 85l-66 84q158 76 272.5 163t168.5 192l-3 -3 q31 49 31 117q0 55 -14 105.5t-37 94.5t-50.5 80t-51.5 62q-45 49 -105.5 67.5t-128.5 18.5q-111 0 -236.5 -40t-240.5 -93q-25 -12 -51.5 -63.5t-53 -128t-54 -172t-52.5 -194.5l-47 -194l-41 -169v2q-16 -78 -28.5 -129t-12.5 -78zM1444 1137l43 124q23 62 45 115 q49 23 90 30t76 7q41 0 53 -12q0 -20 -21.5 -52t-61.5 -69t-96 -73.5t-128 -69.5z" />
<glyph unicode="&#xaf;" horiz-adv-x="1198" d="M297 1939q0 -37 13.5 -62.5t30.5 -42.5t31.5 -26.5t18.5 -11.5q59 -74 133 -74q18 0 47 7q143 35 314.5 51t337.5 28q53 2 77.5 15.5t24.5 52.5q0 14 -5 30.5t-11 32t-11.5 24.5t-3.5 7q-41 59 -80.5 89t-103.5 30q-92 0 -193.5 -5t-198.5 -14.5t-183 -20.5t-150 -24 q-88 -14 -88 -86z" />
<glyph unicode="&#x2c9;" horiz-adv-x="1198" d="M297 1939q0 -37 13.5 -62.5t30.5 -42.5t31.5 -26.5t18.5 -11.5q59 -74 133 -74q18 0 47 7q143 35 314.5 51t337.5 28q53 2 77.5 15.5t24.5 52.5q0 14 -5 30.5t-11 32t-11.5 24.5t-3.5 7q-41 59 -80.5 89t-103.5 30q-92 0 -193.5 -5t-198.5 -14.5t-183 -20.5t-150 -24 q-88 -14 -88 -86z" />
<glyph unicode="&#xb0;" horiz-adv-x="735" d="M68 1352q0 -68 38.5 -119t106.5 -72h-2q47 -16 109.5 -22t115.5 -6q100 0 175 40.5t124 101t72.5 129.5t23.5 122q0 57 -23.5 98t-82.5 68q-35 16 -86 27.5t-104 15.5h-27q-102 0 -183 -39t-138.5 -97.5t-88 -125t-30.5 -121.5zM358 1321q0 31 18.5 74t47.5 82t60.5 65.5 t60.5 26.5h2q4 0 4 -27q0 -41 -18.5 -86t-45 -82t-56.5 -60.5t-52 -23.5q-10 0 -15.5 5.5t-5.5 25.5z" />
<glyph unicode="&#xb1;" horiz-adv-x="1513" d="M-45 346q0 -35 19.5 -83t51 -93t70.5 -77t78 -32q16 0 27.5 1t25.5 4q131 25 212 44l139 32q57 13 104 22.5t112.5 14.5t164 8t255.5 6q55 0 80 18t25 59q0 20 -7 44t-18 51v-3q-8 23 -18 48.5t-27 54.5h2q-23 41 -60.5 65.5t-90.5 24.5q-131 -2 -221.5 -5t-159.5 -7 q14 14 30.5 62t34.5 113l38 138q19 74 40 141q111 10 218 15l216 8q53 0 77 14.5t24 61.5q0 8 -2 17l-6 28v-2q-4 16 -16.5 55t-36 80t-62.5 72.5t-96 33.5q-25 0 -53.5 1t-59.5 1h-39q-18 0 -39 -2q12 51 41 99.5t29 89.5q0 29 -13.5 49t-35.5 47l2 -4q-16 20 -46 44 t-64 44t-64.5 33.5t-51.5 13.5q-47 0 -80.5 -37t-61.5 -98.5t-52 -139.5l-51 -163q-121 -8 -227.5 -20.5t-184.5 -26.5q-41 -8 -77 -31t-36 -74q0 -33 20.5 -81t52.5 -93t71 -76.5t75 -31.5q10 0 23.5 1t30.5 5l-2 -2q35 4 70.5 11t72.5 11q-8 -29 -14 -58.5l-11.5 -57 t-8.5 -48t-3 -28.5q0 -84 74 -129h-2l84 -50q43 -26 84 -40q-59 -6 -113 -16l-117 -19q-63 -10 -142 -24.5t-187 -28.5q-41 -6 -79 -31t-38 -74z" />
<glyph unicode="&#xb2;" horiz-adv-x="714" d="M-84 856q0 -35 20.5 -73t51 -71.5t64.5 -55t63 -21.5q4 0 57 9l128 22q75 12 161 23t155 16q35 6 52.5 19t17.5 46q0 6 -2 13.5l-4 15.5l2 -2q-6 27 -18.5 57.5t-32 57t-45 43t-56.5 16.5h-4q-16 0 -36.5 -1t-36.5 -5q94 84 179 177t136 177v-2q37 59 61.5 113.5 t24.5 113.5q0 37 -19.5 86t-58.5 94t-98.5 77t-138.5 32q-115 0 -223.5 -70.5t-186.5 -185.5q-37 -66 -37 -100q0 -29 15.5 -47.5t40 -28.5t54 -14.5t58.5 -4.5q49 0 91 21.5t76 48.5t62.5 52.5t51.5 35.5q-18 -41 -79 -115.5t-143.5 -160.5t-178 -174.5t-183.5 -155.5 q-23 -18 -32 -36.5t-9 -41.5z" />
<glyph unicode="&#xb3;" horiz-adv-x="727" d="M-84 907q0 -20 12.5 -44.5t40.5 -53.5h-2q84 -88 172 -120t174 -32q109 0 201 36t168 134v-2q33 41 51.5 91.5t18.5 101.5q0 59 -32 123.5t-99 109.5q74 41 116 82q39 33 63.5 85t24.5 114q0 76 -31.5 132t-77.5 95t-96.5 58.5t-87.5 19.5q-49 0 -88 -12l2 2 q-51 -10 -106 -38t-100 -61.5t-75 -70.5t-30 -66q0 -27 15.5 -48t42 -36.5t59.5 -24.5t70 -9q27 0 55.5 7t50.5 23l58.5 31.5t50.5 19.5q-10 -29 -97.5 -80t-267.5 -110q-57 -20 -57 -74q0 -43 21.5 -76.5t53 -57t67.5 -37t65 -13.5h26q14 2 25.5 3t21.5 1q16 0 29.5 -7 t13.5 -32q0 -23 -11 -47.5t-29.5 -45t-45 -34.5t-57.5 -14q-29 0 -62.5 10t-74.5 35q-23 12 -49.5 20.5t-53.5 8.5q-14 0 -37.5 -4.5t-46 -15.5t-39 -29.5t-16.5 -47.5z" />
<glyph unicode="&#xb4;" horiz-adv-x="1185" d="M436 1905q4 16 20.5 39.5t53.5 35.5q-10 49 -25.5 91.5t-25.5 42.5t-16.5 -46t-6.5 -163zM483 1817q39 -20 73 -31.5t69 -11.5q16 0 29 3l30 7q84 27 174 60.5t174 70.5t157 73.5t124 65.5l20 33q-4 55 -19.5 91t-62.5 54h4q-68 33 -122 33q-45 0 -84 -27 q-109 -70 -252 -134l-287 -124q10 -43 17.5 -78.5t9.5 -37.5z" />
<glyph unicode="&#xb5;" horiz-adv-x="1593" d="M-121 -414q0 -47 18.5 -78.5t63.5 -56.5h-2q45 -29 96 -47t105 -33h-2q18 -6 32.5 -8t24.5 -2q43 0 62.5 20.5t33.5 65.5q29 117 69 261l83 302q47 -20 102.5 -31.5t120.5 -15.5q16 -2 31 -2h33q78 0 145.5 16.5t132.5 53.5q113 70 205 213t172 345t150.5 455.5 t140.5 546.5q12 37 12 66q0 33 -17.5 59.5t-64.5 55.5l-71 38q-38 20 -75.5 37t-73.5 28t-67 11q-47 0 -77.5 -21.5t-40.5 -80.5l2 4l-67 -264q-38 -152 -83 -312.5t-95 -317.5t-101.5 -281t-102.5 -199.5t-96 -75.5q-20 0 -29.5 27.5t-9.5 76.5q0 53 15.5 134t41 176.5 t58.5 199.5l66 206l67 191l59 156l-2 -2q18 49 19 86q0 61 -42 111.5t-99.5 87.5t-117 57.5t-94.5 20.5q-41 0 -66.5 -21.5t-45.5 -70.5q-59 -145 -121 -316.5t-120 -356.5l-115 -378q-56 -193 -104 -380t-87 -363.5t-66 -327.5q-6 -35 -6 -66z" />
<glyph unicode="&#x3bc;" horiz-adv-x="1593" d="M-121 -414q0 -47 18.5 -78.5t63.5 -56.5h-2q45 -29 96 -47t105 -33h-2q18 -6 32.5 -8t24.5 -2q43 0 62.5 20.5t33.5 65.5q29 117 69 261l83 302q47 -20 102.5 -31.5t120.5 -15.5q16 -2 31 -2h33q78 0 145.5 16.5t132.5 53.5q113 70 205 213t172 345t150.5 455.5 t140.5 546.5q12 37 12 66q0 33 -17.5 59.5t-64.5 55.5l-71 38q-38 20 -75.5 37t-73.5 28t-67 11q-47 0 -77.5 -21.5t-40.5 -80.5l2 4l-67 -264q-38 -152 -83 -312.5t-95 -317.5t-101.5 -281t-102.5 -199.5t-96 -75.5q-20 0 -29.5 27.5t-9.5 76.5q0 53 15.5 134t41 176.5 t58.5 199.5l66 206l67 191l59 156l-2 -2q18 49 19 86q0 61 -42 111.5t-99.5 87.5t-117 57.5t-94.5 20.5q-41 0 -66.5 -21.5t-45.5 -70.5q-59 -145 -121 -316.5t-120 -356.5l-115 -378q-56 -193 -104 -380t-87 -363.5t-66 -327.5q-6 -35 -6 -66z" />
<glyph unicode="&#xb6;" horiz-adv-x="1462" d="M115 1001q0 -109 55 -214t154 -185q-14 -39 -20.5 -86t-20.5 -106l-53 -254q-26 -125 -60 -246v-21q0 -41 13.5 -58t60.5 -17q37 0 55 6t43 10q59 14 113.5 31.5t99.5 45t77 68.5t46 103q2 10 17 61l40 128l57 173l66 200l69 206l63 192l52 159q23 69 33 106h4 q23 0 27 -41q-6 -35 -27 -108l-49 -168l-63 -206l-71 -224l-72 -223l-65 -201l-52 -159q-23 -68 -31 -96v-22q0 -41 14.5 -60.5t61.5 -19.5q27 0 52 6t52 14q57 16 111.5 33.5t99.5 44.5t76 68t41 104q8 57 38 169l69 250l84 289l81 283q37 133 61.5 236.5t24.5 146.5 q0 20 -7 37t-19 21l4 -4q-57 41 -129 81.5t-153 74.5t-167 55.5t-174 21.5q-96 0 -188.5 -34t-180.5 -94t-170 -145t-155 -190q-47 -63 -67.5 -121.5t-20.5 -111.5v-9z" />
<glyph unicode="&#xb7;" horiz-adv-x="618" d="M182 885q0 -92 58.5 -146.5t146.5 -54.5h14q80 0 129.5 33t77 75t36.5 79.5t11 48.5v14q0 31 -13 65.5t-42 64.5t-73 50.5t-105 20.5q-49 0 -90 -17.5t-72 -46.5t-50.5 -66.5t-25.5 -78.5q0 -8 -1 -17.5t-1 -23.5z" />
<glyph unicode="&#xb8;" horiz-adv-x="583" d="M-178 -373q0 -53 52 -72.5t134 -19.5q53 0 98.5 15.5t86.5 62.5v-2q27 29 64.5 80t73.5 109.5t65.5 116.5t41.5 106v-3q14 43 15 52v12q0 27 -23.5 64.5t-58.5 73.5t-75 60.5t-73 24.5q-61 0 -88 -67v2l-59 -120l-72 -136l-74 -138l-65 -120v2q-8 -10 -13.5 -21.5 t-11.5 -21.5v2q-18 -35 -18 -62z" />
<glyph unicode="&#xb9;" horiz-adv-x="432" d="M39 819q0 -35 15.5 -58.5t42 -41t62.5 -28.5l74 -23h-2q18 -8 39 -9q29 0 40.5 13.5t19.5 36.5q20 90 51 211.5l65 246.5l70 240q35 115 64 195l-2 -3q12 25 12 48q0 25 -12.5 42t-38.5 35h2q-23 18 -52.5 35t-57.5 29t-52.5 19.5t-38.5 7.5q-20 0 -44 -17.5t-47.5 -45.5 t-46 -63.5t-40.5 -72.5q-8 -16 -12.5 -28.5t-4.5 -24.5q0 -23 10.5 -38.5t32.5 -31.5q-25 -88 -51 -193.5t-47.5 -202t-36 -172t-14.5 -106.5z" />
<glyph unicode="&#xba;" horiz-adv-x="2547" d="M-113 184q0 -45 17.5 -73.5t58.5 -53.5l-2 2q39 -31 87 -47t95 -30l23 -7q45 -10 63 -10q41 0 59.5 20.5t33.5 61.5q16 70 40 160l54 190l59 210l62 220q29 -178 63.5 -339.5t69.5 -278.5q18 -59 61 -104.5t99.5 -74t119 -43t117.5 -14.5q102 0 123 99l-2 -2l96 362 l111 406l113 396q56 191 104 337q8 20 11 38.5t3 35.5q0 47 -32.5 82.5t-79 60t-94.5 41t-79 24.5l-33.5 7.5t-25.5 3.5q-90 0 -123 -101l-111 -354q-58 -193 -110 -399q-10 82 -18 162l-16 153q-7 72 -12 131.5t-7 99.5q-6 84 -33 128.5t-96 72.5h2q-35 18 -78 36.5t-88 34 t-87 26t-73 10.5q-92 0 -133 -103q-35 -98 -75 -231l-81 -281l-81 -298l-72 -284l-59 -243q-26 -109 -35 -168l2 2q-6 -23 -8.5 -40.5t-2.5 -33.5zM1386 608q0 -12 5.5 -31.5l10.5 -37t10 -29.5t5 -8q8 -35 33 -62.5t55.5 -48t64.5 -32t64 -11.5q25 0 52 8 q152 39 330.5 59.5t346.5 33.5q57 2 84 19t27 62q0 20 -6 41t-13.5 37.5t-13.5 24.5t-4 2q-4 4 -10 16.5t-17 28.5q-70 104 -176 104q-96 0 -201.5 -6t-207 -16t-191.5 -23.5t-155 -27.5q-93 -19 -93 -103zM1647 1079q0 -35 8 -66.5t31 -60.5l-3 2q16 -27 49 -48t68 -32h-2 q53 -23 122 -27.5t120 -4.5q109 0 189.5 45t133 110.5t78 139t25.5 133.5q0 66 -24.5 108.5t-92.5 71.5l-2 2q-35 16 -87 28.5t-112 16.5h-41q-106 0 -191 -44t-145.5 -108.5t-92 -136.5t-31.5 -129zM2013 1094q0 20 13.5 48.5t32 55.5t40 47.5t39.5 24.5q-2 -2 -2 -10 q0 -31 -13.5 -64t-31.5 -59.5t-37.5 -44t-34.5 -17.5q-6 1 -6 19z" />
<glyph unicode="&#xbb;" horiz-adv-x="1964" d="M41 694q0 -20 18.5 -50t43 -58.5t51 -54t45.5 -39.5q49 -37 92 -37q23 0 38 5t36 15h-5q123 51 250 94t293 90q47 14 77 38t50.5 56.5t35.5 75.5l34 95q10 29 10 55q0 39 -20.5 57.5t-55.5 38.5l-174 82l-178 78l-168 68q-80 31 -141 51l2 -2q-16 6 -31.5 8t-24.5 2 q-33 0 -54 -16.5t-33.5 -44t-17.5 -63.5t-5 -75q0 -43 6 -71.5t19.5 -48t36 -32t53.5 -22.5h-2q47 -16 94 -35l92 -36l-163 -50q-83 -25 -150.5 -51t-110.5 -57t-43 -66zM979 647q0 -23 17.5 -51.5t42 -57t51 -54t45.5 -40.5q27 -18 47 -28t47 -10q20 0 36.5 5t34.5 15h-4 q123 53 251 95t294 89q55 18 82 40t51 71v-2q16 31 31.5 70.5t30.5 87.5q12 33 12 55q0 37 -20.5 56.5t-57.5 39.5l-174 82l-178 78l-168 67q-80 31 -141 52l2 -2q-16 6 -30.5 8t-25.5 2q-35 0 -56 -18.5t-32.5 -48t-15.5 -65.5t-4 -71q0 -86 25.5 -118.5t87.5 -51.5h-3 q92 -33 187 -72l-162 -49q-82 -25 -149.5 -52.5t-110.5 -57t-43 -64.5z" />
<glyph unicode="&#xbc;" horiz-adv-x="1681" d="M-102 248q0 -33 20.5 -62.5t46.5 -29.5h6q16 -20 35 -27.5t37 -7.5q45 0 96 51l203 184l266 238l297 262l296 258l263 226l201 167q35 29 53.5 56.5t18.5 62.5q0 16 -5.5 33.5t-13.5 36.5v2q-18 33 -30.5 42t-24.5 11q2 0 2 2l-4 8l2 -2q-45 55 -98 56q-23 0 -50.5 -10.5 t-54.5 -32.5q-82 -63 -207 -173l-269 -240l-297 -277l-290 -276l-249 -242l-173 -171q-29 -27 -48 -56.5t-29 -66.5v-22zM-23 858q0 -37 20.5 -62.5t52.5 -44t70 -29.5l70 -20h-2q23 -8 41 -8q35 0 47.5 15.5t20.5 50.5q20 88 54 209l72 248q38 127 77 244.5t71 201.5l-2 -2 q10 27 11 47q0 31 -33 61.5t-78 55t-91 41t-73 16.5q-29 0 -44 -11t-38 -34h2q-27 -27 -61.5 -75t-52.5 -85h2q-10 -16 -14.5 -28.5t-4.5 -24.5q0 -29 12.5 -42t34.5 -30q-29 -92 -57.5 -199.5t-52 -206.5t-39 -177t-15.5 -111zM756 473q0 -41 23.5 -82t56 -74.5t66.5 -54 t56 -20.5q51 0 101.5 11t101.5 17q-29 -100 -35 -147q-6 -31 -6 -49q0 -33 19.5 -56.5t47 -41t57.5 -28.5l48 -18q14 -4 23 -4h18q35 0 50.5 14.5t25.5 49.5l40 144q22 79 50 167q23 2 43.5 3t42.5 3h2q47 4 67.5 18.5t20.5 53.5q0 25 -7 53.5t-19.5 56t-29.5 48t-36 28.5 l65 188l54 154h-2q14 29 14 49q0 27 -37 62t-89 65.5t-107.5 52t-91.5 21.5q-27 0 -73 -30.5t-102.5 -82t-117.5 -115.5l-120 -131l-108.5 -130.5t-83.5 -110.5v2q-16 -23 -22 -43t-6 -43zM1137 557l84 87q43 46 88 89l-25 -85q-12 -44 -29 -85q-29 -2 -59 -3t-59 -3z" />
<glyph unicode="&#xbd;" horiz-adv-x="1769" d="M-102 248q0 -33 20.5 -62.5t46.5 -29.5h6q16 -20 35 -27.5t37 -7.5q45 0 96 51v-2l147 132l185 167l211 188l224 198l224 196l210 182l184 157l143 117q35 29 54.5 56.5t19.5 62.5q0 29 -21 70v2q-16 33 -28.5 42t-26.5 11q2 0 2 2l-4 8l2 -2q-43 55 -98 56 q-49 0 -105 -43q-82 -63 -207 -173l-269 -240l-298 -277l-291 -276l-249 -242l-173 -171q-29 -27 -48 -56.5t-29 -66.5v-22zM-25 858q0 -35 20.5 -60.5t52.5 -44t70 -30.5t72 -21h-2q23 -8 41 -8q35 0 47.5 15.5t20.5 48.5q20 88 54 210t73 247l78 245l69 203l-2 -2 q12 25 13 47q0 31 -33 61.5t-78 55t-91 40t-73 15.5q-29 0 -45 -10t-39 -35h2q-14 -14 -30.5 -33.5t-31.5 -41.5l-30 -43q-14 -22 -22 -40h2q-18 -35 -19 -53q0 -29 12.5 -42t34.5 -30q-29 -90 -58.5 -197.5t-53 -206.5t-39 -178t-15.5 -112zM836 166q0 -33 21.5 -73 t53 -74.5t68.5 -58t68 -23.5q12 0 28.5 2t38.5 8h-2q37 8 93.5 18t120 19.5t124.5 15.5t111 10q41 4 60 17.5t19 48.5q0 6 -2 14t-4 19l2 -3q-4 23 -19 56t-32 55q-37 63 -108 64h-9q-16 -2 -34 -2t-37 -3q100 86 189 182.5t140 182.5v-2q39 59 62.5 115.5t23.5 115.5 q0 43 -20 95.5t-62 96.5t-104.5 74.5t-144.5 30.5q-121 0 -230.5 -73.5t-189.5 -190.5q-41 -63 -41 -100q0 -29 16.5 -48.5t41 -30.5t55 -15t59.5 -4q51 0 95 21.5t81 49t66.5 53t52.5 35.5q-12 -27 -44 -70.5t-79 -97t-106 -112.5l-121 -119l-129 -116q-66 -56 -127 -101 q-27 -18 -36 -41t-9 -41zM1503 870h2v-2h2q-4 0 -4 2z" />
<glyph unicode="&#xbe;" horiz-adv-x="1992" d="M-37 1006q0 -23 12.5 -47.5t47.5 -55.5l-3 4q84 -92 177.5 -125.5t181.5 -33.5q115 0 211 37.5t174 138.5v-2q35 43 54.5 93t19.5 103q0 63 -32 129t-106 115q37 20 68 39.5t57 42.5q39 35 64.5 88t25.5 117q0 76 -33.5 134t-81.5 98t-101.5 60.5t-92.5 20.5 q-63 0 -136 -25.5t-134.5 -63.5t-102 -82t-40.5 -81q0 -29 16 -51.5t44 -37.5t62.5 -24.5t71.5 -9.5q33 0 63.5 12.5t58.5 27.5l54.5 28.5t48.5 17.5q-10 -31 -101 -85t-278 -113q-35 -10 -48 -29t-13 -47q0 -43 21.5 -78t54.5 -59.5t69.5 -38t67.5 -13.5h12q8 0 19 2 l25.5 3.5t17.5 1.5q25 0 39 -8.5t14 -32.5q0 -23 -12.5 -48.5t-33 -47t-48 -37t-58.5 -15.5q-25 0 -54 12l-63 26l-68 26q-34 12 -66 12q-23 0 -48.5 -5t-47 -17.5t-36 -30.5t-14.5 -45zM201 246q0 -25 17.5 -57.5t47.5 -32.5h6q16 -20 35 -27.5t39 -7.5q45 0 98 53v-2 l204 184l267 239l297 263l297 258l266 226l199 167h-2q37 31 57.5 57.5t20.5 61.5t-22 76v-4q-16 35 -29.5 44t-24.5 11q2 0 2 2q0 14 -13 25.5t-31.5 18.5t-35 11.5t-22.5 4.5q-23 0 -50.5 -10.5t-54.5 -32.5q-82 -63 -207 -172l-271 -242l-298 -278l-292 -276l-249 -242 l-173 -171q-35 -33 -56.5 -66.5t-21.5 -80.5zM616 1671v2h2q-2 0 -2 -2zM1061 475q0 -43 24.5 -85t58.5 -74.5t68.5 -53t55.5 -20.5q49 0 100 11t102 17q-33 -98 -34 -151v2q-6 -31 -6 -45q0 -33 19 -57.5t47 -42t56.5 -28.5t49.5 -18q14 -4 24 -5t19 -1q35 0 49 15.5 t24 50.5l41 145l49 166q43 6 76 7t55.5 6t34 19.5t11.5 47.5v10q0 6 -5 17v-2q-4 10 -5 20t-5 18l2 -2q-10 47 -28.5 78t-49.5 47l65 187l54 155l-2 -2q8 16 10 28.5t2 22.5q0 33 -43 69t-99 65.5t-109.5 48t-73.5 18.5q-27 0 -73 -31.5t-103.5 -83t-119.5 -115.5l-122 -132 l-110 -130q-50 -62 -80 -110q-16 -23 -22.5 -44.5t-6.5 -37.5zM1446 557l84 90l90 90q-16 -43 -28.5 -87t-28.5 -85q-29 -4 -58.5 -5t-58.5 -3z" />
<glyph unicode="&#xbf;" horiz-adv-x="1396" d="M61 430q0 -63 29 -151.5t93.5 -169t165 -137t245.5 -56.5q180 0 344 96.5t299 274.5q39 51 54.5 87t15.5 64q0 39 -27 66.5t-65.5 43t-81.5 23t-76 7.5q-78 0 -142.5 -29t-130.5 -86q-74 -66 -146.5 -112t-133.5 -48q-14 0 -26.5 8t-14.5 27v2q0 57 60.5 122.5 t211.5 164.5l131 88q72 49 136.5 114.5t114.5 150.5t69 198q4 14 6 28.5t2 32.5q0 41 -16.5 69.5t-57.5 53.5l-2 2q-51 29 -115.5 55.5t-115.5 26.5q-41 0 -68.5 -19.5t-30.5 -70.5q-27 -129 -96 -209t-155 -137.5t-175.5 -109.5t-156.5 -126q-57 -66 -100.5 -152 t-43.5 -192zM813 1657q0 -31 11.5 -70t42 -74.5t84 -59t136.5 -23.5q51 0 95.5 16t77 45t54 66.5t27.5 78.5v-2q6 27 7 58q0 55 -22.5 99t-61.5 72.5t-88.5 44t-102.5 15.5q-51 0 -97 -17.5t-82 -46t-57.5 -66.5t-21.5 -79v2z" />
<glyph unicode="&#xc0;" horiz-adv-x="1495" d="M-150 174q0 -33 16.5 -59.5t42 -48t58.5 -40t66 -34.5l24 -12q39 -16 72 -17q33 0 53.5 15.5t42.5 54.5l71 149q36 76 87 162q102 27 237 48l271 42h6v-41q0 -131 6 -235q2 -84 26.5 -118t88.5 -54l-2 2q53 -23 102 -27t107 -4q76 0 100.5 24.5t24.5 90.5q6 199 14 419 t19.5 432t24.5 400t30 326v-2q2 10 2 20v21q0 53 -22.5 87.5t-86.5 57.5l-35 12q-72 23 -167 47.5t-238 24.5q-84 0 -132 -36t-83 -89q-92 -145 -202 -340l-220 -401l-210 -408q-99 -201 -169 -356q-16 -37 -20.5 -63.5t-4.5 -49.5zM610 2376l19 -41q49 -35 117.5 -76 t148.5 -82t166 -80t168 -69q31 -12 63 -13q35 0 71 12.5t79 34.5l-53 56q0 2 5 15l13 32.5l16.5 42t18.5 41.5q-135 63 -272.5 137t-237.5 156q-37 31 -86 30q-29 0 -58.5 -8t-70.5 -29q-51 -18 -73 -59t-34 -100zM649 844l145 256l134 233q-8 -113 -15 -228l-12 -233 q-63 -4 -126 -11t-126 -17zM1442 2249q6 -4 18 -8q39 -31 45 -68q-2 66 -9 92.5t-17 26.5q-8 0 -17.5 -12.5t-19.5 -30.5z" />
<glyph unicode="&#xc1;" horiz-adv-x="1497" d="M-152 174q0 -45 20.5 -67.5t51.5 -49.5q27 -18 55.5 -34.5t57.5 -30.5l24 -12q39 -16 72 -17q33 0 53.5 15.5t42.5 54.5l72 148q37 75 86 163q102 27 238 48l272 42h6v-41q0 -131 6 -235q2 -41 8.5 -70t18.5 -48.5t33.5 -31.5t54.5 -22l-4 2q55 -23 104 -27t109 -4 q74 0 99.5 24.5t25.5 90.5q4 199 13 419t20.5 432t24.5 400t30 326v-2q2 10 2 20v21q0 53 -23.5 87.5t-87.5 57.5l-35 12q-74 23 -169 47.5t-238 24.5q-84 0 -132 -37t-83 -90l-131 -217l-144 -253l-147 -271l-142 -274l-129 -259l-108 -229q-16 -37 -21.5 -63.5t-5.5 -49.5 zM639 2154q4 18 21.5 44t56.5 40q-12 55 -26.5 102.5t-26.5 47.5q-10 0 -17.5 -51.5t-7.5 -182.5zM651 844l144 256l133 233l-13 -228l-12 -233q-63 -4 -126 -11t-126 -17zM690 2052q41 -23 76 -36t70 -13q31 0 61 12q88 31 182.5 70t181.5 80t162.5 82t128.5 73l21 37 q-2 63 -18.5 103.5t-65.5 60.5h2q-70 39 -127 39q-43 0 -88 -31q-111 -80 -261.5 -154.5t-297.5 -136.5l18 -89q8 -40 10 -44z" />
<glyph unicode="&#xc2;" horiz-adv-x="1495" d="M-150 176q0 -35 16.5 -61.5t42 -48t58.5 -40t66 -34.5l24 -12q23 -10 39.5 -13.5t32.5 -3.5q33 0 53.5 15.5t42.5 54.5l71 149q36 76 87 162q100 29 235 49l273 43h6v-43q0 -131 6 -235q2 -41 8.5 -70t18.5 -48.5t33.5 -31.5t54.5 -22l-4 2q55 -23 104 -27t107 -4 q76 0 100.5 24.5t24.5 90.5q6 199 14 420t19.5 433t24.5 401.5t30 326.5v-2q2 8 2 18v23q0 53 -22.5 88t-86.5 57l-35 12q-74 23 -169 47.5t-238 24.5q-84 0 -131 -36t-82 -89l-131 -218l-144 -253l-147 -272l-142 -276l-129 -261l-108 -229q-14 -35 -19.5 -63t-5.5 -48z M649 846l145 256l132 233l-13 -228l-12 -233q-63 -4 -126 -11t-126 -17zM731 2247q0 -33 18.5 -66t43 -59.5t50 -43t42.5 -16.5q23 0 53.5 26t65.5 64l71 84q37 45 72 82q12 -66 20.5 -124t32 -103t70.5 -71.5t139 -26.5h8q41 0 59.5 14t18.5 55q0 4 -1 11.5t-1 11.5 q-10 45 -21.5 104.5t-21.5 123l-19.5 128t-15.5 121.5q-2 66 -34.5 101.5t-67.5 58.5l2 -2l-47 34q-25 17 -54 17q-39 0 -77 -39q-68 -59 -139.5 -133t-131 -143.5t-97.5 -126.5t-38 -82z" />
<glyph unicode="&#xc3;" horiz-adv-x="1501" d="M-152 174q0 -35 17.5 -61.5t44.5 -48t59.5 -40t63.5 -32.5l24 -12q39 -16 72 -17q37 0 69.5 38t62.5 94.5t59.5 123t64.5 123.5q102 29 237 49l273 43h6v-41q0 -133 6 -237q2 -41 8.5 -69t18.5 -47.5t33.5 -31.5t54.5 -22l-2 2q53 -23 103.5 -27t107.5 -4 q76 0 100.5 24.5t24.5 90.5q6 199 14 419t19.5 431t24.5 399t30 324v-3q2 10 2 21v23q0 53 -22.5 86.5t-86.5 56.5l-37 12q-72 25 -167 48.5t-240 23.5q-84 0 -132 -36t-83 -89l-132 -216l-144 -253l-147 -271l-143 -274l-129 -260l-108 -229q-16 -35 -21.5 -61.5 t-5.5 -49.5zM485 2130q0 -98 131 -98q47 0 80 11t68 38l49.5 33.5t40.5 17.5q63 0 106.5 -16.5t85 -37t92 -37t130.5 -16.5q106 0 241 99l-2 -2q78 49 113 95t39 89v6q0 27 -14.5 47.5t-36 33.5t-47 20.5t-50.5 7.5q-31 0 -59.5 -12.5t-58.5 -34.5l-19 -15 q-10 -10 -23.5 -20t-23.5 -20.5t-17 -16.5l-7 -6h-3q-53 4 -105 34.5t-105 45.5h4q-49 18 -92.5 27.5t-90.5 9.5q-39 0 -98 -19.5t-118.5 -48.5t-108.5 -61.5t-68 -59.5q-33 -45 -33 -88v-6zM653 842l143 256l134 231l-12 -226l-13 -233q-63 -4 -126 -11t-126 -17z" />
<glyph unicode="&#xc4;" horiz-adv-x="1497" d="M-152 174q0 -45 20.5 -67.5t51.5 -49.5q27 -18 55.5 -34.5t57.5 -30.5l24 -12q39 -16 72 -17q33 0 53.5 15.5t42.5 52.5l72 150q37 75 86 161q102 29 238 49l272 43h6v-41q0 -133 6 -237q2 -41 8.5 -69t18.5 -47.5t33.5 -31.5t54.5 -22l-2 2q53 -23 102 -27t109 -4 q74 0 99.5 24.5t25.5 90.5q4 199 13 419t20.5 431t24.5 399t30 324v-3q2 10 2 21v20q0 53 -23.5 88t-87.5 58l-35 12q-74 23 -169 47.5t-238 24.5q-84 0 -132 -36t-83 -89l-131 -216l-144 -253l-147 -271l-142 -274l-129 -260l-108 -229q-16 -35 -21.5 -61.5t-5.5 -49.5z M618 2175q0 -86 53.5 -136t131.5 -50h8q41 0 75 15t60.5 37.5t44 48.5t25.5 46q6 14 11 28.5t9 35.5v14q0 29 -12 61.5t-37.5 60t-64.5 45t-93 17.5q-43 0 -77.5 -15.5t-62 -42t-45 -59t-23.5 -69.5q-3 -10 -3 -37zM651 842l145 256l134 231q-8 -111 -15 -226l-12 -233 q-63 -4 -126 -11t-126 -17zM1163 2169q0 -84 55.5 -133t133.5 -49h8q43 0 78 16t60.5 38.5t43 49.5t25.5 45l-2 -2q6 14 10 31.5t6 34.5v14q0 29 -12.5 60.5t-38 59t-64.5 45t-92 17.5q-43 0 -77.5 -15.5t-62.5 -42t-44 -59t-23 -69.5q-2 -10 -3 -19.5t-1 -21.5z" />
<glyph unicode="&#xc5;" horiz-adv-x="1497" d="M-150 174q0 -45 19.5 -67.5t50.5 -49.5q27 -18 55.5 -34.5t57.5 -30.5l24 -12q39 -16 72 -17q33 0 53.5 15.5t42.5 54.5l72 149q37 76 86 162q102 27 237 48l273 42h6v-41q0 -131 6 -235q2 -41 8.5 -70t18.5 -48.5t33.5 -31.5t54.5 -22l-4 2q55 -23 104 -27t107 -4 q76 0 100.5 24.5t24.5 90.5q6 199 14 420t19.5 433t24.5 400t30 324v-2q2 10 2 20v21q0 53 -22.5 87.5t-86.5 57.5l-35 12q-74 25 -169 48.5t-238 23.5q-84 0 -132 -36t-83 -89l-131 -217l-144 -253l-147 -271l-142 -275l-129 -260l-108 -229q-16 -37 -20.5 -63.5 t-4.5 -49.5zM651 844l144 257l133 232l-13 -228l-12 -233q-63 -4 -126 -11t-126 -17zM756 2169q0 -70 39 -127q16 -29 49 -50.5t65 -31.5h-2q49 -18 114.5 -24.5t123.5 -6.5q104 0 183 45t131 110.5t79 141.5t27 135t-27 106.5t-88 76.5q-39 16 -92 29.5t-109 19.5h-26 q-109 0 -195 -43t-146.5 -107.5t-93 -138.5t-32.5 -135zM1063 2136q0 35 19.5 82t49 89t64.5 71.5t66 29.5h2q2 0 2 -28q0 -47 -19.5 -96.5t-47.5 -89.5t-59.5 -66.5t-54.5 -26.5q-12 0 -17 5t-5 30z" />
<glyph unicode="&#xc6;" horiz-adv-x="2234" d="M-137 160q0 -33 18.5 -59.5t42 -47t46 -33t30.5 -14.5q39 -23 66.5 -32t48.5 -9q37 0 74.5 37t78.5 92.5t85 122t93 127.5q94 23 221.5 43.5t258.5 36.5l49 6q-29 -96 -50.5 -156.5t-25.5 -107.5q-2 -8 -2 -19v-18q0 -70 37 -96.5t90 -44.5l-6 4q18 -12 71.5 -17.5 t112.5 -5.5q80 0 135.5 5.5t101.5 14.5t90 20l99 24l289 61q59 12 82.5 32.5t23.5 66.5q0 43 -13 96t-38.5 101t-65.5 80t-96 32q-98 0 -183 -12.5t-163 -26.5q16 41 28.5 85t29.5 89q115 23 235.5 44t237.5 46q61 14 86.5 30.5t25.5 63.5q0 18 -8 49l2 -2l-21 89 q-11 46 -34 84t-60.5 62.5t-97.5 24.5h-14q-96 -2 -180 -12q31 82 55 160v-2l28 74l25 71l245 31l226 27q68 8 92.5 28.5t24.5 73.5v18q0 10 -2 19l-6 29q-6 35 -13.5 64.5t-29.5 72.5l2 -6q-35 109 -160 108h-10q-135 -4 -249 -23.5t-220 -45.5q14 -2 21.5 -12.5t7.5 -22.5 l-33 35h2v2q-10 4 -21.5 7t-21.5 7h2q-70 23 -161 45t-234 22q-78 0 -134.5 -33.5t-99.5 -86.5l-175 -213l-197 -249l-204 -267l-201 -272l-184 -258l-155 -228q-29 -47 -40 -77.5t-11 -53.5zM817 840l195 249l180 226l-60 -222q-30 -112 -57 -227l-129 -12q-63 -6 -129 -14 z" />
<glyph unicode="&#xc7;" horiz-adv-x="1329" d="M-68 -453q0 -53 49.5 -75.5t147.5 -22.5q59 0 105.5 15.5t93.5 66.5q29 31 64.5 80t70.5 104.5t66.5 112.5t52.5 106q94 6 175 36t147.5 81t119.5 120t94 151q18 35 29.5 67.5t11.5 61.5q0 61 -61.5 99t-159.5 38q-133 0 -236 -107q-141 -154 -204 -153h-6 q-27 10 -37.5 50t-10.5 99q0 90 22.5 211t63.5 238q33 92 82.5 194.5t101.5 188.5t101 144t80 60q10 -8 14 -27.5t4 -41.5q0 -37 -3 -76t-3 -76q6 -57 22.5 -102t47.5 -80t79 -58.5t118 -37.5q12 -4 24 -4h25q27 0 43 5t27.5 15t17.5 25l14 32l4 5q14 37 25.5 85t19.5 100 t12.5 104.5t4.5 99.5q0 82 -26 153.5t-108 137.5q-35 27 -81 50t-98 41.5t-106 32t-106 19.5h2q-8 2 -20 2h-23q-123 0 -236.5 -68.5t-210.5 -181.5t-176 -258t-135.5 -300t-88 -306.5t-31.5 -276.5q0 -82 11 -154.5t36 -131.5v4q25 -72 77 -127.5t107 -85.5l-61 -114 l-61 -115l-57 -106l-48 -87v2q-19 -35 -19 -64zM1323 1085l2 2z" />
<glyph unicode="&#xc8;" horiz-adv-x="1193" d="M-76 299q0 -53 16.5 -90t45.5 -68v2l64 -73q30 -33 58.5 -56.5t62.5 -36t79 -12.5q18 0 41.5 2t54.5 13l-2 -3l267 60l270 59q59 10 81.5 29.5t22.5 67.5v34q-16 49 -27.5 96.5t-35.5 94.5v-2q-18 49 -52 69.5t-90 20.5q-92 0 -175 -11.5t-161 -25.5q20 80 54 174 q72 16 146.5 29.5t150.5 29.5h-2l107 19q50 8 88 20.5t59.5 33t21.5 54.5q0 23 -8 50l2 -2q-8 45 -19.5 88t-35.5 90v-2q-23 51 -58 68.5t-94 17.5h-14l-91 -4q-44 -2 -87 -7l43 123l31 96q15 46 32 89q127 18 241 30l220 25q66 8 90.5 30.5t24.5 77.5q0 10 -1.5 28t-5.5 28 h2q-8 35 -16 65.5t-29 77.5l2 -2q-20 55 -56 82t-101 27h-11q-109 -4 -219 -18.5t-215.5 -33t-202.5 -41.5l-180 -43l-26 -28l-357 -1381q-6 -28 -6 -61zM469 2365l14 -45q49 -33 118 -73.5t148.5 -81.5t165.5 -80t170 -70q27 -12 60 -12q35 0 70.5 12.5t78.5 34.5l-53 55 q0 2 6 15.5l14.5 33l18.5 41t23 37.5q-137 61 -276.5 138t-240.5 159q-35 31 -86 31q-31 0 -65.5 -9t-68.5 -33t-59.5 -61t-37.5 -92zM1303 2232q2 -2 4 -2t4 -2q41 -29 47 -69q-2 55 -8.5 77.5t-16.5 22.5q-14 0 -30 -27z" />
<glyph unicode="&#xc9;" horiz-adv-x="1193" d="M-76 299q0 -53 16.5 -90t45.5 -68v2l64 -73q30 -33 58.5 -56.5t62.5 -36t79 -12.5q18 0 42.5 2t53.5 13l-2 -3l268 60l271 59q59 10 81.5 29.5t22.5 67.5q0 49 -19.5 111.5t-43.5 113.5v-2q-20 49 -54 69.5t-90 20.5q-92 0 -175 -11.5t-161 -25.5q20 80 54 174 q72 16 146.5 29.5t150.5 29.5h-2l103 17q50 8 89 20.5t62.5 33t23.5 56.5q0 23 -8 50l2 -2q-10 45 -21.5 88t-35.5 90v-2q-23 51 -58 68.5t-94 17.5h-12l-92 -4q-45 -2 -86 -7q23 76 50 157t56 151q125 18 239 30l220 25q68 8 92.5 30.5t24.5 77.5q0 10 -2.5 28t-6.5 28h2 l-15 65q-7 31 -30 78l2 -2q-18 55 -55 82t-100 27h-10q-109 -4 -219.5 -18.5t-217 -33t-203.5 -41.5l-180 -43l-26 -28l-357 -1381q-6 -28 -6 -61zM451 2154q4 23 20 43.5t55 40.5l-12 54q-6 27 -13 48t-13.5 34.5t-12.5 13.5q-10 0 -17 -52.5t-7 -181.5zM500 2052 q41 -23 75.5 -36t69.5 -13q29 0 64 12q86 31 178 70t179 80t163 82t129 73l18 37q-4 61 -20.5 102.5t-63.5 61.5h4q-70 39 -125 39q-47 0 -88 -31q-113 -78 -261 -151.5t-296 -139.5l19 -89q8 -40 10 -44z" />
<glyph unicode="&#xca;" horiz-adv-x="1191" d="M-76 301q0 -53 16.5 -91t45.5 -69v2l64 -73q30 -33 58.5 -56.5t62.5 -36t79 -12.5q18 0 41.5 2t54.5 13l-2 -3l267 60l270 59q59 10 81.5 29.5t22.5 67.5q0 53 -19.5 114.5t-43.5 110.5v-2q-18 49 -52 70.5t-90 21.5q-92 0 -175 -12.5t-161 -26.5q4 35 21 83l33 93 q72 16 145.5 29.5t151.5 30.5h-2l107 18q50 8 88 20.5t59.5 32t21.5 55.5q0 23 -8 50l2 -2l-21 88q-10 43 -34 90v-2q-23 51 -58 69.5t-94 18.5h-14q-90 -2 -178 -13l55 160l51 148q127 18 240 31l219 26q68 8 92.5 29.5t24.5 79.5q0 12 -2.5 26.5t-6.5 28.5l2 -2 q-6 35 -14 66.5t-29 78.5v-2q-18 55 -54 82t-101 27h-11q-109 -4 -219 -17.5t-215.5 -34t-202.5 -42.5l-180 -41l-26 -29l-357 -1383q-6 -30 -6 -61zM555 2238q0 -20 9 -41.5t23.5 -42t29.5 -37.5l26 -30l4 -6l23.5 -19.5t34.5 -7.5q41 0 61 35l2 2v2l20 22l21 21v-2l76 86 l84 90q8 -57 16 -108.5t21.5 -93.5t38 -70.5t65.5 -38.5h-2q35 -10 62.5 -12t56.5 -2h6q41 0 59.5 15t18.5 52v12q0 6 -4 17l2 -4l-20 104q-11 59 -21 123l-21 128q-10 65 -16 122q-2 59 -31 96t-72 66v-2q-20 20 -45.5 34.5t-48.5 14.5q-27 0 -65.5 -28t-83.5 -71t-92 -96 l-88 -103l-74 -92l-49 -65q-27 -29 -27 -70z" />
<glyph unicode="&#xcb;" horiz-adv-x="1191" d="M-76 299q0 -53 16.5 -90t45.5 -68v2l64 -73q30 -33 58.5 -56.5t62.5 -36t79 -12.5q39 0 96 15l-2 -3l267 60l270 57q59 12 81.5 31.5t22.5 67.5q0 53 -19.5 114.5t-43.5 108.5v-2q-18 49 -52 70.5t-90 21.5q-92 0 -175 -12.5t-161 -26.5q4 35 20.5 83t33.5 91l145 31 l152 28h-2l104 18.5t88 21t61.5 33t22.5 54.5q0 23 -8 50h2l-21 86q-10 43 -34 90v-2q-23 51 -58 68.5t-94 17.5h-14q-90 -2 -178 -13l55 161l51 147q127 18 239.5 31.5t219.5 23.5q68 8 92.5 30.5t24.5 79.5q0 10 -2.5 26.5t-6.5 29.5l2 -2q-6 35 -14 65.5t-29 77.5v-2 q-18 55 -54 82t-101 27h-11q-109 -4 -219 -18.5t-215.5 -33t-202.5 -41.5l-180 -43l-26 -28l-357 -1377q-6 -30 -6 -61zM387 2161q0 -84 53.5 -134.5t130.5 -50.5h9q68 0 109.5 30t66 67.5t34 71.5t9.5 42v17q0 27 -11.5 58.5t-36 59t-63.5 46t-92 18.5q-84 0 -139.5 -57.5 t-67.5 -130.5v2q-2 -8 -2 -19v-20zM928 2157q0 -84 54 -133.5t132 -49.5h6q51 0 91 22.5t67 52.5t41 59.5t14 45.5q2 8 3 14.5t3 16.5v17q0 27 -12 59.5t-36.5 59t-62.5 45t-91 18.5q-43 0 -78 -15.5t-61.5 -42t-44 -59.5t-21.5 -69q-2 -10 -3 -19.5t-1 -21.5z" />
<glyph unicode="&#xcc;" horiz-adv-x="634" d="M-113 178q0 -47 19.5 -76.5t60.5 -56.5h-2q27 -18 60.5 -33.5t68.5 -28t68 -19.5t57 -7q43 0 59.5 19.5t32.5 64.5l62 233l72 270l79 285l81 281l78 255q38 120 71 208q12 39 12 69q0 35 -18.5 62t-59.5 55l2 -2q-29 20 -68.5 43t-81.5 41.5t-82 29.5t-67 11 q-41 0 -66.5 -22.5t-45.5 -75.5q-29 -88 -65 -214l-75 -271l-77 -297l-70 -293q-33 -141 -58.5 -262t-37.5 -203q-4 -16 -6.5 -31t-2.5 -35zM111 2417l14 -41q47 -35 114.5 -76t146.5 -82t164 -81t167 -71q27 -12 59 -12q33 0 69 12.5t77 34.5l-43 64q2 2 10 16t20.5 30.5 t25.5 32t26 17.5q-4 4 -10.5 9t-10.5 9q-135 63 -273.5 140.5t-240.5 163.5q-37 31 -84 30q-27 0 -57.5 -10t-71.5 -29q-47 -20 -69.5 -60t-32.5 -97zM961 2261q20 -25 24 -53q-2 53 -22 53h-2z" />
<glyph unicode="&#xcd;" horiz-adv-x="641" d="M-113 178q0 -47 19.5 -76.5t60.5 -56.5h-2q27 -18 61.5 -33.5t70.5 -28t69 -19.5t55 -7q43 0 60.5 19.5t31.5 64.5l63 233l74 270l79 284l82 281l78 255q38 119 71 209q12 39 12 69q0 35 -18.5 61t-59.5 54l2 -2q-31 23 -70.5 45.5t-81.5 40t-82 28.5t-69 11 q-41 0 -66.5 -21.5t-45.5 -74.5q-29 -90 -65 -216l-75 -271l-78 -296q-39 -152 -71 -293l-60 -263q-27 -120 -38 -201q-4 -16 -5.5 -31t-1.5 -35zM221 2157q4 20 15 34q-6 -4 -10.5 -11t-4.5 -23zM236 2191h4q10 0 23 -11t25.5 -24.5t20.5 -24.5t10 -11l-47 -64 q41 -23 76 -36t70 -13q31 0 61 12h-2q86 31 178.5 71t177.5 81t159.5 82t127.5 74l21 36q-4 55 -23.5 94.5t-49.5 64t-64.5 34.5t-67.5 10q-27 0 -46.5 -8t-37.5 -23q-55 -41 -124 -80.5t-142.5 -77.5t-150.5 -73l-150 -68q-31 -20 -49 -45z" />
<glyph unicode="&#xce;" horiz-adv-x="634" d="M-113 178q0 -47 19.5 -76.5t60.5 -56.5h-2q23 -14 55.5 -29.5t67.5 -29t70 -21.5t61 -8q43 0 59.5 19.5t32.5 64.5l62 233l72 270l79 285l81 282l78 255q38 119 71 209q12 39 12 70q0 35 -18.5 61.5t-59.5 54.5l2 -2q-31 23 -70.5 45.5t-80.5 40t-80 28.5t-68 11 q-41 0 -66.5 -22.5t-45.5 -75.5q-29 -88 -65 -214l-75 -270l-77 -297l-70 -294q-33 -141 -58.5 -263t-37.5 -202q-4 -18 -6.5 -33t-2.5 -35zM250 2226q0 -31 17.5 -63.5t42 -59t49 -44t40.5 -17.5q20 0 50 26.5t64 64.5l71 83q37 45 71 82l7 -25l22 -125q10 -55 34.5 -94 t68.5 -60.5t124 -21.5h9q41 0 58 15.5t17 54.5v10q0 6 -4 14l2 -2q-10 45 -20 105l-22 123q-11 63 -19 127.5t-14 122.5q-2 61 -34 101t-67 58l2 -2q-27 23 -50.5 37t-45.5 14q-39 0 -76 -38q-68 -59 -137.5 -133t-127.5 -144t-95 -127t-37 -82z" />
<glyph unicode="&#xcf;" horiz-adv-x="636" d="M-113 178q0 -47 19.5 -76.5t60.5 -56.5h-2q23 -16 56.5 -31.5t69.5 -28t71 -20.5t59 -8q43 0 59.5 19.5t30.5 64.5l63 233l73 269l80 283l82 280l77 254q37 119 70 209q14 37 14 69q0 35 -18.5 60.5t-59.5 54.5v-2q-31 23 -70.5 45.5t-81.5 39.5t-81 28.5t-66 11.5 q-41 0 -66.5 -21.5t-45.5 -74.5q-29 -88 -66 -214t-75 -270l-77 -296q-39 -153 -71.5 -294l-58 -261.5t-37.5 -200.5q-4 -18 -6.5 -32t-2.5 -34zM123 2161q0 -84 52 -134.5t130 -50.5h6q68 0 110 30t66.5 67.5t33.5 71.5t9 42v17q0 29 -12 60.5t-36.5 59t-62.5 45t-89 17.5 q-41 0 -76 -15.5t-61.5 -42t-44 -60.5t-23.5 -70v2q-2 -8 -2 -19v-20zM657 2157q0 -84 52.5 -133.5t130.5 -49.5h8q55 0 93 22.5t62.5 53.5t37 60.5t18.5 46.5q2 6 3 12t3 16v17q0 27 -12.5 59.5t-37 59t-62.5 45t-89 18.5q-43 0 -77.5 -15.5t-61.5 -42t-43 -59.5t-20 -69 q-2 -10 -3.5 -19.5t-1.5 -21.5z" />
<glyph unicode="&#xd0;" horiz-adv-x="1884" d="M70 1065q0 -37 27.5 -88t72.5 -96t101.5 -77t115.5 -32h10l-82 -360v2q-10 -35 -13 -59.5t-3 -45.5q0 -59 28.5 -108t69.5 -90t89 -73l85 -54h-2q72 -45 154 -45q57 0 104 20h-2q264 82 461 223.5t327 310.5t194.5 352t64.5 349t-64 303v-2q-47 106 -116.5 180 t-151.5 118t-174 63.5t-186 19.5q-78 0 -156 -12.5t-151.5 -32t-141 -46t-123.5 -56.5l-123 -537l-130.5 -9t-143.5 -16h2q-143 -12 -143 -102zM801 438l53 192l55 187h68q43 0 91 2t94 7t79 16q-68 -111 -176 -215.5t-264 -188.5zM1030 1204l37 104l39 103q55 16 90 16 q61 0 102 -25.5t60 -62.5l-2 2q8 -20 13 -44.5t5 -55.5q0 -63 -20.5 -142t-59.5 -161q-2 4 -3 7t-3 7q-6 27 -24.5 75t-46.5 89l2 -4q-54 86 -189 92z" />
<glyph unicode="&#xd1;" horiz-adv-x="1466" d="M-111 186q0 -45 17.5 -73.5t56.5 -55.5l-2 2q39 -31 86 -47t94 -30l23 -7l36 -7q15 -3 27 -3q41 0 58.5 20.5t31.5 61.5q16 72 40 162l52 191l58 211l61 223q29 -178 62 -342t69 -281q18 -59 53.5 -98t80.5 -64.5t98 -42t106 -29.5q25 -6 54 -6q102 0 123 101l-3 -2 l61 236l70 264l73 276l76 271l73 252l65 216q14 41 15 76q0 47 -33 83t-78 61.5t-92 42t-78 24.5q-18 2 -33.5 5t-25.5 3q-47 0 -76 -23.5t-45 -76.5q-53 -162 -109.5 -356.5t-109.5 -405.5l-17 165l-15 153l-12.5 133.5t-7.5 101.5q-6 86 -31.5 130t-95.5 73h3 q-35 18 -77 36.5t-87 34t-86 25.5t-72 10q-45 0 -77 -23.5t-54 -78.5q-35 -100 -74 -235l-80 -282l-80 -302l-72 -287q-34 -135 -58.5 -244t-34.5 -170l2 2q-6 -23 -7.5 -40.5t-1.5 -33.5zM485 2130q0 -98 131 -98q45 0 78 10t70 39q20 16 47 33.5t43 17.5q61 0 104 -16.5 t85 -37t93.5 -37t129.5 -16.5q104 0 241 97l-2 -2q78 49 114 96t40 88v8q0 27 -14.5 46.5t-36 33.5t-48 21.5t-51.5 7.5q-31 0 -58.5 -12.5t-57.5 -34.5l-21 -15q-10 -10 -22 -20l-24 -21q-11 -10 -17 -16l-6 -6h-3q-27 2 -53 11t-52 22l-53 25q-28 13 -55 22h5 q-47 18 -91.5 27.5t-91.5 9.5q-39 0 -97 -19.5t-117.5 -48.5t-109.5 -61.5t-69 -59.5q-31 -47 -31 -88v-6z" />
<glyph unicode="&#xd2;" d="M-2 594q0 -301 137 -451.5t412 -177.5h-2q45 -6 90 -6q133 0 243.5 66.5t197.5 177t151.5 252t107.5 290t63.5 294t20.5 261.5q0 70 -6 131.5t-22.5 117t-47 105.5t-81.5 93q-33 29 -82.5 55.5t-105.5 48t-116.5 33.5t-115.5 12q-74 0 -154 -27.5t-141 -72.5 q-129 -102 -231.5 -244.5t-173 -304.5t-107.5 -329.5t-37 -323.5zM469 2365l14 -45q49 -33 118 -73.5t148.5 -81.5t164.5 -80t169 -70q16 -6 29.5 -9t32.5 -3q35 0 69.5 12.5t79.5 34.5l-53 55q0 2 6 15.5l14.5 33l18.5 41t20 37.5l-137 66q-70 35 -137.5 72.5t-128.5 77.5 t-111 81q-35 31 -86 31q-31 0 -66.5 -10t-68.5 -33t-58.5 -60t-37.5 -92zM483 502q0 98 24.5 222t65.5 232q33 90 78 184.5t93.5 172.5t93.5 128t77 50h3q16 -6 23 -46t7 -102q0 -115 -20.5 -234.5t-54 -231t-76.5 -211t-88 -173t-87 -116.5t-75 -43q-35 0 -49.5 48 t-14.5 120zM1300 2232q2 -2 5 -2q2 0 6 -2q41 -29 47 -71q-2 57 -9.5 79.5t-17.5 22.5q-15 0 -31 -27z" />
<glyph unicode="&#xd3;" d="M-2 594q0 -301 137 -451.5t412 -177.5h-2q45 -6 90 -6q133 0 243.5 66.5t197.5 177t151.5 252t107.5 290t63.5 294t20.5 261.5q0 70 -6 131.5t-22.5 117t-47 105.5t-81.5 93q-33 29 -82.5 55.5t-105.5 48t-116.5 33.5t-115.5 12q-74 0 -154 -27.5t-141 -72.5 q-129 -102 -231.5 -244.5t-173 -304.5t-107.5 -329.5t-37 -323.5zM449 2154q4 18 21 44t56 40q-6 27 -13 54l-13 48q-6 22 -13.5 35t-13.5 13q-10 0 -17 -52.5t-7 -181.5zM483 502q0 98 24.5 222t65.5 232q33 90 78 184.5t93.5 172.5t93.5 128t77 50h3q16 -6 23 -46t7 -102 q0 -115 -20.5 -234.5t-54 -231t-76.5 -211t-88 -173t-87 -116.5t-75 -43q-35 0 -49.5 48t-14.5 120zM500 2052q39 -23 74.5 -36t70.5 -13q31 0 62 12q88 31 180 70t178 80t162 82t129 73l18 37q-4 63 -19.5 103.5t-62.5 60.5h4q-72 39 -127 39q-45 0 -86 -31 q-113 -78 -261 -151.5t-296 -139.5l17.5 -89t9.5 -44z" />
<glyph unicode="&#xd4;" d="M-2 594q0 -299 137 -450.5t412 -178.5h-2q45 -6 90 -6q135 0 245.5 67.5t197.5 177t151.5 252t106.5 291t62.5 294t20.5 262.5q0 70 -5 132t-22.5 117.5t-48 105.5t-81.5 93q-33 29 -82.5 55.5t-105.5 48t-116.5 34t-115.5 12.5q-74 0 -154 -28t-141 -73 q-129 -104 -231.5 -247.5t-173 -304.5t-107.5 -329.5t-37 -324.5zM483 504q0 98 24.5 221t65.5 233q33 90 78 184.5t93.5 172.5t93.5 128t77 50h3q16 -4 23 -45t7 -100q0 -115 -20.5 -235t-54 -232.5t-76.5 -212t-88 -174t-87 -117.5t-75 -43q-35 0 -49.5 49t-14.5 121z M657 2198q0 -35 17.5 -69t42 -59.5t50.5 -41t42 -15.5q20 0 51 26.5t67 65.5t72.5 84t73.5 82q8 -35 12.5 -83t15.5 -95t36.5 -85t76.5 -50l-2 2q35 -10 61.5 -13t55.5 -3h6q41 0 59.5 15t18.5 54v10q0 8 -4 17l2 -2l-6 28l-38 215q-22 123 -32 232q-4 68 -34.5 101.5 t-67.5 58.5q-20 16 -47 32.5t-49 16.5q-27 0 -66 -28t-84 -72t-93 -96t-90 -103l-76 -94q-34 -43 -50 -66q-21 -30 -21 -65z" />
<glyph unicode="&#xd5;" horiz-adv-x="1445" d="M-2 592q0 -293 136 -446.5t417 -180.5h-2q45 -6 92 -6q135 0 245.5 66.5t199 176t153 251t107.5 290t63.5 294t20.5 261.5q0 72 -6.5 134.5t-23 117t-48 103.5t-82.5 92q-33 27 -81 53.5t-104.5 48t-117 33.5t-117.5 12q-72 0 -156 -25.5t-143 -72.5 q-131 -102 -233.5 -245.5t-173 -304.5t-108.5 -329.5t-38 -322.5zM483 2130q0 -98 131 -98q45 0 78 10t70 39q20 16 47 33.5t41 17.5q63 0 106 -16.5t85 -37t92.5 -37t130.5 -16.5q104 0 239 99l-2 -2q76 47 112 94t40 90v6q0 25 -13.5 45.5t-35 34.5t-47 21.5t-52.5 7.5 q-31 0 -58.5 -12.5t-57.5 -34.5l-21 -15q-10 -10 -22 -20l-24 -21q-11 -10 -17 -16l-7 -6q-55 4 -107 34.5t-106 45.5h5q-49 18 -92.5 27.5t-90.5 9.5q-39 0 -97 -19.5t-117.5 -48.5t-108.5 -61.5t-68 -59.5q-33 -45 -33 -88v-6zM487 502q0 98 25 220t66 232 q33 90 78.5 184.5t94 172.5t93.5 128t80 50h2q16 -6 23 -46t7 -102q0 -113 -20.5 -231.5t-54 -230t-77.5 -211t-89 -174t-88 -117.5t-76 -43q-35 0 -49.5 48t-14.5 120z" />
<glyph unicode="&#xd6;" d="M-2 592q0 -293 135 -446.5t414 -180.5h-2q45 -6 90 -6q135 0 245.5 66.5t197.5 176t151.5 251t107.5 290t63.5 294t20.5 261.5q0 68 -6 130.5t-23.5 118t-48 104.5t-81.5 92q-33 29 -81 55.5t-104.5 48t-117 33.5t-115.5 12q-72 0 -155 -26.5t-142 -73.5 q-131 -102 -233.5 -244.5t-172 -304.5t-106.5 -329.5t-37 -321.5zM485 502q0 98 23.5 221t64.5 231q33 90 79 184.5t93.5 172.5t93.5 127t79 49h2q16 -4 23 -44t7 -102q0 -113 -20.5 -231.5t-54 -230t-76.5 -211t-88 -174t-88 -117.5t-76 -43h-10q-29 10 -40.5 55t-11.5 113 zM492 2163q0 -86 53 -136.5t131 -50.5h8q68 0 111 31t67.5 69t34.5 71.5t10 39.5v17q0 27 -12 59.5t-36.5 59t-63.5 45t-93 18.5q-41 0 -76.5 -15.5t-62 -42t-45 -59.5t-24.5 -69q-2 -10 -2 -37zM1032 2157q0 -84 54.5 -133.5t132.5 -49.5h8q43 0 77.5 16.5t61.5 41t45.5 52 t24.5 48.5v6q4 14 6 24.5t4 24.5v15q0 29 -12.5 60.5t-37 59t-62.5 45t-91 17.5q-43 0 -78 -15.5t-62.5 -42t-44 -59.5t-22.5 -69q-2 -10 -3 -19.5t-1 -21.5z" />
<glyph unicode="&#xd7;" horiz-adv-x="1347" d="M-16 598q4 -33 8 -54.5t8 -39.5v2q8 -55 22.5 -84t55.5 -29q27 0 84 26.5t131 65.5l153 83l154 81q86 -51 157 -101l146 -106q33 -27 70 -26q20 0 55 25.5t68.5 65.5t59.5 87t26 88q0 51 -43 86l-51.5 38.5t-59.5 47.5l111 49q10 4 19 8l20 9l-2 -2q31 12 50 23 t33.5 24.5t23.5 32t15 44.5v-2q14 35 15 82q0 57 -21 109v-2q-10 29 -33.5 44t-54.5 15q-35 0 -82 -20l2 2q-86 -33 -195 -82l-233 -109l-107 67q-56 34 -109.5 61.5t-98.5 46t-74 18.5q-39 0 -79 -32t-72.5 -76t-53 -93t-20.5 -86q0 -31 14.5 -49t38 -31.5t54 -27 t63.5 -31.5q-59 -35 -109.5 -61.5t-85 -54.5t-54 -57.5t-19.5 -66.5v-8z" />
<glyph unicode="&#xd8;" horiz-adv-x="1439" d="M-2 592q0 -135 27.5 -249t99.5 -196q-4 -4 -7 -10t-7 -12l2 2l-27 -52l-23 -42v2q-31 -61 -30 -115q4 -20 10 -40.5t20 -37.5l-4 -12q4 -2 8.5 -3t14.5 -7h-2q20 -14 38.5 -19.5t37.5 -5.5q59 0 96 74l-2 -2l37 64l45 77q76 -27 158.5 -38t146.5 -11q135 0 245.5 66.5 t197.5 176t151.5 251t106.5 290t62.5 292t22.5 259.5q0 98 -14 181.5t-57 158.5q63 100 104 156.5t41 103.5q0 37 -35 82l17 17l-72 48q-39 26 -74 25q-66 0 -110 -71l2 4l-45 -68l-62 -90q-2 -4 -3 -7t-5 -7q-63 23 -132 42t-134 19q-72 0 -155 -25.5t-142 -72.5 q-129 -102 -231.5 -244.5t-172 -303.5t-107.5 -328.5t-38 -321.5zM532 336l141 228l150 241l60 94l-7.5 -23.5t-7.5 -21.5q-35 -111 -76.5 -206t-84.5 -165.5t-84 -110.5t-76 -40q-2 0 -7.5 1t-7.5 3zM565 926l4 12q2 6 6 14q31 80 70 165t82 158t84 127t76 73l-158 -270z " />
<glyph unicode="&#xd9;" horiz-adv-x="1402" d="M-16 516q0 -145 39 -248q66 -168 204 -237.5t338 -69.5q78 0 144.5 16.5t132.5 53.5q111 70 203 213t170.5 345t149.5 456.5t140 547.5q6 18 8.5 33.5t2.5 30.5q0 35 -16.5 60.5t-61.5 56.5l-71 38q-38 20 -76 37t-73.5 28t-66.5 11q-45 0 -77 -22.5t-42 -79.5l2 4 l-64 -266q-38 -152 -83 -312.5t-95.5 -317.5t-100.5 -281t-100 -199.5t-95 -75.5q-20 0 -28.5 28.5t-8.5 75.5q0 92 29.5 226.5t75.5 282t98.5 294t99.5 262.5l-2 -2q18 45 18 86q0 53 -36.5 102.5t-90 88.5t-114 61.5t-109.5 22.5q-41 0 -66.5 -21.5t-46.5 -70.5 q-59 -147 -117.5 -311.5t-106.5 -330t-77.5 -324.5t-29.5 -292zM471 2365l14 -45q49 -33 118 -73.5t148.5 -81.5t167 -80t171.5 -70q27 -12 59 -12q35 0 70.5 12.5t78.5 34.5l-51 55q0 2 5 15.5t13.5 33t19.5 41t22 37.5q-137 61 -276.5 138t-242.5 159q-35 31 -83 31 q-51 0 -127 -37q-47 -18 -71 -58.5t-36 -99.5zM1307 2232q2 -2 4 -2t6 -2q39 -31 45 -67q0 53 -7 75.5t-18 22.5q-14 0 -30 -27z" />
<glyph unicode="&#xda;" horiz-adv-x="1402" d="M-16 516q0 -145 39 -248q66 -168 204 -237.5t338 -69.5q78 0 144.5 16.5t132.5 53.5q111 70 203 213t170.5 345t149.5 456.5t140 547.5q6 18 8.5 33.5t2.5 30.5q0 35 -16.5 60.5t-61.5 56.5l-71 38q-38 20 -76 37t-73.5 28t-66.5 11q-45 0 -77 -22.5t-42 -79.5l2 4 l-64 -266q-38 -152 -83 -312.5t-95.5 -317.5t-100.5 -281t-100 -199.5t-95 -75.5q-20 0 -28.5 28.5t-8.5 75.5q0 92 29.5 226.5t75.5 282t98.5 294t99.5 262.5l-2 -2q18 45 18 86q0 53 -36.5 102.5t-90 88.5t-114 61.5t-109.5 22.5q-41 0 -66.5 -21.5t-46.5 -70.5 q-59 -147 -117.5 -311.5t-106.5 -330t-77.5 -324.5t-29.5 -292zM451 2154q4 18 21 44t56 40q-6 27 -13 54l-13 48q-6 22 -13.5 35t-13.5 13q-10 0 -17 -52.5t-7 -181.5zM502 2052q41 -23 75.5 -36t69.5 -13q31 0 62 12q88 31 180 70t179 80t163 82l131 73l18 37 q-4 63 -20.5 103.5t-63.5 60.5h4q-72 39 -126 39q-45 0 -87 -31q-113 -78 -262 -151.5t-297 -139.5l19 -89q8 -40 10 -44z" />
<glyph unicode="&#xdb;" horiz-adv-x="1402" d="M-16 518q0 -147 39 -250q66 -166 202.5 -236.5t339.5 -70.5q78 0 144.5 16.5t132.5 53.5q111 70 203 213t170.5 345t149.5 456.5t140 549.5q6 20 8.5 36t2.5 28q0 35 -16.5 61.5t-61.5 57.5l-71 39q-38 20 -76 36.5t-73.5 27.5t-66.5 11q-45 0 -77 -22.5t-42 -81.5l2 4 l-64 -264q-38 -152 -83 -313.5t-95.5 -319.5t-100.5 -282t-100 -199.5t-95 -75.5q-20 0 -28.5 28.5t-8.5 77.5q0 92 29.5 226.5t75.5 282t98.5 294t99.5 262.5l-2 -2q18 49 18 86q0 55 -36.5 104.5t-90 88.5t-114 61.5t-109.5 22.5q-41 0 -66.5 -21.5t-46.5 -70.5 q-59 -147 -117.5 -312.5t-106.5 -331t-77.5 -324.5t-29.5 -292zM557 2238q0 -18 9 -39.5t23.5 -42t29 -39t26.5 -30.5l4 -6q16 -12 24.5 -19.5t35.5 -7.5q31 0 55 28l49 56v-2l76 84l84 90q8 -57 16 -108.5t21.5 -93.5t38 -70.5t65.5 -38.5h-2q35 -10 63.5 -12t55.5 -2h8 q41 0 59.5 15t18.5 52v12q0 6 -4 17l2 -4q-10 45 -21.5 104.5t-21.5 122.5l-19.5 128t-15.5 122q-2 59 -31.5 97t-72.5 65v-2q-20 20 -46 34.5t-49 14.5q-39 0 -75 -39q-68 -59 -140.5 -133t-131 -144.5t-96.5 -127t-38 -81.5z" />
<glyph unicode="&#xdc;" horiz-adv-x="1402" d="M-16 516q0 -150 39 -248q66 -168 204 -237.5t338 -69.5q78 0 144.5 16.5t132.5 53.5q111 70 203 212t170.5 343.5t149.5 455.5t140 547q6 18 8.5 33.5t2.5 30.5q0 35 -16.5 60.5t-61.5 55.5l-71 39q-38 20 -76 37t-73.5 28t-66.5 11q-45 0 -77 -22.5t-42 -79.5l2 4 l-64 -264q-38 -152 -83 -312.5t-95.5 -317.5t-100.5 -281t-100 -199.5t-95 -75.5q-20 0 -28.5 29.5t-8.5 76.5q0 92 29.5 225.5t75.5 280t98.5 292.5t99.5 263l-2 -2q18 49 18 86q0 53 -36.5 103.5t-90 88.5t-114 60.5t-109.5 22.5q-41 0 -66.5 -21.5t-46.5 -71.5 q-59 -147 -117.5 -311t-106.5 -328.5t-77.5 -322.5t-29.5 -291zM479 2163q0 -86 53.5 -136.5t131.5 -50.5h8q68 0 110.5 31t67 69t35 71.5t10.5 39.5v17q0 27 -12.5 59.5t-38 59t-64.5 45t-92 18.5q-41 0 -77 -15.5t-62.5 -42t-45 -59.5t-24.5 -69v-37zM1020 2157 q0 -84 55 -133.5t133 -49.5h6q43 0 78 16.5t62.5 41t45 52t25.5 48.5v6q4 14 6.5 24.5t4.5 24.5v15q0 27 -12.5 59.5t-37 59t-63.5 45t-92 18.5q-43 0 -78 -15.5t-62.5 -42t-44 -59.5t-22.5 -69q-2 -10 -3 -19.5t-1 -21.5z" />
<glyph unicode="&#xdd;" horiz-adv-x="1339" d="M141 1804q0 -27 6 -53l41 -231l50 -263l56 -272l60 -262l-42 -166q-19 -80 -33 -151l2 2q-16 -70 -34 -134.5t-18 -113.5t26 -84t66.5 -59.5t90.5 -42.5l98 -33q37 -12 61 -13q41 0 59.5 20.5t33.5 61.5q31 135 67.5 270.5t83.5 278.5l193 284l186 279q88 133 155.5 247 t102.5 187q16 33 25.5 58.5t9.5 52.5q0 25 -25.5 68t-66.5 83t-92.5 69.5t-100.5 29.5q-31 0 -56.5 -15.5t-41.5 -54.5l-188 -306l-195 -306q-31 147 -62 279l-55 233q-10 33 -20.5 56.5t-25.5 40t-37.5 27.5t-57.5 19l2 -2q-31 8 -56.5 10.5t-50.5 2.5q-113 0 -165 -19 t-52 -78zM449 2154q4 23 20 43.5t55 40.5q-12 55 -25.5 102.5t-25.5 47.5q-10 0 -17 -51.5t-7 -182.5zM498 2054q80 -49 145 -49q27 0 62 10q86 31 178 70t178 80t161.5 82t129.5 75l18 35q-4 63 -19.5 103.5t-62.5 62.5h4q-74 37 -127 37q-25 0 -46 -8t-40 -21 q-113 -80 -260 -153.5t-295 -139.5l19 -89q8 -40 10 -44z" />
<glyph unicode="&#xde;" horiz-adv-x="1361" d="M-115 176q0 -84 82 -131h-2q25 -16 58.5 -31.5t70.5 -28t72 -20.5t57 -8q39 0 59.5 20.5t33 54.5t20.5 76t20 85q195 57 381.5 144t333 194.5t236.5 230.5t90 252q0 74 -19.5 138.5t-50.5 120.5t-66.5 102t-68.5 83q-53 57 -126 81t-159 24q-72 0 -141 -13q0 4 2 6v-2 q12 39 12 70q0 35 -18.5 60.5t-61.5 54.5l2 -2q-31 23 -70.5 44t-82.5 38.5t-83 29t-69 11.5q-41 0 -66.5 -21.5t-47.5 -75.5q-29 -88 -66 -213l-76 -267l-78 -293l-72 -290q-34 -139 -59.5 -258.5t-37.5 -199.5q-4 -18 -6.5 -32t-2.5 -34zM508 690l64 198l65 181 q66 29 129 40t111 11q39 0 55 -2t21 -6t3 -10t-2 -12q0 -37 -28.5 -88.5t-86 -105.5t-140 -108.5t-191.5 -97.5z" />
<glyph unicode="&#xdf;" horiz-adv-x="2154" d="M-10 958q0 -31 21.5 -70.5t53 -74.5t67.5 -58.5t67 -23.5q10 0 26.5 2t40.5 8v-2q39 8 97.5 18.5t123 19.5t128 15.5t112.5 10.5q39 8 55.5 19.5t16.5 47.5q0 25 -11.5 60t-33 66.5t-50 54t-65.5 22.5h-12q-16 -2 -35 -2q-18 0 -39 -2q102 86 191.5 182.5t142.5 182.5v-2 q39 59 62.5 115.5t23.5 115.5q0 35 -17.5 86t-57.5 98t-102.5 81t-154.5 34q-59 0 -118.5 -20.5t-115 -55.5t-103.5 -83t-87 -103q-41 -63 -41 -105q0 -29 16.5 -48t41 -30.5t55 -15.5t59.5 -4q51 0 96 21.5t82 49t67 54.5t54 37q-18 -41 -80.5 -117t-149.5 -165 t-187.5 -179t-194.5 -158q-45 -43 -45 -82zM274 246q0 -25 17.5 -57.5t48.5 -32.5h4q18 -20 36.5 -27.5t39.5 -7.5q45 0 98 53v-2l205 184l267 239l298 263l297 258l265 226l202 167q35 29 53.5 55.5t18.5 61.5q0 31 -19 72q-18 35 -28.5 45t-26.5 10q2 0 2 2l-4 8l2 -2 q-43 53 -98 54q-25 0 -51.5 -10.5t-53.5 -32.5q-84 -63 -209 -173l-270 -241l-299 -277l-293 -275l-251 -242l-173 -171v2q-35 -31 -56.5 -66.5t-21.5 -82.5zM1239 231q0 -20 13.5 -44.5t43.5 -57.5q86 -90 179.5 -122t183.5 -32q70 0 150.5 21.5t150.5 67t115 114t45 164.5 q0 119 -103 215v-2q-14 14 -39 29q39 23 70 43t57 43h-2q41 35 66.5 87t25.5 115q0 80 -33.5 138.5t-81.5 96.5t-101.5 57.5t-90.5 19.5q-61 0 -134 -23.5t-136.5 -60.5t-105.5 -81t-42 -83q0 -29 16.5 -51.5t44.5 -38t63.5 -24.5t72.5 -9q27 0 61.5 6t59.5 29 q27 16 54.5 30.5t49.5 18.5q-12 -31 -103 -84t-278 -113q-35 -10 -48 -28.5t-13 -46.5q0 -43 22.5 -78t55.5 -60.5t69.5 -39t67.5 -13.5h10q8 0 19 2q16 2 28.5 3t18.5 1q20 0 34.5 -9t14.5 -34q0 -18 -11.5 -42.5t-32 -47t-49 -38t-61.5 -15.5q-25 0 -54.5 11t-62 25.5 t-66.5 26t-67 11.5q-20 0 -45.5 -5.5t-48 -16.5t-38 -29.5t-15.5 -45.5z" />
<glyph unicode="&#xe0;" horiz-adv-x="1495" d="M-150 174q0 -33 16.5 -59.5t42 -48t58.5 -40t66 -34.5l24 -12q39 -16 72 -17q33 0 53.5 15.5t42.5 54.5l71 149q36 76 87 162q102 27 237 48l271 42h6v-41q0 -131 6 -235q2 -84 26.5 -118t88.5 -54l-2 2q53 -23 102 -27t107 -4q76 0 100.5 24.5t24.5 90.5q6 199 14 419 t19.5 432t24.5 400t30 326v-2q2 10 2 20v21q0 53 -22.5 87.5t-86.5 57.5l-35 12q-72 23 -167 47.5t-238 24.5q-84 0 -132 -36t-83 -89q-92 -145 -202 -340l-220 -401l-210 -408q-99 -201 -169 -356q-16 -37 -20.5 -63.5t-4.5 -49.5zM610 2376l19 -41q49 -35 117.5 -76 t148.5 -82t166 -80t168 -69q31 -12 63 -13q35 0 71 12.5t79 34.5l-53 56q0 2 5 15l13 32.5l16.5 42t18.5 41.5q-135 63 -272.5 137t-237.5 156q-37 31 -86 30q-29 0 -58.5 -8t-70.5 -29q-51 -18 -73 -59t-34 -100zM649 844l145 256l134 233q-8 -113 -15 -228l-12 -233 q-63 -4 -126 -11t-126 -17zM1442 2249q6 -4 18 -8q39 -31 45 -68q-2 66 -9 92.5t-17 26.5q-8 0 -17.5 -12.5t-19.5 -30.5z" />
<glyph unicode="&#xe1;" horiz-adv-x="1497" d="M-152 174q0 -45 20.5 -67.5t51.5 -49.5q27 -18 55.5 -34.5t57.5 -30.5l24 -12q39 -16 72 -17q33 0 53.5 15.5t42.5 54.5l72 148q37 75 86 163q102 27 238 48l272 42h6v-41q0 -131 6 -235q2 -41 8.5 -70t18.5 -48.5t33.5 -31.5t54.5 -22l-4 2q55 -23 104 -27t109 -4 q74 0 99.5 24.5t25.5 90.5q4 199 13 419t20.5 432t24.5 400t30 326v-2q2 10 2 20v21q0 53 -23.5 87.5t-87.5 57.5l-35 12q-74 23 -169 47.5t-238 24.5q-84 0 -132 -37t-83 -90l-131 -217l-144 -253l-147 -271l-142 -274l-129 -259l-108 -229q-16 -37 -21.5 -63.5t-5.5 -49.5 zM639 2154q4 18 21.5 44t56.5 40q-12 55 -26.5 102.5t-26.5 47.5q-10 0 -17.5 -51.5t-7.5 -182.5zM651 844l144 256l133 233l-13 -228l-12 -233q-63 -4 -126 -11t-126 -17zM690 2052q41 -23 76 -36t70 -13q31 0 61 12q88 31 182.5 70t181.5 80t162.5 82t128.5 73l21 37 q-2 63 -18.5 103.5t-65.5 60.5h2q-70 39 -127 39q-43 0 -88 -31q-111 -80 -261.5 -154.5t-297.5 -136.5l18 -89q8 -40 10 -44z" />
<glyph unicode="&#xe2;" horiz-adv-x="1495" d="M-150 176q0 -35 16.5 -61.5t42 -48t58.5 -40t66 -34.5l24 -12q23 -10 39.5 -13.5t32.5 -3.5q33 0 53.5 15.5t42.5 54.5l71 149q36 76 87 162q100 29 235 49l273 43h6v-43q0 -131 6 -235q2 -41 8.5 -70t18.5 -48.5t33.5 -31.5t54.5 -22l-4 2q55 -23 104 -27t107 -4 q76 0 100.5 24.5t24.5 90.5q6 199 14 420t19.5 433t24.5 401.5t30 326.5v-2q2 8 2 18v23q0 53 -22.5 88t-86.5 57l-35 12q-74 23 -169 47.5t-238 24.5q-84 0 -131 -36t-82 -89l-131 -218l-144 -253l-147 -272l-142 -276l-129 -261l-108 -229q-14 -35 -19.5 -63t-5.5 -48z M649 846l145 256l132 233l-13 -228l-12 -233q-63 -4 -126 -11t-126 -17zM731 2247q0 -33 18.5 -66t43 -59.5t50 -43t42.5 -16.5q23 0 53.5 26t65.5 64l71 84q37 45 72 82q12 -66 20.5 -124t32 -103t70.5 -71.5t139 -26.5h8q41 0 59.5 14t18.5 55q0 4 -1 11.5t-1 11.5 q-10 45 -21.5 104.5t-21.5 123l-19.5 128t-15.5 121.5q-2 66 -34.5 101.5t-67.5 58.5l2 -2l-47 34q-25 17 -54 17q-39 0 -77 -39q-68 -59 -139.5 -133t-131 -143.5t-97.5 -126.5t-38 -82z" />
<glyph unicode="&#xe3;" horiz-adv-x="1501" d="M-152 174q0 -35 17.5 -61.5t44.5 -48t59.5 -40t63.5 -32.5l24 -12q39 -16 72 -17q37 0 69.5 38t62.5 94.5t59.5 123t64.5 123.5q102 29 237 49l273 43h6v-41q0 -133 6 -237q2 -41 8.5 -69t18.5 -47.5t33.5 -31.5t54.5 -22l-2 2q53 -23 103.5 -27t107.5 -4 q76 0 100.5 24.5t24.5 90.5q6 199 14 419t19.5 431t24.5 399t30 324v-3q2 10 2 21v23q0 53 -22.5 86.5t-86.5 56.5l-37 12q-72 25 -167 48.5t-240 23.5q-84 0 -132 -36t-83 -89l-132 -216l-144 -253l-147 -271l-143 -274l-129 -260l-108 -229q-16 -35 -21.5 -61.5 t-5.5 -49.5zM485 2130q0 -98 131 -98q47 0 80 11t68 38l49.5 33.5t40.5 17.5q63 0 106.5 -16.5t85 -37t92 -37t130.5 -16.5q106 0 241 99l-2 -2q78 49 113 95t39 89v6q0 27 -14.5 47.5t-36 33.5t-47 20.5t-50.5 7.5q-31 0 -59.5 -12.5t-58.5 -34.5l-19 -15 q-10 -10 -23.5 -20t-23.5 -20.5t-17 -16.5l-7 -6h-3q-53 4 -105 34.5t-105 45.5h4q-49 18 -92.5 27.5t-90.5 9.5q-39 0 -98 -19.5t-118.5 -48.5t-108.5 -61.5t-68 -59.5q-33 -45 -33 -88v-6zM653 842l143 256l134 231l-12 -226l-13 -233q-63 -4 -126 -11t-126 -17z" />
<glyph unicode="&#xe4;" horiz-adv-x="1497" d="M-152 174q0 -45 20.5 -67.5t51.5 -49.5q27 -18 55.5 -34.5t57.5 -30.5l24 -12q39 -16 72 -17q33 0 53.5 15.5t42.5 52.5l72 150q37 75 86 161q102 29 238 49l272 43h6v-41q0 -133 6 -237q2 -41 8.5 -69t18.5 -47.5t33.5 -31.5t54.5 -22l-2 2q53 -23 102 -27t109 -4 q74 0 99.5 24.5t25.5 90.5q4 199 13 419t20.5 431t24.5 399t30 324v-3q2 10 2 21v20q0 53 -23.5 88t-87.5 58l-35 12q-74 23 -169 47.5t-238 24.5q-84 0 -132 -36t-83 -89l-131 -216l-144 -253l-147 -271l-142 -274l-129 -260l-108 -229q-16 -35 -21.5 -61.5t-5.5 -49.5z M618 2175q0 -86 53.5 -136t131.5 -50h8q41 0 75 15t60.5 37.5t44 48.5t25.5 46q6 14 11 28.5t9 35.5v14q0 29 -12 61.5t-37.5 60t-64.5 45t-93 17.5q-43 0 -77.5 -15.5t-62 -42t-45 -59t-23.5 -69.5q-3 -10 -3 -37zM651 842l145 256l134 231q-8 -111 -15 -226l-12 -233 q-63 -4 -126 -11t-126 -17zM1163 2169q0 -84 55.5 -133t133.5 -49h8q43 0 78 16t60.5 38.5t43 49.5t25.5 45l-2 -2q6 14 10 31.5t6 34.5v14q0 29 -12.5 60.5t-38 59t-64.5 45t-92 17.5q-43 0 -77.5 -15.5t-62.5 -42t-44 -59t-23 -69.5q-2 -10 -3 -19.5t-1 -21.5z" />
<glyph unicode="&#xe5;" horiz-adv-x="1497" d="M-150 174q0 -45 19.5 -67.5t50.5 -49.5q27 -18 55.5 -34.5t57.5 -30.5l24 -12q39 -16 72 -17q33 0 53.5 15.5t42.5 54.5l72 149q37 76 86 162q102 27 237 48l273 42h6v-41q0 -131 6 -235q2 -41 8.5 -70t18.5 -48.5t33.5 -31.5t54.5 -22l-4 2q55 -23 104 -27t107 -4 q76 0 100.5 24.5t24.5 90.5q6 199 14 420t19.5 433t24.5 400t30 324v-2q2 10 2 20v21q0 53 -22.5 87.5t-86.5 57.5l-35 12q-74 25 -169 48.5t-238 23.5q-84 0 -132 -36t-83 -89l-131 -217l-144 -253l-147 -271l-142 -275l-129 -260l-108 -229q-16 -37 -20.5 -63.5 t-4.5 -49.5zM651 844l144 257l133 232l-13 -228l-12 -233q-63 -4 -126 -11t-126 -17zM756 2169q0 -70 39 -127q16 -29 49 -50.5t65 -31.5h-2q49 -18 114.5 -24.5t123.5 -6.5q104 0 183 45t131 110.5t79 141.5t27 135t-27 106.5t-88 76.5q-39 16 -92 29.5t-109 19.5h-26 q-109 0 -195 -43t-146.5 -107.5t-93 -138.5t-32.5 -135zM1063 2136q0 35 19.5 82t49 89t64.5 71.5t66 29.5h2q2 0 2 -28q0 -47 -19.5 -96.5t-47.5 -89.5t-59.5 -66.5t-54.5 -26.5q-12 0 -17 5t-5 30z" />
<glyph unicode="&#xe6;" horiz-adv-x="2234" d="M-137 160q0 -33 18.5 -59.5t42 -47t46 -33t30.5 -14.5q39 -23 66.5 -32t48.5 -9q37 0 74.5 37t78.5 92.5t85 122t93 127.5q94 23 221.5 43.5t258.5 36.5l49 6q-29 -96 -50.5 -156.5t-25.5 -107.5q-2 -8 -2 -19v-18q0 -70 37 -96.5t90 -44.5l-6 4q18 -12 71.5 -17.5 t112.5 -5.5q80 0 135.5 5.5t101.5 14.5t90 20l99 24l289 61q59 12 82.5 32.5t23.5 66.5q0 43 -13 96t-38.5 101t-65.5 80t-96 32q-98 0 -183 -12.5t-163 -26.5q16 41 28.5 85t29.5 89q115 23 235.5 44t237.5 46q61 14 86.5 30.5t25.5 63.5q0 18 -8 49l2 -2l-21 89 q-11 46 -34 84t-60.5 62.5t-97.5 24.5h-14q-96 -2 -180 -12q31 82 55 160v-2l28 74l25 71l245 31l226 27q68 8 92.5 28.5t24.5 73.5v18q0 10 -2 19l-6 29q-6 35 -13.5 64.5t-29.5 72.5l2 -6q-35 109 -160 108h-10q-135 -4 -249 -23.5t-220 -45.5q14 -2 21.5 -12.5t7.5 -22.5 l-33 35h2v2q-10 4 -21.5 7t-21.5 7h2q-70 23 -161 45t-234 22q-78 0 -134.5 -33.5t-99.5 -86.5l-175 -213l-197 -249l-204 -267l-201 -272l-184 -258l-155 -228q-29 -47 -40 -77.5t-11 -53.5zM817 840l195 249l180 226l-60 -222q-30 -112 -57 -227l-129 -12q-63 -6 -129 -14 z" />
<glyph unicode="&#xe7;" horiz-adv-x="1329" d="M-68 -453q0 -53 49.5 -75.5t147.5 -22.5q59 0 105.5 15.5t93.5 66.5q29 31 64.5 80t70.5 104.5t66.5 112.5t52.5 106q94 6 175 36t147.5 81t119.5 120t94 151q18 35 29.5 67.5t11.5 61.5q0 61 -61.5 99t-159.5 38q-133 0 -236 -107q-141 -154 -204 -153h-6 q-27 10 -37.5 50t-10.5 99q0 90 22.5 211t63.5 238q33 92 82.5 194.5t101.5 188.5t101 144t80 60q10 -8 14 -27.5t4 -41.5q0 -37 -3 -76t-3 -76q6 -57 22.5 -102t47.5 -80t79 -58.5t118 -37.5q12 -4 24 -4h25q27 0 43 5t27.5 15t17.5 25l14 32l4 5q14 37 25.5 85t19.5 100 t12.5 104.5t4.5 99.5q0 82 -26 153.5t-108 137.5q-35 27 -81 50t-98 41.5t-106 32t-106 19.5h2q-8 2 -20 2h-23q-123 0 -236.5 -68.5t-210.5 -181.5t-176 -258t-135.5 -300t-88 -306.5t-31.5 -276.5q0 -82 11 -154.5t36 -131.5v4q25 -72 77 -127.5t107 -85.5l-61 -114 l-61 -115l-57 -106l-48 -87v2q-19 -35 -19 -64zM1323 1085l2 2z" />
<glyph unicode="&#xe8;" horiz-adv-x="1193" d="M-76 299q0 -53 16.5 -90t45.5 -68v2l64 -73q30 -33 58.5 -56.5t62.5 -36t79 -12.5q18 0 41.5 2t54.5 13l-2 -3l267 60l270 59q59 10 81.5 29.5t22.5 67.5v34q-16 49 -27.5 96.5t-35.5 94.5v-2q-18 49 -52 69.5t-90 20.5q-92 0 -175 -11.5t-161 -25.5q20 80 54 174 q72 16 146.5 29.5t150.5 29.5h-2l107 19q50 8 88 20.5t59.5 33t21.5 54.5q0 23 -8 50l2 -2q-8 45 -19.5 88t-35.5 90v-2q-23 51 -58 68.5t-94 17.5h-14l-91 -4q-44 -2 -87 -7l43 123l31 96q15 46 32 89q127 18 241 30l220 25q66 8 90.5 30.5t24.5 77.5q0 10 -1.5 28t-5.5 28 h2q-8 35 -16 65.5t-29 77.5l2 -2q-20 55 -56 82t-101 27h-11q-109 -4 -219 -18.5t-215.5 -33t-202.5 -41.5l-180 -43l-26 -28l-357 -1381q-6 -28 -6 -61zM469 2365l14 -45q49 -33 118 -73.5t148.5 -81.5t165.5 -80t170 -70q27 -12 60 -12q35 0 70.5 12.5t78.5 34.5l-53 55 q0 2 6 15.5l14.5 33l18.5 41t23 37.5q-137 61 -276.5 138t-240.5 159q-35 31 -86 31q-31 0 -65.5 -9t-68.5 -33t-59.5 -61t-37.5 -92zM1303 2232q2 -2 4 -2t4 -2q41 -29 47 -69q-2 55 -8.5 77.5t-16.5 22.5q-14 0 -30 -27z" />
<glyph unicode="&#xe9;" horiz-adv-x="1193" d="M-76 299q0 -53 16.5 -90t45.5 -68v2l64 -73q30 -33 58.5 -56.5t62.5 -36t79 -12.5q18 0 42.5 2t53.5 13l-2 -3l268 60l271 59q59 10 81.5 29.5t22.5 67.5q0 49 -19.5 111.5t-43.5 113.5v-2q-20 49 -54 69.5t-90 20.5q-92 0 -175 -11.5t-161 -25.5q20 80 54 174 q72 16 146.5 29.5t150.5 29.5h-2l103 17q50 8 89 20.5t62.5 33t23.5 56.5q0 23 -8 50l2 -2q-10 45 -21.5 88t-35.5 90v-2q-23 51 -58 68.5t-94 17.5h-12l-92 -4q-45 -2 -86 -7q23 76 50 157t56 151q125 18 239 30l220 25q68 8 92.5 30.5t24.5 77.5q0 10 -2.5 28t-6.5 28h2 l-15 65q-7 31 -30 78l2 -2q-18 55 -55 82t-100 27h-10q-109 -4 -219.5 -18.5t-217 -33t-203.5 -41.5l-180 -43l-26 -28l-357 -1381q-6 -28 -6 -61zM451 2154q4 23 20 43.5t55 40.5l-12 54q-6 27 -13 48t-13.5 34.5t-12.5 13.5q-10 0 -17 -52.5t-7 -181.5zM500 2052 q41 -23 75.5 -36t69.5 -13q29 0 64 12q86 31 178 70t179 80t163 82t129 73l18 37q-4 61 -20.5 102.5t-63.5 61.5h4q-70 39 -125 39q-47 0 -88 -31q-113 -78 -261 -151.5t-296 -139.5l19 -89q8 -40 10 -44z" />
<glyph unicode="&#xea;" horiz-adv-x="1191" d="M-76 301q0 -53 16.5 -91t45.5 -69v2l64 -73q30 -33 58.5 -56.5t62.5 -36t79 -12.5q18 0 41.5 2t54.5 13l-2 -3l267 60l270 59q59 10 81.5 29.5t22.5 67.5q0 53 -19.5 114.5t-43.5 110.5v-2q-18 49 -52 70.5t-90 21.5q-92 0 -175 -12.5t-161 -26.5q4 35 21 83l33 93 q72 16 145.5 29.5t151.5 30.5h-2l107 18q50 8 88 20.5t59.5 32t21.5 55.5q0 23 -8 50l2 -2l-21 88q-10 43 -34 90v-2q-23 51 -58 69.5t-94 18.5h-14q-90 -2 -178 -13l55 160l51 148q127 18 240 31l219 26q68 8 92.5 29.5t24.5 79.5q0 12 -2.5 26.5t-6.5 28.5l2 -2 q-6 35 -14 66.5t-29 78.5v-2q-18 55 -54 82t-101 27h-11q-109 -4 -219 -17.5t-215.5 -34t-202.5 -42.5l-180 -41l-26 -29l-357 -1383q-6 -30 -6 -61zM555 2238q0 -20 9 -41.5t23.5 -42t29.5 -37.5l26 -30l4 -6l23.5 -19.5t34.5 -7.5q41 0 61 35l2 2v2l20 22l21 21v-2l76 86 l84 90q8 -57 16 -108.5t21.5 -93.5t38 -70.5t65.5 -38.5h-2q35 -10 62.5 -12t56.5 -2h6q41 0 59.5 15t18.5 52v12q0 6 -4 17l2 -4l-20 104q-11 59 -21 123l-21 128q-10 65 -16 122q-2 59 -31 96t-72 66v-2q-20 20 -45.5 34.5t-48.5 14.5q-27 0 -65.5 -28t-83.5 -71t-92 -96 l-88 -103l-74 -92l-49 -65q-27 -29 -27 -70z" />
<glyph unicode="&#xeb;" horiz-adv-x="1191" d="M-76 299q0 -53 16.5 -90t45.5 -68v2l64 -73q30 -33 58.5 -56.5t62.5 -36t79 -12.5q39 0 96 15l-2 -3l267 60l270 57q59 12 81.5 31.5t22.5 67.5q0 53 -19.5 114.5t-43.5 108.5v-2q-18 49 -52 70.5t-90 21.5q-92 0 -175 -12.5t-161 -26.5q4 35 20.5 83t33.5 91l145 31 l152 28h-2l104 18.5t88 21t61.5 33t22.5 54.5q0 23 -8 50h2l-21 86q-10 43 -34 90v-2q-23 51 -58 68.5t-94 17.5h-14q-90 -2 -178 -13l55 161l51 147q127 18 239.5 31.5t219.5 23.5q68 8 92.5 30.5t24.5 79.5q0 10 -2.5 26.5t-6.5 29.5l2 -2q-6 35 -14 65.5t-29 77.5v-2 q-18 55 -54 82t-101 27h-11q-109 -4 -219 -18.5t-215.5 -33t-202.5 -41.5l-180 -43l-26 -28l-357 -1377q-6 -30 -6 -61zM387 2161q0 -84 53.5 -134.5t130.5 -50.5h9q68 0 109.5 30t66 67.5t34 71.5t9.5 42v17q0 27 -11.5 58.5t-36 59t-63.5 46t-92 18.5q-84 0 -139.5 -57.5 t-67.5 -130.5v2q-2 -8 -2 -19v-20zM928 2157q0 -84 54 -133.5t132 -49.5h6q51 0 91 22.5t67 52.5t41 59.5t14 45.5q2 8 3 14.5t3 16.5v17q0 27 -12 59.5t-36.5 59t-62.5 45t-91 18.5q-43 0 -78 -15.5t-61.5 -42t-44 -59.5t-21.5 -69q-2 -10 -3 -19.5t-1 -21.5z" />
<glyph unicode="&#xec;" horiz-adv-x="634" d="M-113 178q0 -47 19.5 -76.5t60.5 -56.5h-2q27 -18 60.5 -33.5t68.5 -28t68 -19.5t57 -7q43 0 59.5 19.5t32.5 64.5l62 233l72 270l79 285l81 281l78 255q38 120 71 208q12 39 12 69q0 35 -18.5 62t-59.5 55l2 -2q-29 20 -68.5 43t-81.5 41.5t-82 29.5t-67 11 q-41 0 -66.5 -22.5t-45.5 -75.5q-29 -88 -65 -214l-75 -271l-77 -297l-70 -293q-33 -141 -58.5 -262t-37.5 -203q-4 -16 -6.5 -31t-2.5 -35zM111 2417l14 -41q47 -35 114.5 -76t146.5 -82t164 -81t167 -71q27 -12 59 -12q33 0 69 12.5t77 34.5l-43 64q2 2 10 16t20.5 30.5 t25.5 32t26 17.5q-4 4 -10.5 9t-10.5 9q-135 63 -273.5 140.5t-240.5 163.5q-37 31 -84 30q-27 0 -57.5 -10t-71.5 -29q-47 -20 -69.5 -60t-32.5 -97zM961 2261q20 -25 24 -53q-2 53 -22 53h-2z" />
<glyph unicode="&#xed;" horiz-adv-x="641" d="M-113 178q0 -47 19.5 -76.5t60.5 -56.5h-2q27 -18 61.5 -33.5t70.5 -28t69 -19.5t55 -7q43 0 60.5 19.5t31.5 64.5l63 233l74 270l79 284l82 281l78 255q38 119 71 209q12 39 12 69q0 35 -18.5 61t-59.5 54l2 -2q-31 23 -70.5 45.5t-81.5 40t-82 28.5t-69 11 q-41 0 -66.5 -21.5t-45.5 -74.5q-29 -90 -65 -216l-75 -271l-78 -296q-39 -152 -71 -293l-60 -263q-27 -120 -38 -201q-4 -16 -5.5 -31t-1.5 -35zM221 2157q4 20 15 34q-6 -4 -10.5 -11t-4.5 -23zM236 2191h4q10 0 23 -11t25.5 -24.5t20.5 -24.5t10 -11l-47 -64 q41 -23 76 -36t70 -13q31 0 61 12h-2q86 31 178.5 71t177.5 81t159.5 82t127.5 74l21 36q-4 55 -23.5 94.5t-49.5 64t-64.5 34.5t-67.5 10q-27 0 -46.5 -8t-37.5 -23q-55 -41 -124 -80.5t-142.5 -77.5t-150.5 -73l-150 -68q-31 -20 -49 -45z" />
<glyph unicode="&#xee;" horiz-adv-x="634" d="M-113 178q0 -47 19.5 -76.5t60.5 -56.5h-2q23 -14 55.5 -29.5t67.5 -29t70 -21.5t61 -8q43 0 59.5 19.5t32.5 64.5l62 233l72 270l79 285l81 282l78 255q38 119 71 209q12 39 12 70q0 35 -18.5 61.5t-59.5 54.5l2 -2q-31 23 -70.5 45.5t-80.5 40t-80 28.5t-68 11 q-41 0 -66.5 -22.5t-45.5 -75.5q-29 -88 -65 -214l-75 -270l-77 -297l-70 -294q-33 -141 -58.5 -263t-37.5 -202q-4 -18 -6.5 -33t-2.5 -35zM250 2226q0 -31 17.5 -63.5t42 -59t49 -44t40.5 -17.5q20 0 50 26.5t64 64.5l71 83q37 45 71 82l7 -25l22 -125q10 -55 34.5 -94 t68.5 -60.5t124 -21.5h9q41 0 58 15.5t17 54.5v10q0 6 -4 14l2 -2q-10 45 -20 105l-22 123q-11 63 -19 127.5t-14 122.5q-2 61 -34 101t-67 58l2 -2q-27 23 -50.5 37t-45.5 14q-39 0 -76 -38q-68 -59 -137.5 -133t-127.5 -144t-95 -127t-37 -82z" />
<glyph unicode="&#xef;" horiz-adv-x="636" d="M-113 178q0 -47 19.5 -76.5t60.5 -56.5h-2q23 -16 56.5 -31.5t69.5 -28t71 -20.5t59 -8q43 0 59.5 19.5t30.5 64.5l63 233l73 269l80 283l82 280l77 254q37 119 70 209q14 37 14 69q0 35 -18.5 60.5t-59.5 54.5v-2q-31 23 -70.5 45.5t-81.5 39.5t-81 28.5t-66 11.5 q-41 0 -66.5 -21.5t-45.5 -74.5q-29 -88 -66 -214t-75 -270l-77 -296q-39 -153 -71.5 -294l-58 -261.5t-37.5 -200.5q-4 -18 -6.5 -32t-2.5 -34zM123 2161q0 -84 52 -134.5t130 -50.5h6q68 0 110 30t66.5 67.5t33.5 71.5t9 42v17q0 29 -12 60.5t-36.5 59t-62.5 45t-89 17.5 q-41 0 -76 -15.5t-61.5 -42t-44 -60.5t-23.5 -70v2q-2 -8 -2 -19v-20zM657 2157q0 -84 52.5 -133.5t130.5 -49.5h8q55 0 93 22.5t62.5 53.5t37 60.5t18.5 46.5q2 6 3 12t3 16v17q0 27 -12.5 59.5t-37 59t-62.5 45t-89 18.5q-43 0 -77.5 -15.5t-61.5 -42t-43 -59.5t-20 -69 q-2 -10 -3.5 -19.5t-1.5 -21.5z" />
<glyph unicode="&#xf0;" horiz-adv-x="1273" d="M-147 389q0 -74 15 -144.5t66.5 -123.5t147.5 -86t258 -33h10q109 8 197 32.5t161.5 67.5t136 104.5t118.5 143.5q51 76 104 179.5t96 226.5t71 263t28 290q49 6 90 7t69.5 8t45 24.5t16.5 52.5q0 14 -4 33.5t-15 40.5v-2q-35 78 -83 127t-119 49h-41q-16 74 -31.5 115.5 t-49.5 63t-95.5 28t-170.5 6.5q-121 0 -182 -27t-61 -96q0 -39 12 -72t19 -68h-7q-35 -4 -68.5 -11t-72.5 -17l2 2q-90 -18 -90 -103q0 -51 25.5 -92t44.5 -49l-2 2q4 -2 11 -5t17 -19q35 -47 68 -67.5t72 -20.5q10 0 19 1t24 5q-2 -16 -3 -35q0 -16 -2 -35q-70 16 -135 16 h-33q-94 -4 -165.5 -23.5t-128 -50t-101.5 -72.5t-84 -93v2q-109 -135 -154.5 -279.5t-45.5 -265.5zM342 453q0 66 15.5 130t40 115.5t54 83t58.5 33.5h8q41 0 66.5 -41t25.5 -108q0 -6 -1 -13.5t-1 -13.5q-47 -129 -95 -207t-101 -84h2q-6 -2 -15 -2q-29 0 -43 29t-14 78z " />
<glyph unicode="&#xf1;" horiz-adv-x="1466" d="M-111 186q0 -45 17.5 -73.5t56.5 -55.5l-2 2q39 -31 86 -47t94 -30l23 -7l36 -7q15 -3 27 -3q41 0 58.5 20.5t31.5 61.5q16 72 40 162l52 191l58 211l61 223q29 -178 62 -342t69 -281q18 -59 53.5 -98t80.5 -64.5t98 -42t106 -29.5q25 -6 54 -6q102 0 123 101l-3 -2 l61 236l70 264l73 276l76 271l73 252l65 216q14 41 15 76q0 47 -33 83t-78 61.5t-92 42t-78 24.5q-18 2 -33.5 5t-25.5 3q-47 0 -76 -23.5t-45 -76.5q-53 -162 -109.5 -356.5t-109.5 -405.5l-17 165l-15 153l-12.5 133.5t-7.5 101.5q-6 86 -31.5 130t-95.5 73h3 q-35 18 -77 36.5t-87 34t-86 25.5t-72 10q-45 0 -77 -23.5t-54 -78.5q-35 -100 -74 -235l-80 -282l-80 -302l-72 -287q-34 -135 -58.5 -244t-34.5 -170l2 2q-6 -23 -7.5 -40.5t-1.5 -33.5zM485 2130q0 -98 131 -98q45 0 78 10t70 39q20 16 47 33.5t43 17.5q61 0 104 -16.5 t85 -37t93.5 -37t129.5 -16.5q104 0 241 97l-2 -2q78 49 114 96t40 88v8q0 27 -14.5 46.5t-36 33.5t-48 21.5t-51.5 7.5q-31 0 -58.5 -12.5t-57.5 -34.5l-21 -15q-10 -10 -22 -20l-24 -21q-11 -10 -17 -16l-6 -6h-3q-27 2 -53 11t-52 22l-53 25q-28 13 -55 22h5 q-47 18 -91.5 27.5t-91.5 9.5q-39 0 -97 -19.5t-117.5 -48.5t-109.5 -61.5t-69 -59.5q-31 -47 -31 -88v-6z" />
<glyph unicode="&#xf2;" d="M-2 594q0 -301 137 -451.5t412 -177.5h-2q45 -6 90 -6q133 0 243.5 66.5t197.5 177t151.5 252t107.5 290t63.5 294t20.5 261.5q0 70 -6 131.5t-22.5 117t-47 105.5t-81.5 93q-33 29 -82.5 55.5t-105.5 48t-116.5 33.5t-115.5 12q-74 0 -154 -27.5t-141 -72.5 q-129 -102 -231.5 -244.5t-173 -304.5t-107.5 -329.5t-37 -323.5zM469 2365l14 -45q49 -33 118 -73.5t148.5 -81.5t164.5 -80t169 -70q16 -6 29.5 -9t32.5 -3q35 0 69.5 12.5t79.5 34.5l-53 55q0 2 6 15.5l14.5 33l18.5 41t20 37.5l-137 66q-70 35 -137.5 72.5t-128.5 77.5 t-111 81q-35 31 -86 31q-31 0 -66.5 -10t-68.5 -33t-58.5 -60t-37.5 -92zM483 502q0 98 24.5 222t65.5 232q33 90 78 184.5t93.5 172.5t93.5 128t77 50h3q16 -6 23 -46t7 -102q0 -115 -20.5 -234.5t-54 -231t-76.5 -211t-88 -173t-87 -116.5t-75 -43q-35 0 -49.5 48 t-14.5 120zM1300 2232q2 -2 5 -2q2 0 6 -2q41 -29 47 -71q-2 57 -9.5 79.5t-17.5 22.5q-15 0 -31 -27z" />
<glyph unicode="&#xf3;" d="M-2 594q0 -301 137 -451.5t412 -177.5h-2q45 -6 90 -6q133 0 243.5 66.5t197.5 177t151.5 252t107.5 290t63.5 294t20.5 261.5q0 70 -6 131.5t-22.5 117t-47 105.5t-81.5 93q-33 29 -82.5 55.5t-105.5 48t-116.5 33.5t-115.5 12q-74 0 -154 -27.5t-141 -72.5 q-129 -102 -231.5 -244.5t-173 -304.5t-107.5 -329.5t-37 -323.5zM449 2154q4 18 21 44t56 40q-6 27 -13 54l-13 48q-6 22 -13.5 35t-13.5 13q-10 0 -17 -52.5t-7 -181.5zM483 502q0 98 24.5 222t65.5 232q33 90 78 184.5t93.5 172.5t93.5 128t77 50h3q16 -6 23 -46t7 -102 q0 -115 -20.5 -234.5t-54 -231t-76.5 -211t-88 -173t-87 -116.5t-75 -43q-35 0 -49.5 48t-14.5 120zM500 2052q39 -23 74.5 -36t70.5 -13q31 0 62 12q88 31 180 70t178 80t162 82t129 73l18 37q-4 63 -19.5 103.5t-62.5 60.5h4q-72 39 -127 39q-45 0 -86 -31 q-113 -78 -261 -151.5t-296 -139.5l17.5 -89t9.5 -44z" />
<glyph unicode="&#xf4;" d="M-2 594q0 -299 137 -450.5t412 -178.5h-2q45 -6 90 -6q135 0 245.5 67.5t197.5 177t151.5 252t106.5 291t62.5 294t20.5 262.5q0 70 -5 132t-22.5 117.5t-48 105.5t-81.5 93q-33 29 -82.5 55.5t-105.5 48t-116.5 34t-115.5 12.5q-74 0 -154 -28t-141 -73 q-129 -104 -231.5 -247.5t-173 -304.5t-107.5 -329.5t-37 -324.5zM483 504q0 98 24.5 221t65.5 233q33 90 78 184.5t93.5 172.5t93.5 128t77 50h3q16 -4 23 -45t7 -100q0 -115 -20.5 -235t-54 -232.5t-76.5 -212t-88 -174t-87 -117.5t-75 -43q-35 0 -49.5 49t-14.5 121z M657 2198q0 -35 17.5 -69t42 -59.5t50.5 -41t42 -15.5q20 0 51 26.5t67 65.5t72.5 84t73.5 82q8 -35 12.5 -83t15.5 -95t36.5 -85t76.5 -50l-2 2q35 -10 61.5 -13t55.5 -3h6q41 0 59.5 15t18.5 54v10q0 8 -4 17l2 -2l-6 28l-38 215q-22 123 -32 232q-4 68 -34.5 101.5 t-67.5 58.5q-20 16 -47 32.5t-49 16.5q-27 0 -66 -28t-84 -72t-93 -96t-90 -103l-76 -94q-34 -43 -50 -66q-21 -30 -21 -65z" />
<glyph unicode="&#xf5;" horiz-adv-x="1445" d="M-2 592q0 -293 136 -446.5t417 -180.5h-2q45 -6 92 -6q135 0 245.5 66.5t199 176t153 251t107.5 290t63.5 294t20.5 261.5q0 72 -6.5 134.5t-23 117t-48 103.5t-82.5 92q-33 27 -81 53.5t-104.5 48t-117 33.5t-117.5 12q-72 0 -156 -25.5t-143 -72.5 q-131 -102 -233.5 -245.5t-173 -304.5t-108.5 -329.5t-38 -322.5zM483 2130q0 -98 131 -98q45 0 78 10t70 39q20 16 47 33.5t41 17.5q63 0 106 -16.5t85 -37t92.5 -37t130.5 -16.5q104 0 239 99l-2 -2q76 47 112 94t40 90v6q0 25 -13.5 45.5t-35 34.5t-47 21.5t-52.5 7.5 q-31 0 -58.5 -12.5t-57.5 -34.5l-21 -15q-10 -10 -22 -20l-24 -21q-11 -10 -17 -16l-7 -6q-55 4 -107 34.5t-106 45.5h5q-49 18 -92.5 27.5t-90.5 9.5q-39 0 -97 -19.5t-117.5 -48.5t-108.5 -61.5t-68 -59.5q-33 -45 -33 -88v-6zM487 502q0 98 25 220t66 232 q33 90 78.5 184.5t94 172.5t93.5 128t80 50h2q16 -6 23 -46t7 -102q0 -113 -20.5 -231.5t-54 -230t-77.5 -211t-89 -174t-88 -117.5t-76 -43q-35 0 -49.5 48t-14.5 120z" />
<glyph unicode="&#xf6;" d="M-2 592q0 -293 135 -446.5t414 -180.5h-2q45 -6 90 -6q135 0 245.5 66.5t197.5 176t151.5 251t107.5 290t63.5 294t20.5 261.5q0 68 -6 130.5t-23.5 118t-48 104.5t-81.5 92q-33 29 -81 55.5t-104.5 48t-117 33.5t-115.5 12q-72 0 -155 -26.5t-142 -73.5 q-131 -102 -233.5 -244.5t-172 -304.5t-106.5 -329.5t-37 -321.5zM485 502q0 98 23.5 221t64.5 231q33 90 79 184.5t93.5 172.5t93.5 127t79 49h2q16 -4 23 -44t7 -102q0 -113 -20.5 -231.5t-54 -230t-76.5 -211t-88 -174t-88 -117.5t-76 -43h-10q-29 10 -40.5 55t-11.5 113 zM492 2163q0 -86 53 -136.5t131 -50.5h8q68 0 111 31t67.5 69t34.5 71.5t10 39.5v17q0 27 -12 59.5t-36.5 59t-63.5 45t-93 18.5q-41 0 -76.5 -15.5t-62 -42t-45 -59.5t-24.5 -69q-2 -10 -2 -37zM1032 2157q0 -84 54.5 -133.5t132.5 -49.5h8q43 0 77.5 16.5t61.5 41t45.5 52 t24.5 48.5v6q4 14 6 24.5t4 24.5v15q0 29 -12.5 60.5t-37 59t-62.5 45t-91 17.5q-43 0 -78 -15.5t-62.5 -42t-44 -59.5t-22.5 -69q-2 -10 -3 -19.5t-1 -21.5z" />
<glyph unicode="&#xf7;" horiz-adv-x="1509" d="M104 901q0 -37 20.5 -86t53.5 -93t71 -75t75 -31h22q14 0 27 2q123 23 201.5 41.5l134.5 32.5h-2l75 16q35 7 70 13t77 10t101.5 6t139 4t190.5 4q53 0 77.5 15.5t24.5 60.5q0 -2 -8 42t-30.5 97.5t-66.5 98.5t-114 45q-141 0 -237.5 -2t-168 -7t-131 -13.5t-125.5 -19.5 l-152 -27l-210 -36q-45 -6 -80 -27.5t-35 -70.5zM481 383q0 -104 67.5 -166.5t166.5 -62.5h12q88 0 141.5 37.5t83 85t41 90.5t11.5 53v14q0 35 -14.5 74t-45.5 72.5t-79 56t-115 22.5q-53 0 -99.5 -19t-81 -51t-56 -74t-28.5 -87q-2 -10 -3 -21.5t-1 -23.5zM651 1366 q0 -104 64.5 -164.5t163.5 -60.5h16q82 0 136 35.5t86 82t44.5 89.5t12.5 59v16q0 33 -14.5 73t-46.5 74t-80 56.5t-115 22.5q-55 0 -100.5 -19.5t-79 -51.5t-54 -75t-29.5 -88q-2 -10 -3 -21.5t-1 -27.5z" />
<glyph unicode="&#xf8;" horiz-adv-x="1439" d="M-2 592q0 -135 27.5 -249t99.5 -196q-4 -4 -7 -10t-7 -12l2 2l-27 -52l-23 -42v2q-31 -61 -30 -115q4 -20 10 -40.5t20 -37.5l-4 -12q4 -2 8.5 -3t14.5 -7h-2q20 -14 38.5 -19.5t37.5 -5.5q59 0 96 74l-2 -2l37 64l45 77q76 -27 158.5 -38t146.5 -11q135 0 245.5 66.5 t197.5 176t151.5 251t106.5 290t62.5 292t22.5 259.5q0 98 -14 181.5t-57 158.5q63 100 104 156.5t41 103.5q0 37 -35 82l17 17l-72 48q-39 26 -74 25q-66 0 -110 -71l2 4l-45 -68l-62 -90q-2 -4 -3 -7t-5 -7q-63 23 -132 42t-134 19q-72 0 -155 -25.5t-142 -72.5 q-129 -102 -231.5 -244.5t-172 -303.5t-107.5 -328.5t-38 -321.5zM532 336l141 228l150 241l60 94l-7.5 -23.5t-7.5 -21.5q-35 -111 -76.5 -206t-84.5 -165.5t-84 -110.5t-76 -40q-2 0 -7.5 1t-7.5 3zM565 926l4 12q2 6 6 14q31 80 70 165t82 158t84 127t76 73l-158 -270z " />
<glyph unicode="&#xf9;" horiz-adv-x="1402" d="M-16 516q0 -145 39 -248q66 -168 204 -237.5t338 -69.5q78 0 144.5 16.5t132.5 53.5q111 70 203 213t170.5 345t149.5 456.5t140 547.5q6 18 8.5 33.5t2.5 30.5q0 35 -16.5 60.5t-61.5 56.5l-71 38q-38 20 -76 37t-73.5 28t-66.5 11q-45 0 -77 -22.5t-42 -79.5l2 4 l-64 -266q-38 -152 -83 -312.5t-95.5 -317.5t-100.5 -281t-100 -199.5t-95 -75.5q-20 0 -28.5 28.5t-8.5 75.5q0 92 29.5 226.5t75.5 282t98.5 294t99.5 262.5l-2 -2q18 45 18 86q0 53 -36.5 102.5t-90 88.5t-114 61.5t-109.5 22.5q-41 0 -66.5 -21.5t-46.5 -70.5 q-59 -147 -117.5 -311.5t-106.5 -330t-77.5 -324.5t-29.5 -292zM471 2365l14 -45q49 -33 118 -73.5t148.5 -81.5t167 -80t171.5 -70q27 -12 59 -12q35 0 70.5 12.5t78.5 34.5l-51 55q0 2 5 15.5t13.5 33t19.5 41t22 37.5q-137 61 -276.5 138t-242.5 159q-35 31 -83 31 q-51 0 -127 -37q-47 -18 -71 -58.5t-36 -99.5zM1307 2232q2 -2 4 -2t6 -2q39 -31 45 -67q0 53 -7 75.5t-18 22.5q-14 0 -30 -27z" />
<glyph unicode="&#xfa;" horiz-adv-x="1402" d="M-16 516q0 -145 39 -248q66 -168 204 -237.5t338 -69.5q78 0 144.5 16.5t132.5 53.5q111 70 203 213t170.5 345t149.5 456.5t140 547.5q6 18 8.5 33.5t2.5 30.5q0 35 -16.5 60.5t-61.5 56.5l-71 38q-38 20 -76 37t-73.5 28t-66.5 11q-45 0 -77 -22.5t-42 -79.5l2 4 l-64 -266q-38 -152 -83 -312.5t-95.5 -317.5t-100.5 -281t-100 -199.5t-95 -75.5q-20 0 -28.5 28.5t-8.5 75.5q0 92 29.5 226.5t75.5 282t98.5 294t99.5 262.5l-2 -2q18 45 18 86q0 53 -36.5 102.5t-90 88.5t-114 61.5t-109.5 22.5q-41 0 -66.5 -21.5t-46.5 -70.5 q-59 -147 -117.5 -311.5t-106.5 -330t-77.5 -324.5t-29.5 -292zM451 2154q4 18 21 44t56 40q-6 27 -13 54l-13 48q-6 22 -13.5 35t-13.5 13q-10 0 -17 -52.5t-7 -181.5zM502 2052q41 -23 75.5 -36t69.5 -13q31 0 62 12q88 31 180 70t179 80t163 82l131 73l18 37 q-4 63 -20.5 103.5t-63.5 60.5h4q-72 39 -126 39q-45 0 -87 -31q-113 -78 -262 -151.5t-297 -139.5l19 -89q8 -40 10 -44z" />
<glyph unicode="&#xfb;" horiz-adv-x="1402" d="M-16 518q0 -147 39 -250q66 -166 202.5 -236.5t339.5 -70.5q78 0 144.5 16.5t132.5 53.5q111 70 203 213t170.5 345t149.5 456.5t140 549.5q6 20 8.5 36t2.5 28q0 35 -16.5 61.5t-61.5 57.5l-71 39q-38 20 -76 36.5t-73.5 27.5t-66.5 11q-45 0 -77 -22.5t-42 -81.5l2 4 l-64 -264q-38 -152 -83 -313.5t-95.5 -319.5t-100.5 -282t-100 -199.5t-95 -75.5q-20 0 -28.5 28.5t-8.5 77.5q0 92 29.5 226.5t75.5 282t98.5 294t99.5 262.5l-2 -2q18 49 18 86q0 55 -36.5 104.5t-90 88.5t-114 61.5t-109.5 22.5q-41 0 -66.5 -21.5t-46.5 -70.5 q-59 -147 -117.5 -312.5t-106.5 -331t-77.5 -324.5t-29.5 -292zM557 2238q0 -18 9 -39.5t23.5 -42t29 -39t26.5 -30.5l4 -6q16 -12 24.5 -19.5t35.5 -7.5q31 0 55 28l49 56v-2l76 84l84 90q8 -57 16 -108.5t21.5 -93.5t38 -70.5t65.5 -38.5h-2q35 -10 63.5 -12t55.5 -2h8 q41 0 59.5 15t18.5 52v12q0 6 -4 17l2 -4q-10 45 -21.5 104.5t-21.5 122.5l-19.5 128t-15.5 122q-2 59 -31.5 97t-72.5 65v-2q-20 20 -46 34.5t-49 14.5q-39 0 -75 -39q-68 -59 -140.5 -133t-131 -144.5t-96.5 -127t-38 -81.5z" />
<glyph unicode="&#xfc;" horiz-adv-x="1402" d="M-16 516q0 -150 39 -248q66 -168 204 -237.5t338 -69.5q78 0 144.5 16.5t132.5 53.5q111 70 203 212t170.5 343.5t149.5 455.5t140 547q6 18 8.5 33.5t2.5 30.5q0 35 -16.5 60.5t-61.5 55.5l-71 39q-38 20 -76 37t-73.5 28t-66.5 11q-45 0 -77 -22.5t-42 -79.5l2 4 l-64 -264q-38 -152 -83 -312.5t-95.5 -317.5t-100.5 -281t-100 -199.5t-95 -75.5q-20 0 -28.5 29.5t-8.5 76.5q0 92 29.5 225.5t75.5 280t98.5 292.5t99.5 263l-2 -2q18 49 18 86q0 53 -36.5 103.5t-90 88.5t-114 60.5t-109.5 22.5q-41 0 -66.5 -21.5t-46.5 -71.5 q-59 -147 -117.5 -311t-106.5 -328.5t-77.5 -322.5t-29.5 -291zM479 2163q0 -86 53.5 -136.5t131.5 -50.5h8q68 0 110.5 31t67 69t35 71.5t10.5 39.5v17q0 27 -12.5 59.5t-38 59t-64.5 45t-92 18.5q-41 0 -77 -15.5t-62.5 -42t-45 -59.5t-24.5 -69v-37zM1020 2157 q0 -84 55 -133.5t133 -49.5h6q43 0 78 16.5t62.5 41t45 52t25.5 48.5v6q4 14 6.5 24.5t4.5 24.5v15q0 27 -12.5 59.5t-37 59t-63.5 45t-92 18.5q-43 0 -78 -15.5t-62.5 -42t-44 -59.5t-22.5 -69q-2 -10 -3 -19.5t-1 -21.5z" />
<glyph unicode="&#xfd;" horiz-adv-x="1339" d="M141 1804q0 -27 6 -53l41 -231l50 -263l56 -272l60 -262l-42 -166q-19 -80 -33 -151l2 2q-16 -70 -34 -134.5t-18 -113.5t26 -84t66.5 -59.5t90.5 -42.5l98 -33q37 -12 61 -13q41 0 59.5 20.5t33.5 61.5q31 135 67.5 270.5t83.5 278.5l193 284l186 279q88 133 155.5 247 t102.5 187q16 33 25.5 58.5t9.5 52.5q0 25 -25.5 68t-66.5 83t-92.5 69.5t-100.5 29.5q-31 0 -56.5 -15.5t-41.5 -54.5l-188 -306l-195 -306q-31 147 -62 279l-55 233q-10 33 -20.5 56.5t-25.5 40t-37.5 27.5t-57.5 19l2 -2q-31 8 -56.5 10.5t-50.5 2.5q-113 0 -165 -19 t-52 -78zM449 2154q4 23 20 43.5t55 40.5q-12 55 -25.5 102.5t-25.5 47.5q-10 0 -17 -51.5t-7 -182.5zM498 2054q80 -49 145 -49q27 0 62 10q86 31 178 70t178 80t161.5 82t129.5 75l18 35q-4 63 -19.5 103.5t-62.5 62.5h4q-74 37 -127 37q-25 0 -46 -8t-40 -21 q-113 -80 -260 -153.5t-295 -139.5l19 -89q8 -40 10 -44z" />
<glyph unicode="&#xfe;" horiz-adv-x="1361" d="M-115 176q0 -84 82 -131h-2q25 -16 58.5 -31.5t70.5 -28t72 -20.5t57 -8q39 0 59.5 20.5t33 54.5t20.5 76t20 85q195 57 381.5 144t333 194.5t236.5 230.5t90 252q0 74 -19.5 138.5t-50.5 120.5t-66.5 102t-68.5 83q-53 57 -126 81t-159 24q-72 0 -141 -13q0 4 2 6v-2 q12 39 12 70q0 35 -18.5 60.5t-61.5 54.5l2 -2q-31 23 -70.5 44t-82.5 38.5t-83 29t-69 11.5q-41 0 -66.5 -21.5t-47.5 -75.5q-29 -88 -66 -213l-76 -267l-78 -293l-72 -290q-34 -139 -59.5 -258.5t-37.5 -199.5q-4 -18 -6.5 -32t-2.5 -34zM508 690l64 198l65 181 q66 29 129 40t111 11q39 0 55 -2t21 -6t3 -10t-2 -12q0 -37 -28.5 -88.5t-86 -105.5t-140 -108.5t-191.5 -97.5z" />
<glyph unicode="&#xff;" horiz-adv-x="1339" d="M141 1800q0 -27 6 -51l41 -231q23 -127 51 -263l56 -272q29 -137 59 -262l-42 -166q-19 -80 -33 -152l2 3q-16 -70 -34 -132.5t-18 -115.5q0 -49 26 -83t66.5 -58.5t90.5 -42.5l98 -33q37 -12 61 -13q41 0 59.5 20.5t33.5 61.5q31 135 67.5 270.5t83.5 278.5l193 283 l186 278q88 133 155.5 247t102.5 187q16 31 25.5 56.5t9.5 52.5q0 25 -25.5 68t-66.5 82.5t-92.5 69.5t-100.5 30q-31 0 -57.5 -15.5t-42.5 -56.5l2 2q0 -2 -2 -2v-2v2l-187 -305l-194 -303q-31 147 -62 279l-55 233q-10 31 -20.5 54.5t-25.5 39.5t-37.5 27.5t-57.5 19.5 l2 -2q-31 8 -56.5 10t-50.5 2q-113 0 -165 -18.5t-52 -77.5zM387 2163q0 -84 52.5 -134.5t129.5 -50.5h9q68 0 109.5 29t66 65.5t34 70.5t9.5 44v17q0 29 -12.5 60.5t-37 59t-62.5 45t-91 17.5q-82 0 -138.5 -56.5t-68.5 -131.5v-35zM926 2159q0 -84 53 -133.5t131 -49.5h8 q55 0 93 22.5t62.5 52.5t38 59.5t19.5 46.5q0 8 1 14t3 14v17q0 29 -12 61.5t-36.5 59t-62.5 44t-91 17.5q-41 0 -77 -15.5t-62.5 -41t-43 -59.5t-22.5 -70q-2 -10 -2 -19v-20z" />
<glyph unicode="&#x152;" horiz-adv-x="2031" d="M-2 588q0 -297 141.5 -446.5t417.5 -176.5h-2q20 -4 43 -4h43q156 0 281 78l18 -12l-2 2q14 -8 27.5 -17.5t29 -17.5t35 -13.5t47.5 -5.5q23 0 47.5 3.5t57.5 13.5l-2 -2l269 57l277 59q59 10 83 31t24 68q0 8 -1 16t-3 19l-14 51q-10 35 -21.5 66.5t-28.5 66.5v-2 q-20 49 -54 69.5t-89 20.5q-96 0 -181 -10t-163 -27l26 86q13 43 29 90l237 44l236 44q59 12 84 29.5t25 65.5q0 18 -8 49l2 -2q-8 45 -19.5 87t-38.5 89l2 -6q-20 53 -56 70.5t-99 17.5h-15q-47 0 -92 -3t-88 -8l55 154q26 76 54 148q129 18 244.5 32.5t222.5 24.5 q70 8 94.5 30.5t24.5 75.5q0 96 -54 201l2 -8q-33 111 -157 110h-11q-201 -10 -402.5 -43.5t-365.5 -74.5q-63 35 -139 59.5t-153 34.5h-3q-10 2 -25.5 3t-31.5 1q-72 0 -157 -25.5t-144 -72.5q-133 -102 -236.5 -243.5t-175 -301.5t-109.5 -326.5t-38 -318.5zM494 498 q0 98 24.5 219t65.5 229q33 88 80 182.5t96 172t95 127t79 49.5q2 0 -2 2l6 -2q16 -4 22.5 -43t6.5 -99q0 -59 -9.5 -135t-27.5 -156l2 3l-49 -189q0 -4 -1 -6t-1 -4v-4q-35 -109 -77 -203t-86 -163.5t-86 -108.5t-75 -39q-35 0 -49 48t-14 120z" />
<glyph unicode="&#x153;" horiz-adv-x="2031" d="M-2 588q0 -297 141.5 -446.5t417.5 -176.5h-2q20 -4 43 -4h43q156 0 281 78l18 -12l-2 2q14 -8 27.5 -17.5t29 -17.5t35 -13.5t47.5 -5.5q23 0 47.5 3.5t57.5 13.5l-2 -2l269 57l277 59q59 10 83 31t24 68q0 8 -1 16t-3 19l-14 51q-10 35 -21.5 66.5t-28.5 66.5v-2 q-20 49 -54 69.5t-89 20.5q-96 0 -181 -10t-163 -27l26 86q13 43 29 90l237 44l236 44q59 12 84 29.5t25 65.5q0 18 -8 49l2 -2q-8 45 -19.5 87t-38.5 89l2 -6q-20 53 -56 70.5t-99 17.5h-15q-47 0 -92 -3t-88 -8l55 154q26 76 54 148q129 18 244.5 32.5t222.5 24.5 q70 8 94.5 30.5t24.5 75.5q0 96 -54 201l2 -8q-33 111 -157 110h-11q-201 -10 -402.5 -43.5t-365.5 -74.5q-63 35 -139 59.5t-153 34.5h-3q-10 2 -25.5 3t-31.5 1q-72 0 -157 -25.5t-144 -72.5q-133 -102 -236.5 -243.5t-175 -301.5t-109.5 -326.5t-38 -318.5zM494 498 q0 98 24.5 219t65.5 229q33 88 80 182.5t96 172t95 127t79 49.5q2 0 -2 2l6 -2q16 -4 22.5 -43t6.5 -99q0 -59 -9.5 -135t-27.5 -156l2 3l-49 -189q0 -4 -1 -6t-1 -4v-4q-35 -109 -77 -203t-86 -163.5t-86 -108.5t-75 -39q-35 0 -49 48t-14 120z" />
<glyph unicode="&#x178;" horiz-adv-x="1339" d="M141 1800q0 -27 6 -51l41 -231q23 -127 51 -263l56 -272q29 -137 59 -262l-42 -166q-19 -80 -33 -152l2 3q-16 -70 -34 -132.5t-18 -115.5q0 -49 26 -83t66.5 -58.5t90.5 -42.5l98 -33q37 -12 61 -13q41 0 59.5 20.5t33.5 61.5q31 135 67.5 270.5t83.5 278.5l193 283 l186 278q88 133 155.5 247t102.5 187q16 31 25.5 56.5t9.5 52.5q0 25 -25.5 68t-66.5 82.5t-92.5 69.5t-100.5 30q-31 0 -57.5 -15.5t-42.5 -56.5l2 2q0 -2 -2 -2v-2v2l-187 -305l-194 -303q-31 147 -62 279l-55 233q-10 31 -20.5 54.5t-25.5 39.5t-37.5 27.5t-57.5 19.5 l2 -2q-31 8 -56.5 10t-50.5 2q-113 0 -165 -18.5t-52 -77.5zM387 2163q0 -84 52.5 -134.5t129.5 -50.5h9q68 0 109.5 29t66 65.5t34 70.5t9.5 44v17q0 29 -12.5 60.5t-37 59t-62.5 45t-91 17.5q-82 0 -138.5 -56.5t-68.5 -131.5v-35zM926 2159q0 -84 53 -133.5t131 -49.5h8 q55 0 93 22.5t62.5 52.5t38 59.5t19.5 46.5q0 8 1 14t3 14v17q0 29 -12 61.5t-36.5 59t-62.5 44t-91 17.5q-41 0 -77 -15.5t-62.5 -41t-43 -59.5t-22.5 -70q-2 -10 -2 -19v-20z" />
<glyph unicode="&#x2c6;" horiz-adv-x="1314" d="M528 2068q0 -18 9.5 -37.5t21.5 -39t26.5 -36t24.5 -26.5l4 -4q14 -14 23.5 -20.5t32.5 -6.5q33 0 54 26l44 52v-2l73 79l79 83l16 -98q8 -47 20.5 -86t35 -66.5t63.5 -36.5h-2q31 -10 58.5 -12t51.5 -2h8q74 0 74 61v13q0 6 -4 16l2 -4l-18 97l-22 113q-11 58 -19 116.5 l-15 111.5q-2 55 -30.5 92t-65.5 60v-2q-20 16 -43.5 30.5t-46.5 14.5q-37 0 -74 -37v2q-51 -43 -103 -96l-100 -106l-89 -100l-66 -83q-12 -14 -17.5 -32t-5.5 -34z" />
<glyph unicode="&#x2dc;" horiz-adv-x="1513" d="M473 1759q0 -41 34 -61.5t95 -20.5q39 0 73 13.5t62 28.5l53 29q24 13 44 13q61 0 102 -13t82 -30.5t91 -31t128 -13.5q53 0 111.5 19.5t124.5 60.5l-3 -2q74 41 110 79t40 73v6q0 20 -13.5 37.5t-35 29t-47 17.5t-49.5 6q-31 0 -58.5 -10.5t-56.5 -28.5l-21 -12l-22 -18 l-23 -17l-16 -13l-6 -6q-53 4 -104.5 29t-104.5 39h4q-47 16 -89 22.5t-89 6.5q-37 0 -95.5 -16.5t-115.5 -40t-106.5 -50t-67.5 -49.5q-31 -37 -31 -72v-4z" />
<glyph unicode="&#x2000;" horiz-adv-x="1384" />
<glyph unicode="&#x2001;" horiz-adv-x="2770" />
<glyph unicode="&#x2002;" horiz-adv-x="1384" />
<glyph unicode="&#x2003;" horiz-adv-x="2770" />
<glyph unicode="&#x2004;" horiz-adv-x="923" />
<glyph unicode="&#x2005;" horiz-adv-x="692" />
<glyph unicode="&#x2006;" horiz-adv-x="460" />
<glyph unicode="&#x2007;" horiz-adv-x="460" />
<glyph unicode="&#x2008;" horiz-adv-x="346" />
<glyph unicode="&#x2009;" horiz-adv-x="552" />
<glyph unicode="&#x200a;" horiz-adv-x="153" />
<glyph unicode="&#x2010;" horiz-adv-x="1202" d="M-131 1012q0 -41 27.5 -96.5t68.5 -105.5t87 -85t83 -35q20 0 45 8q147 35 317.5 53.5t336.5 28.5q53 2 77.5 17.5t24.5 56.5q0 -2 -5 20.5t-16.5 57.5t-30 76t-46 76.5t-65.5 60t-89 24.5q-92 0 -193.5 -6t-198.5 -15t-184.5 -21.5t-148.5 -24.5q-90 -16 -90 -90z" />
<glyph unicode="&#x2011;" horiz-adv-x="1202" d="M-131 1012q0 -41 27.5 -96.5t68.5 -105.5t87 -85t83 -35q20 0 45 8q147 35 317.5 53.5t336.5 28.5q53 2 77.5 17.5t24.5 56.5q0 -2 -5 20.5t-16.5 57.5t-30 76t-46 76.5t-65.5 60t-89 24.5q-92 0 -193.5 -6t-198.5 -15t-184.5 -21.5t-148.5 -24.5q-90 -16 -90 -90z" />
<glyph unicode="&#x2012;" horiz-adv-x="1202" d="M-131 1012q0 -41 27.5 -96.5t68.5 -105.5t87 -85t83 -35q20 0 45 8q147 35 317.5 53.5t336.5 28.5q53 2 77.5 17.5t24.5 56.5q0 -2 -5 20.5t-16.5 57.5t-30 76t-46 76.5t-65.5 60t-89 24.5q-92 0 -193.5 -6t-198.5 -15t-184.5 -21.5t-148.5 -24.5q-90 -16 -90 -90z" />
<glyph unicode="&#x2013;" horiz-adv-x="1728" d="M29 813q0 -27 26.5 -69t71.5 -82.5t101.5 -70.5t117.5 -30q18 0 31.5 1t30.5 1q240 31 508 46.5t522 23.5q78 2 115.5 17.5t37.5 56.5q0 20 -8 34q-4 18 -23.5 61.5t-48.5 80.5l2 -2q-57 78 -213 77q-141 0 -297.5 -5t-308 -12t-286 -17.5t-232.5 -20.5 q-147 -12 -147 -90z" />
<glyph unicode="&#x2014;" horiz-adv-x="2682" d="M31 813q0 -31 28.5 -75t74.5 -84t103.5 -67.5t116.5 -27.5q16 0 30.5 1t31.5 3q61 8 169.5 14.5t248 11.5t301.5 9l328 8q167 4 331 7l306.5 5.5l256 4.5t180.5 4q78 2 119 18.5t41 56.5q0 23 -8 33l-12 31q-10 27 -24.5 54.5t-39.5 56.5l2 -3q-59 80 -217 80 q-72 0 -193.5 -1t-276 -3t-330.5 -5l-353 -6q-178 -3 -348 -7t-313.5 -9t-250 -10.5t-155.5 -9.5q-147 -12 -147 -90z" />
<glyph unicode="&#x2018;" horiz-adv-x="733" d="M236 1858q0 -45 12 -113t32.5 -138.5t44 -136t46.5 -104.5v2q39 -88 110 -117l-2 2q33 -16 79 -26t81 -10q80 0 80 75q0 16 -8 41q-14 55 -33 137l-38 170l-37 174l-30 148q-18 90 -96 90q-25 0 -49 -8l-39 -19l2 3q-96 -41 -125.5 -82t-29.5 -88z" />
<glyph unicode="&#x2019;" horiz-adv-x="653" d="M238 1323q0 -78 92 -78h4q49 0 88 5t69.5 18.5t55 37t47.5 62.5h2q20 39 45 102.5t46.5 133t36.5 135t15 108.5q0 33 -22.5 71t-59 70.5t-83 54t-91.5 21.5q-33 0 -53 -19.5t-31 -66.5l2 2l-33 -147l-41 -170l-43 -165l-38 -132q-4 -14 -6 -23.5t-2 -19.5z" />
<glyph unicode="&#x201a;" horiz-adv-x="653" d="M109 -250q0 -78 86 -78h12q49 0 87 4.5t68.5 17.5t55 36.5t47.5 62.5l2 4q18 39 43 102.5t46.5 132t36.5 134t15 108.5q0 63 -56 115.5t-134 85.5v-2q-35 16 -64 16q-35 0 -54 -19t-30 -67v3l-33 -147l-41 -169l-43 -165l-36 -132q-8 -18 -8 -43z" />
<glyph unicode="&#x201c;" horiz-adv-x="1177" d="M172 1874q0 -43 21.5 -108.5t52 -136t67.5 -136.5t68 -107q55 -78 124.5 -98t158.5 -22h12q86 0 86 71q0 33 -28.5 102.5l-57.5 147.5l-85 221q-44 113 -67 195q-29 84 -98 84q-35 0 -78 -18.5t-83 -48t-66.5 -68.5t-26.5 -78zM666 1868q0 -16 2 -28.5t6 -29.5v5 q4 -49 18.5 -112t35 -125t44 -118.5t45.5 -91.5v2q27 -45 52.5 -71.5t66.5 -43.5l-2 2q37 -16 85 -26t89 -10q86 0 86 73q0 10 -3 20.5t-5 22.5q-16 55 -37 137l-41 168l-40 175q-19 86 -32 151q-18 90 -104 90q-45 0 -92 -17.5t-86 -45t-63.5 -61t-24.5 -66.5z" />
<glyph unicode="&#x201d;" horiz-adv-x="1165" d="M256 1323q0 -78 98 -78h6q57 0 100.5 6t75 19.5t56 38t47.5 61.5h2q23 39 49.5 101.5t50 132t40 135t16.5 110.5q0 33 -17.5 64t-46 55.5t-66.5 45t-77 36.5v-2q-23 10 -38 14t-30 4q-35 0 -58.5 -19t-33.5 -67l2 2q-14 -63 -36 -147l-45 -170l-46 -166l-39 -133 q-10 -27 -10 -43zM688 1321q0 -84 168 -84q18 0 37.5 1t40.5 7h-2q47 8 77.5 29.5t63.5 64.5l-2 -2q33 39 72 105.5t71.5 139.5t55 138.5t22.5 102.5v4q-2 47 -49 94l2 -2q-25 27 -60.5 51.5t-70.5 44.5h2q-41 25 -78 25q-70 0 -94 -76q-20 -61 -52 -144l-67 -166l-67 -157 l-56 -121v2q-14 -28 -14 -57z" />
<glyph unicode="&#x201e;" horiz-adv-x="1165" d="M117 -240q0 -82 100 -82h4q51 0 92 5.5t74 18.5t60.5 37.5t54.5 63.5l2 2q20 39 48 103.5t50.5 134.5t38.5 134.5t16 107.5q0 33 -18 62.5t-48 56t-67 47t-73 34.5v-2q-39 16 -70 17q-35 0 -57.5 -19.5t-32.5 -66.5l2 2l-38 -147l-45 -169l-46 -165l-39 -132 q-8 -23 -8 -43zM547 -244q0 -47 43 -66.5t125 -19.5q33 0 80 11l-2 -3q45 8 75.5 31t65.5 64l-2 -2q33 39 71.5 105.5t71.5 139t55.5 139t22.5 103.5v2q0 27 -13.5 49.5t-35.5 44.5h2q-14 18 -42 39t-58.5 39.5t-59 29.5t-47.5 11q-66 0 -96 -76q-18 -59 -50 -139l-67 -162 l-69 -158l-56 -128q-14 -27 -14 -54z" />
<glyph unicode="&#x2022;" horiz-adv-x="966" d="M135 809q0 -82 29 -148.5t78 -113.5t115.5 -72.5t144.5 -25.5h22q86 0 157 32.5t125 78.5t89 97.5t47 90.5q10 29 16.5 57.5t10.5 62.5v29q0 51 -24.5 112.5t-75 115t-127 88t-181.5 34.5q-84 0 -155.5 -30.5t-126 -82t-90 -118t-48.5 -137.5q-6 -35 -6 -70z" />
<glyph unicode="&#x2026;" horiz-adv-x="2373" d="M-47 150q0 -92 66.5 -146.5t166.5 -54.5h15q86 0 141 32.5t86 72.5t42 76l13 42q0 4 1 8t1 8v13q0 31 -14 65.5t-46 64t-81 50t-119 20.5q-55 0 -101 -17t-81 -46t-57.5 -67t-28.5 -78q-2 -10 -3 -20.5t-1 -22.5zM784 154q0 -47 19.5 -85t52.5 -65t76 -41t92 -14h14 q86 0 141.5 32.5t86 72.5t42.5 76l13 42q0 4 1 8t1 8v13q0 31 -14.5 65.5t-46 64t-80.5 50t-119 20.5q-55 0 -103.5 -17t-84 -46t-59 -67t-30.5 -78q-2 -8 -2 -19v-20zM1622 154q0 -47 19.5 -85t52 -65t75.5 -41t93 -14h14q86 0 140.5 31.5t85 71.5t43 76t14.5 44q0 4 1 8 t1 8v13q0 31 -14.5 65.5t-46.5 64t-81 50t-118 20.5q-55 0 -103.5 -17t-84.5 -46t-59.5 -67t-29.5 -78q-2 -8 -2 -19v-20z" />
<glyph unicode="&#x202f;" horiz-adv-x="552" />
<glyph unicode="&#x2039;" horiz-adv-x="1050" d="M39 768q4 -20 17.5 -38.5t35.5 -29.5l293 -129q145 -63 274 -137h-2q20 -12 37 -19t35 -7q27 0 47.5 18t34.5 48t24.5 67t18.5 75l-2 -2q4 12 4 19v12q0 39 -22.5 68.5t-62.5 56.5t-93 50l-113 52l178 77q86 36 177 69h-2q78 25 77 78q0 33 -26.5 73.5t-64.5 75.5 t-78 58.5t-64 23.5q-29 0 -60.5 -8t-74.5 -25h4q-51 -14 -112.5 -37.5t-122.5 -51.5l-116 -55q-56 -28 -96 -50l6 2q-35 -12 -57 -35t-36.5 -51.5t-22.5 -60t-15 -62.5l-10 -51v2q-8 -16 -9 -36t-1 -40z" />
<glyph unicode="&#x203a;" horiz-adv-x="1124" d="M39 692q0 -20 17.5 -49t41 -57.5t50 -55t45.5 -41.5q45 -37 88 -36q20 0 35.5 5t33.5 15h-2q117 51 241 93t281 89q45 14 74 38t49.5 57.5t35.5 75.5l32 94q10 29 10 55q0 39 -19.5 57.5t-54.5 38.5l-167 82l-172 78q-85 37 -162.5 66.5l-137.5 50.5l2 -2q-16 6 -29.5 8 t-23.5 2q-31 0 -51 -17.5t-32.5 -46t-17.5 -63.5t-5 -70q0 -84 25.5 -119.5t84.5 -54.5h-2q90 -33 180 -72l-157 -48q-80 -24 -145.5 -50.5t-106.5 -57t-41 -65.5z" />
<glyph unicode="&#x205f;" horiz-adv-x="692" />
<glyph unicode="&#x20ac;" horiz-adv-x="1599" d="M-35 719q0 -31 25.5 -90.5t64.5 -112.5h-2q41 -70 121 -70h16q8 0 19 3q10 -119 49 -211l-2 4q29 -84 92.5 -141.5t128.5 -84.5q59 -23 132 -47t165 -32h-2q10 -2 23 -3h28q100 0 185.5 28t155 79t126 121.5t101.5 156.5q18 35 29.5 67t11.5 60q0 41 -24 71t-81 46h2 q-33 10 -62.5 15.5t-58.5 5.5q-33 0 -59 -6q8 20 8 36q0 20 -8 43v-2q-10 37 -25.5 79t-38 76t-57.5 56.5t-86 22.5h-55q-25 0 -49.5 -1t-51.5 -1q0 12 11 26q0 -4 -1 -5l-1 -1h2l4 11l9 22q5 12 8 23l3 10h80q59 0 120.5 -3t123.5 -3q90 0 90 82q0 29 -7 52t-18 50 q14 -27 40 -53.5t62 -48t81 -35t100 -13.5q49 0 67.5 18.5t30.5 49.5l4 8q2 4 4 6q14 37 25.5 85.5t20 99.5t13.5 103t5 97q0 82 -23.5 152t-97.5 127q-37 27 -85 52.5t-102.5 45t-110.5 33.5t-109 20h2q-8 2 -21 3h-22q-98 0 -192.5 -48.5t-179.5 -127t-159 -180 t-133 -210.5q-61 -4 -127.5 -5t-123 -11t-93.5 -36t-37 -77q0 -41 22.5 -95t45.5 -99q27 -45 56.5 -61.5t76.5 -16.5q14 0 24 2l-12 -43l-12 -45q-41 -6 -90 -10t-92 -16.5t-73 -36t-30 -66.5zM709 471v43q84 6 164.5 11l166.5 10q-37 -25 -69 -58q-141 -154 -207 -153h-8 q-25 10 -36 49t-11 98zM1006 1327q47 74 90 122t71 52q8 -8 11.5 -26.5t3.5 -40.5q0 -16 -1 -33t-3 -37v2q-2 -10 -2 -23v-20v-41l4 -32q2 -15 6 -29q0 2 -1 3t-1 3v-2q-35 88 -150 100z" />
<glyph unicode="&#x2122;" horiz-adv-x="1978" d="M154 1720q0 -10 5 -23.5t7 -23.5q8 -27 19.5 -55.5t28.5 -52t41 -39t54 -15.5q27 0 43.5 6.5t44.5 6.5l-51 -167q-27 -89 -49.5 -176t-40.5 -166t-29 -136l2 6q-4 -12 -5 -23.5t-1 -21.5q0 -45 42 -87t108 -42q23 -8 39 -12.5t32 -4.5q31 0 49.5 14.5t24.5 49.5l-2 -4 l55 197l64 209l66 210l65 201l91 8l85 8q31 4 45 8l-62 -203l-64 -220.5t-49 -200.5t-19 -144q0 -33 14 -53t45 -37h-2q35 -25 77 -39t77 -14t49 16.5t28 49.5q16 80 43 182l58 213q4 -63 11 -119.5t15 -105.5v2q2 -43 14.5 -68t33 -39t49 -23.5t67.5 -19.5q8 -2 17 -2h18 q35 0 47 13.5t31 47.5l63 122q39 73 86 153q-27 -98 -42 -171t-15 -108q0 -31 14.5 -53t48.5 -39l-6 2q12 -8 32 -17t41.5 -16.5t43 -12.5t35.5 -5q37 0 52 16.5t26 45.5q10 47 29 115l42 149l48 166l51 168l47 153l39 125v-2q12 27 12 53q0 37 -32 62.5t-73.5 42t-83.5 27 t-65 20.5q-23 8 -40 10t-32 2q-31 0 -52 -10t-40.5 -30.5t-39.5 -52.5l-44 -75v2q-41 -61 -84 -133l-84 -143l-6 135q-2 43 -2 63q0 23 2 31l-7 51q-3 23 -12.5 40.5t-28.5 31.5t-52 27l2 -2q-43 16 -86 28.5t-101 20.5h3q-8 2 -17 2h-18q-29 0 -46.5 -7.5t-29.5 -23.5 t-23.5 -43t-25.5 -65q-6 25 -17.5 53t-30 52t-46 39t-68.5 15q-66 0 -147.5 -6t-167.5 -15t-168 -19.5t-148 -20.5q-29 -10 -48 -21.5t-19 -42.5z" />
<glyph unicode="&#xe000;" horiz-adv-x="1895" d="M0 1895h1895v-1895h-1895v1895z" />
<glyph unicode="&#xfb01;" horiz-adv-x="1902" d="M-98 176q0 -43 16 -71.5t62 -55.5l2 -2q53 -25 122.5 -52.5t126.5 -27.5q45 0 76 20.5t41 67.5l-2 -4l84 283q43 152 94 311q111 25 221.5 46.5t221.5 39.5q61 10 87.5 29.5t26.5 66.5q0 20 -8 45l2 -2l-19 80q-11 45 -33 85t-58.5 67.5t-94.5 27.5h-18l-87 -4 q-44 -2 -87 -6q29 86 51.5 163t46.5 136q49 6 120 17l151 22l163 26l160 25l-92 -331l-89 -349q-42 -170 -75 -316t-49 -241q-6 -35 -6 -63q0 -49 25.5 -82t67.5 -57.5t92 -41t99 -30.5h-2q20 -6 36 -8t26 -2q43 0 60.5 20.5t31.5 65.5l65 229l74 266l82 283l84 277l80 252 q39 118 72 206l-2 -2q10 20 12 35.5t2 32.5q0 55 -36 109.5t-95 97.5t-137 68.5t-160 25.5h-27q-12 0 -24 -2l-173 -21l-217 -26q-116 -14 -238 -32l-234 -35q-113 -17 -208.5 -34.5t-156.5 -34.5q-6 -100 -31.5 -236t-60.5 -286.5t-76 -304.5l-78 -290l-65 -243 q-29 -108 -39 -165q-6 -35 -6 -68z" />
<glyph unicode="&#xfb02;" horiz-adv-x="2228" d="M-98 176q0 -43 17.5 -72.5t68.5 -60.5q49 -23 116.5 -49.5t128.5 -26.5q45 0 76 20.5t41 67.5l-2 -4l81 282q44 153 97 312q111 25 221.5 46.5t221.5 39.5q61 10 87.5 29.5t26.5 66.5q0 16 -6 45l2 -2q-8 37 -20 82t-33.5 85t-58.5 66.5t-95 26.5h-18q-90 -4 -174 -12 l48 159q26 81 50 140q45 6 111 14l142 15l159 17l160 18l-96 -303l-90 -309.5t-75.5 -285.5t-52.5 -233q-6 -31 -6 -61q0 -47 16.5 -82t47.5 -66l28 -26l50 -53q24 -26 49.5 -47t57.5 -34.5t75 -13.5q23 0 48 4t60 15l-4 -2q129 31 271 58l276 56q63 16 87 32.5t24 57.5 q0 47 -18.5 109.5t-53.5 122.5l2 -2q-23 47 -55.5 67.5t-83.5 20.5h-21q-8 0 -18 -2h2q-82 -6 -152.5 -14.5t-144.5 -20.5l92 298l99 300l99 282l91 244q16 39 16 84q0 63 -41 109.5t-101.5 77t-132 45t-132.5 14.5h-25q-74 -4 -180.5 -11t-228.5 -20l-250 -26 q-129 -14 -248 -30.5t-216.5 -33t-156.5 -33.5q-6 -100 -31.5 -237t-61.5 -287.5t-77 -304.5l-78 -290l-64 -242q-28 -106 -38 -164q-6 -35 -6 -68z" />
<glyph unicode="&#xfb03;" horiz-adv-x="2977" d="M2244 176q0 -47 24 -80t62.5 -56.5t85.5 -39.5l97 -33q18 -6 32.5 -8t24.5 -2q41 0 58.5 19.5t31.5 64.5l61 230l71 267l78 281l80 278l77 252q37 118 67 205q12 39 13 70q0 35 -17.5 60.5t-58.5 54.5l2 -2q-31 23 -70 44t-81 38.5t-79.5 29t-64.5 11.5 q-41 0 -65.5 -21.5t-45.5 -75.5q-29 -88 -63 -213l-72 -267l-75 -293l-70 -290q-33 -139 -57.5 -258.5t-36.5 -199.5q-4 -18 -6.5 -32t-2.5 -34zM1082 176q0 -43 17.5 -72.5t66.5 -60.5q49 -23 115.5 -49.5t125.5 -26.5q43 0 74 20.5t39 67.5v-4l78 277q43 154 96 317 q109 25 218 45l218 41q59 10 85 29.5t26 66.5q0 14 -6 45l2 -2q-8 37 -20.5 82t-34 84t-57.5 65.5t-91 26.5h-18q-43 0 -86 -3t-86 -7q29 86 51 163t47 136q125 16 241.5 28.5t225.5 29.5q63 8 86.5 28.5t23.5 75.5q0 45 -14 98.5t-42 99.5t-67.5 76.5t-93.5 30.5h-14 q-106 -4 -220 -14t-225.5 -24.5t-217 -34t-193.5 -44.5q-6 -100 -31.5 -236t-60.5 -285.5t-75 -304.5l-77 -290l-64 -242q-28 -108 -36 -165q-6 -37 -6 -68zM-96 176q0 -43 17.5 -72.5t66.5 -60.5q49 -23 115.5 -49.5t125.5 -26.5q43 0 74 20.5t39 67.5v-4l78 277 q43 154 96 317q109 25 218 45l218 41q59 10 85 29.5t26 66.5q0 14 -6 45l2 -2q-8 37 -20.5 82t-34 84t-57.5 65.5t-91 26.5h-18q-43 0 -86 -3t-86 -7q29 86 51 163t47 136q125 16 241.5 28.5t225.5 29.5q63 8 86.5 28.5t23.5 75.5q0 45 -14 98.5t-42 99.5t-67.5 76.5 t-93.5 30.5h-14q-106 -4 -220 -14t-225.5 -24.5t-217 -34t-193.5 -44.5q-6 -100 -31.5 -236t-60.5 -285.5t-75 -304.5l-77 -290l-64 -242q-28 -108 -36 -165q-6 -37 -6 -68z" />
<glyph unicode="&#xfb04;" horiz-adv-x="3434" d="M2244 285q0 -47 16.5 -82t45.5 -64l41 -41h-2q25 -27 45 -46l43 -40v2q23 -20 49.5 -34.5t73.5 -14.5q23 0 48 3t56 14h-2q123 31 259 57.5t265 56.5l2 2q59 16 82 32.5t23 53.5q0 45 -17.5 111.5t-50.5 120.5l2 -2q-25 49 -56.5 69.5t-82.5 20.5q-90 0 -165 -12 l-152 -25l90 298l94 300l94 282l88 244l-2 -2q10 23 14.5 38t4.5 32q0 37 -40 77t-97.5 74.5t-122 57t-113.5 22.5q-74 0 -115 -92l-75 -216l-79 -252l-79 -270l-73 -267q-34 -129 -60.5 -244t-42.5 -203l2 4q-6 -20 -8.5 -35.5t-2.5 -29.5zM1082 176q0 -43 17.5 -72.5 t66.5 -60.5q49 -23 115.5 -49.5t125.5 -26.5q43 0 74 20.5t39 67.5v-4l78 277q43 154 96 317q109 25 218 45l218 41q59 10 85 29.5t26 66.5q0 14 -6 45l2 -2q-8 37 -20.5 82t-34 84t-57.5 65.5t-91 26.5h-18q-43 0 -86 -3t-86 -7q29 86 51 163t47 136q125 16 241.5 28.5 t225.5 29.5q63 8 86.5 28.5t23.5 75.5q0 45 -14 98.5t-42 99.5t-67.5 76.5t-93.5 30.5h-14q-106 -4 -220 -14t-225.5 -24.5t-217 -34t-193.5 -44.5q-6 -100 -31.5 -236t-60.5 -285.5t-75 -304.5l-77 -290l-64 -242q-28 -108 -36 -165q-6 -37 -6 -68zM-96 176 q0 -43 17.5 -72.5t66.5 -60.5q49 -23 115.5 -49.5t125.5 -26.5q43 0 74 20.5t39 67.5v-4l78 277q43 154 96 317q109 25 218 45l218 41q59 10 85 29.5t26 66.5q0 14 -6 45l2 -2q-8 37 -20.5 82t-34 84t-57.5 65.5t-91 26.5h-18q-43 0 -86 -3t-86 -7q29 86 51 163t47 136 q125 16 241.5 28.5t225.5 29.5q63 8 86.5 28.5t23.5 75.5q0 45 -14 98.5t-42 99.5t-67.5 76.5t-93.5 30.5h-14q-106 -4 -220 -14t-225.5 -24.5t-217 -34t-193.5 -44.5q-6 -100 -31.5 -236t-60.5 -285.5t-75 -304.5l-77 -290l-64 -242q-28 -108 -36 -165q-6 -37 -6 -68z" />
</font>
</defs>
</svg>
